G04 EAGLE Gerber RS-274X export*
G75*
%MOMM*%
%FSLAX34Y34*%
%LPD*%
%INSilkscreen Top*%
%IPPOS*%
%AMOC8*
5,1,8,0,0,1.08239X$1,22.5*%
G01*
G04 Define Apertures*
%ADD10C,0.203200*%
%ADD11C,0.025400*%
%ADD12C,0.152400*%
%ADD13C,0.127000*%
G36*
X227251Y284988D02*
X225578Y284988D01*
X225578Y297329D01*
X230772Y297329D01*
X231276Y297314D01*
X231751Y297268D01*
X232197Y297192D01*
X232613Y297086D01*
X233001Y296949D01*
X233359Y296782D01*
X233687Y296584D01*
X233986Y296357D01*
X234253Y296101D01*
X234485Y295821D01*
X234680Y295515D01*
X234840Y295185D01*
X234965Y294830D01*
X235054Y294450D01*
X235107Y294045D01*
X235125Y293615D01*
X235107Y293188D01*
X235054Y292784D01*
X234964Y292402D01*
X234839Y292043D01*
X234679Y291706D01*
X234482Y291392D01*
X234250Y291100D01*
X233982Y290830D01*
X233683Y290588D01*
X233359Y290378D01*
X233010Y290200D01*
X232634Y290055D01*
X232233Y289942D01*
X231807Y289861D01*
X231355Y289813D01*
X230877Y289796D01*
X227251Y289796D01*
X227251Y284988D01*
G37*
%LPC*%
G36*
X230641Y291119D02*
X230980Y291129D01*
X231298Y291158D01*
X231593Y291206D01*
X231867Y291274D01*
X232119Y291361D01*
X232349Y291468D01*
X232557Y291593D01*
X232743Y291739D01*
X232907Y291903D01*
X233049Y292087D01*
X233170Y292291D01*
X233268Y292513D01*
X233345Y292755D01*
X233400Y293017D01*
X233432Y293297D01*
X233443Y293598D01*
X233432Y293887D01*
X233398Y294158D01*
X233342Y294410D01*
X233264Y294644D01*
X233163Y294859D01*
X233039Y295055D01*
X232893Y295232D01*
X232725Y295391D01*
X232534Y295531D01*
X232321Y295652D01*
X232086Y295755D01*
X231827Y295839D01*
X231547Y295905D01*
X231244Y295951D01*
X230918Y295979D01*
X230571Y295989D01*
X227251Y295989D01*
X227251Y291119D01*
X230641Y291119D01*
G37*
%LPD*%
G36*
X245176Y284988D02*
X237442Y284988D01*
X237442Y286328D01*
X240586Y286328D01*
X240586Y295822D01*
X237801Y293834D01*
X237801Y295323D01*
X240718Y297329D01*
X242171Y297329D01*
X242171Y286328D01*
X245176Y286328D01*
X245176Y284988D01*
G37*
G36*
X219141Y284813D02*
X218759Y284826D01*
X218397Y284863D01*
X218054Y284927D01*
X217732Y285015D01*
X217430Y285129D01*
X217147Y285269D01*
X216885Y285433D01*
X216642Y285623D01*
X216420Y285838D01*
X216217Y286079D01*
X216034Y286345D01*
X215871Y286636D01*
X215728Y286952D01*
X215605Y287294D01*
X215502Y287661D01*
X215418Y288053D01*
X217056Y288325D01*
X217102Y288078D01*
X217160Y287845D01*
X217230Y287626D01*
X217312Y287421D01*
X217407Y287230D01*
X217514Y287052D01*
X217634Y286889D01*
X217766Y286740D01*
X217908Y286606D01*
X218059Y286491D01*
X218219Y286393D01*
X218387Y286313D01*
X218565Y286250D01*
X218751Y286206D01*
X218946Y286179D01*
X219149Y286170D01*
X219371Y286180D01*
X219581Y286210D01*
X219778Y286258D01*
X219964Y286327D01*
X220137Y286415D01*
X220299Y286523D01*
X220448Y286650D01*
X220586Y286797D01*
X220709Y286962D01*
X220816Y287146D01*
X220906Y287348D01*
X220980Y287568D01*
X221037Y287807D01*
X221078Y288064D01*
X221103Y288338D01*
X221111Y288632D01*
X221111Y295962D01*
X218738Y295962D01*
X218738Y297329D01*
X222775Y297329D01*
X222775Y288667D01*
X222760Y288230D01*
X222715Y287817D01*
X222639Y287428D01*
X222532Y287063D01*
X222396Y286722D01*
X222229Y286404D01*
X222031Y286111D01*
X221803Y285842D01*
X221549Y285601D01*
X221272Y285392D01*
X220973Y285215D01*
X220652Y285070D01*
X220307Y284958D01*
X219941Y284877D01*
X219552Y284829D01*
X219141Y284813D01*
G37*
D10*
X342900Y146050D02*
X342900Y184150D01*
D11*
X343738Y184937D02*
X341909Y183565D01*
X341909Y183566D02*
X341450Y184157D01*
X340977Y184737D01*
X340490Y185305D01*
X339989Y185861D01*
X339475Y186404D01*
X338948Y186935D01*
X338408Y187453D01*
X337855Y187958D01*
X337290Y188448D01*
X336713Y188925D01*
X336125Y189388D01*
X335526Y189836D01*
X334915Y190269D01*
X334295Y190688D01*
X333664Y191090D01*
X333024Y191478D01*
X332375Y191850D01*
X331716Y192205D01*
X331049Y192545D01*
X330374Y192868D01*
X329691Y193174D01*
X329001Y193464D01*
X328305Y193737D01*
X327601Y193992D01*
X326892Y194230D01*
X326177Y194451D01*
X325457Y194655D01*
X324732Y194840D01*
X324003Y195008D01*
X323269Y195158D01*
X322533Y195290D01*
X321793Y195404D01*
X321051Y195500D01*
X320307Y195578D01*
X319561Y195638D01*
X318814Y195679D01*
X318066Y195702D01*
X317317Y195706D01*
X316569Y195693D01*
X315821Y195661D01*
X315075Y195611D01*
X314330Y195542D01*
X313586Y195456D01*
X312845Y195351D01*
X312107Y195228D01*
X311372Y195087D01*
X310641Y194929D01*
X309914Y194752D01*
X309191Y194558D01*
X308473Y194346D01*
X307761Y194116D01*
X307055Y193869D01*
X306354Y193605D01*
X305661Y193324D01*
X304974Y193027D01*
X304295Y192712D01*
X303624Y192381D01*
X302961Y192034D01*
X302307Y191670D01*
X301662Y191291D01*
X301027Y190896D01*
X300401Y190485D01*
X299785Y190060D01*
X299180Y189619D01*
X298586Y189164D01*
X298004Y188694D01*
X297433Y188210D01*
X296874Y187713D01*
X296327Y187202D01*
X295793Y186678D01*
X295272Y186141D01*
X294764Y185591D01*
X294270Y185029D01*
X293790Y184455D01*
X293324Y183870D01*
X292872Y183273D01*
X292435Y182665D01*
X292013Y182047D01*
X291606Y181419D01*
X291215Y180781D01*
X290840Y180134D01*
X290480Y179478D01*
X290137Y178813D01*
X289810Y178140D01*
X289499Y177459D01*
X289205Y176771D01*
X288929Y176075D01*
X288669Y175374D01*
X288426Y174666D01*
X288201Y173952D01*
X287993Y173233D01*
X287803Y172509D01*
X287631Y171781D01*
X287477Y171049D01*
X287340Y170313D01*
X287222Y169574D01*
X287121Y168832D01*
X287039Y168089D01*
X286975Y167343D01*
X286930Y166596D01*
X286902Y165848D01*
X286893Y165100D01*
X286902Y164352D01*
X286930Y163604D01*
X286975Y162857D01*
X287039Y162111D01*
X287121Y161368D01*
X287222Y160626D01*
X287340Y159887D01*
X287477Y159151D01*
X287631Y158419D01*
X287803Y157691D01*
X287993Y156967D01*
X288201Y156248D01*
X288426Y155534D01*
X288669Y154826D01*
X288929Y154125D01*
X289205Y153429D01*
X289499Y152741D01*
X289810Y152060D01*
X290137Y151387D01*
X290480Y150722D01*
X290840Y150066D01*
X291215Y149419D01*
X291606Y148781D01*
X292013Y148153D01*
X292435Y147535D01*
X292872Y146927D01*
X293324Y146330D01*
X293790Y145745D01*
X294270Y145171D01*
X294764Y144609D01*
X295272Y144059D01*
X295793Y143522D01*
X296327Y142998D01*
X296874Y142487D01*
X297433Y141990D01*
X298004Y141506D01*
X298586Y141036D01*
X299180Y140581D01*
X299785Y140140D01*
X300401Y139715D01*
X301027Y139304D01*
X301662Y138909D01*
X302307Y138530D01*
X302961Y138166D01*
X303624Y137819D01*
X304295Y137488D01*
X304974Y137173D01*
X305661Y136876D01*
X306354Y136595D01*
X307055Y136331D01*
X307761Y136084D01*
X308473Y135854D01*
X309191Y135642D01*
X309914Y135448D01*
X310641Y135271D01*
X311372Y135113D01*
X312107Y134972D01*
X312845Y134849D01*
X313586Y134744D01*
X314330Y134658D01*
X315075Y134589D01*
X315821Y134539D01*
X316569Y134507D01*
X317317Y134494D01*
X318066Y134498D01*
X318814Y134521D01*
X319561Y134562D01*
X320307Y134622D01*
X321051Y134700D01*
X321793Y134796D01*
X322533Y134910D01*
X323269Y135042D01*
X324003Y135192D01*
X324732Y135360D01*
X325457Y135545D01*
X326177Y135749D01*
X326892Y135970D01*
X327601Y136208D01*
X328305Y136463D01*
X329001Y136736D01*
X329691Y137026D01*
X330374Y137332D01*
X331049Y137655D01*
X331716Y137995D01*
X332375Y138350D01*
X333024Y138722D01*
X333664Y139110D01*
X334295Y139512D01*
X334915Y139931D01*
X335526Y140364D01*
X336125Y140812D01*
X336713Y141275D01*
X337290Y141752D01*
X337855Y142242D01*
X338408Y142747D01*
X338948Y143265D01*
X339475Y143796D01*
X339989Y144339D01*
X340490Y144895D01*
X340977Y145463D01*
X341450Y146043D01*
X341909Y146634D01*
X343738Y145263D01*
X343245Y144627D01*
X342737Y144004D01*
X342213Y143393D01*
X341675Y142795D01*
X341123Y142211D01*
X340556Y141640D01*
X339976Y141083D01*
X339382Y140541D01*
X338775Y140013D01*
X338155Y139501D01*
X337523Y139003D01*
X336879Y138521D01*
X336223Y138056D01*
X335556Y137606D01*
X334878Y137173D01*
X334190Y136756D01*
X333492Y136356D01*
X332785Y135974D01*
X332068Y135609D01*
X331343Y135262D01*
X330609Y134932D01*
X329867Y134621D01*
X329118Y134327D01*
X328363Y134052D01*
X327600Y133796D01*
X326832Y133558D01*
X326058Y133340D01*
X325279Y133140D01*
X324495Y132959D01*
X323707Y132798D01*
X322915Y132656D01*
X322120Y132533D01*
X321323Y132430D01*
X320523Y132346D01*
X319721Y132282D01*
X318918Y132238D01*
X318114Y132213D01*
X317310Y132208D01*
X316505Y132222D01*
X315702Y132256D01*
X314899Y132310D01*
X314098Y132383D01*
X313299Y132476D01*
X312503Y132589D01*
X311710Y132721D01*
X310920Y132872D01*
X310134Y133042D01*
X309352Y133232D01*
X308575Y133441D01*
X307804Y133669D01*
X307038Y133915D01*
X306279Y134180D01*
X305526Y134464D01*
X304781Y134766D01*
X304043Y135086D01*
X303313Y135424D01*
X302591Y135780D01*
X301879Y136153D01*
X301176Y136544D01*
X300483Y136951D01*
X299799Y137376D01*
X299127Y137817D01*
X298465Y138274D01*
X297815Y138748D01*
X297177Y139237D01*
X296550Y139741D01*
X295936Y140261D01*
X295336Y140796D01*
X294748Y141345D01*
X294174Y141909D01*
X293614Y142486D01*
X293068Y143077D01*
X292537Y143681D01*
X292021Y144297D01*
X291520Y144927D01*
X291034Y145568D01*
X290564Y146221D01*
X290111Y146885D01*
X289674Y147560D01*
X289253Y148246D01*
X288849Y148941D01*
X288463Y149647D01*
X288094Y150361D01*
X287742Y151085D01*
X287408Y151817D01*
X287093Y152556D01*
X286795Y153304D01*
X286516Y154058D01*
X286255Y154819D01*
X286013Y155586D01*
X285790Y156359D01*
X285586Y157137D01*
X285400Y157919D01*
X285234Y158706D01*
X285088Y159497D01*
X284960Y160291D01*
X284853Y161088D01*
X284764Y161888D01*
X284695Y162689D01*
X284646Y163492D01*
X284617Y164296D01*
X284607Y165100D01*
X284617Y165904D01*
X284646Y166708D01*
X284695Y167511D01*
X284764Y168312D01*
X284853Y169112D01*
X284960Y169909D01*
X285088Y170703D01*
X285234Y171494D01*
X285400Y172281D01*
X285586Y173063D01*
X285790Y173841D01*
X286013Y174614D01*
X286255Y175381D01*
X286516Y176142D01*
X286795Y176896D01*
X287093Y177644D01*
X287408Y178383D01*
X287742Y179115D01*
X288094Y179839D01*
X288463Y180553D01*
X288849Y181259D01*
X289253Y181954D01*
X289674Y182640D01*
X290111Y183315D01*
X290564Y183979D01*
X291034Y184632D01*
X291520Y185273D01*
X292021Y185903D01*
X292537Y186519D01*
X293068Y187123D01*
X293614Y187714D01*
X294174Y188291D01*
X294748Y188855D01*
X295336Y189404D01*
X295936Y189939D01*
X296550Y190459D01*
X297177Y190963D01*
X297815Y191452D01*
X298465Y191926D01*
X299127Y192383D01*
X299799Y192824D01*
X300483Y193249D01*
X301176Y193656D01*
X301879Y194047D01*
X302591Y194420D01*
X303313Y194776D01*
X304043Y195114D01*
X304781Y195434D01*
X305526Y195736D01*
X306279Y196020D01*
X307038Y196285D01*
X307804Y196531D01*
X308575Y196759D01*
X309352Y196968D01*
X310134Y197158D01*
X310920Y197328D01*
X311710Y197479D01*
X312503Y197611D01*
X313299Y197724D01*
X314098Y197817D01*
X314899Y197890D01*
X315702Y197944D01*
X316505Y197978D01*
X317310Y197992D01*
X318114Y197987D01*
X318918Y197962D01*
X319721Y197918D01*
X320523Y197854D01*
X321323Y197770D01*
X322120Y197667D01*
X322915Y197544D01*
X323707Y197402D01*
X324495Y197241D01*
X325279Y197060D01*
X326058Y196860D01*
X326832Y196642D01*
X327600Y196404D01*
X328363Y196148D01*
X329118Y195873D01*
X329867Y195579D01*
X330609Y195268D01*
X331343Y194938D01*
X332068Y194591D01*
X332785Y194226D01*
X333492Y193844D01*
X334190Y193444D01*
X334878Y193027D01*
X335556Y192594D01*
X336223Y192144D01*
X336879Y191679D01*
X337523Y191197D01*
X338155Y190699D01*
X338775Y190187D01*
X339382Y189659D01*
X339976Y189117D01*
X340556Y188560D01*
X341123Y187989D01*
X341675Y187405D01*
X342213Y186807D01*
X342737Y186196D01*
X343245Y185573D01*
X343738Y184937D01*
X343546Y184793D01*
X343057Y185424D01*
X342552Y186043D01*
X342033Y186649D01*
X341498Y187243D01*
X340950Y187823D01*
X340387Y188389D01*
X339811Y188942D01*
X339221Y189480D01*
X338619Y190004D01*
X338003Y190513D01*
X337376Y191007D01*
X336737Y191485D01*
X336086Y191948D01*
X335424Y192394D01*
X334751Y192824D01*
X334068Y193238D01*
X333375Y193634D01*
X332673Y194014D01*
X331961Y194376D01*
X331241Y194721D01*
X330513Y195048D01*
X329776Y195357D01*
X329033Y195648D01*
X328283Y195921D01*
X327526Y196176D01*
X326763Y196412D01*
X325995Y196629D01*
X325221Y196827D01*
X324443Y197006D01*
X323661Y197167D01*
X322875Y197308D01*
X322086Y197429D01*
X321294Y197532D01*
X320500Y197615D01*
X319704Y197679D01*
X318907Y197723D01*
X318109Y197747D01*
X317310Y197752D01*
X316512Y197738D01*
X315714Y197704D01*
X314918Y197651D01*
X314123Y197578D01*
X313330Y197486D01*
X312539Y197374D01*
X311751Y197243D01*
X310967Y197093D01*
X310187Y196924D01*
X309411Y196735D01*
X308640Y196528D01*
X307874Y196302D01*
X307114Y196057D01*
X306360Y195794D01*
X305613Y195512D01*
X304873Y195213D01*
X304140Y194895D01*
X303416Y194559D01*
X302700Y194206D01*
X301993Y193836D01*
X301295Y193448D01*
X300606Y193043D01*
X299928Y192622D01*
X299261Y192184D01*
X298604Y191730D01*
X297958Y191260D01*
X297325Y190774D01*
X296703Y190273D01*
X296094Y189757D01*
X295497Y189227D01*
X294914Y188681D01*
X294344Y188122D01*
X293788Y187549D01*
X293246Y186962D01*
X292719Y186363D01*
X292206Y185751D01*
X291709Y185126D01*
X291227Y184489D01*
X290761Y183841D01*
X290311Y183182D01*
X289877Y182512D01*
X289459Y181831D01*
X289058Y181140D01*
X288675Y180440D01*
X288308Y179731D01*
X287959Y179013D01*
X287628Y178286D01*
X287314Y177552D01*
X287019Y176810D01*
X286742Y176061D01*
X286483Y175306D01*
X286243Y174545D01*
X286021Y173778D01*
X285818Y173005D01*
X285635Y172228D01*
X285470Y171447D01*
X285324Y170662D01*
X285198Y169874D01*
X285091Y169082D01*
X285003Y168289D01*
X284935Y167493D01*
X284886Y166696D01*
X284857Y165898D01*
X284847Y165100D01*
X284857Y164302D01*
X284886Y163504D01*
X284935Y162707D01*
X285003Y161911D01*
X285091Y161118D01*
X285198Y160326D01*
X285324Y159538D01*
X285470Y158753D01*
X285635Y157972D01*
X285818Y157195D01*
X286021Y156422D01*
X286243Y155655D01*
X286483Y154894D01*
X286742Y154139D01*
X287019Y153390D01*
X287314Y152648D01*
X287628Y151914D01*
X287959Y151187D01*
X288308Y150469D01*
X288675Y149760D01*
X289058Y149060D01*
X289459Y148369D01*
X289877Y147688D01*
X290311Y147018D01*
X290761Y146359D01*
X291227Y145711D01*
X291709Y145074D01*
X292206Y144449D01*
X292719Y143837D01*
X293246Y143238D01*
X293788Y142651D01*
X294344Y142078D01*
X294914Y141519D01*
X295497Y140973D01*
X296094Y140443D01*
X296703Y139927D01*
X297325Y139426D01*
X297958Y138940D01*
X298604Y138470D01*
X299261Y138016D01*
X299928Y137578D01*
X300606Y137157D01*
X301295Y136752D01*
X301993Y136364D01*
X302700Y135994D01*
X303416Y135641D01*
X304140Y135305D01*
X304873Y134987D01*
X305613Y134688D01*
X306360Y134406D01*
X307114Y134143D01*
X307874Y133898D01*
X308640Y133672D01*
X309411Y133465D01*
X310187Y133276D01*
X310967Y133107D01*
X311751Y132957D01*
X312539Y132826D01*
X313330Y132714D01*
X314123Y132622D01*
X314918Y132549D01*
X315714Y132496D01*
X316512Y132462D01*
X317310Y132448D01*
X318109Y132453D01*
X318907Y132477D01*
X319704Y132521D01*
X320500Y132585D01*
X321294Y132668D01*
X322086Y132771D01*
X322875Y132892D01*
X323661Y133033D01*
X324443Y133194D01*
X325221Y133373D01*
X325995Y133571D01*
X326763Y133788D01*
X327526Y134024D01*
X328283Y134279D01*
X329033Y134552D01*
X329776Y134843D01*
X330513Y135152D01*
X331241Y135479D01*
X331961Y135824D01*
X332673Y136186D01*
X333375Y136566D01*
X334068Y136962D01*
X334751Y137376D01*
X335424Y137806D01*
X336086Y138252D01*
X336737Y138715D01*
X337376Y139193D01*
X338003Y139687D01*
X338619Y140196D01*
X339221Y140720D01*
X339811Y141258D01*
X340387Y141811D01*
X340950Y142377D01*
X341498Y142957D01*
X342033Y143551D01*
X342552Y144157D01*
X343057Y144776D01*
X343546Y145407D01*
X343354Y145551D01*
X342868Y144924D01*
X342367Y144310D01*
X341852Y143708D01*
X341321Y143119D01*
X340777Y142544D01*
X340218Y141981D01*
X339646Y141433D01*
X339061Y140898D01*
X338463Y140378D01*
X337852Y139873D01*
X337229Y139383D01*
X336595Y138908D01*
X335948Y138449D01*
X335291Y138006D01*
X334624Y137579D01*
X333945Y137169D01*
X333258Y136775D01*
X332560Y136398D01*
X331854Y136039D01*
X331139Y135696D01*
X330416Y135372D01*
X329686Y135065D01*
X328948Y134776D01*
X328203Y134505D01*
X327451Y134252D01*
X326694Y134018D01*
X325932Y133803D01*
X325164Y133606D01*
X324391Y133428D01*
X323615Y133269D01*
X322835Y133129D01*
X322052Y133008D01*
X321266Y132906D01*
X320477Y132824D01*
X319687Y132761D01*
X318896Y132717D01*
X318104Y132693D01*
X317311Y132688D01*
X316519Y132702D01*
X315727Y132736D01*
X314936Y132789D01*
X314147Y132861D01*
X313360Y132953D01*
X312575Y133063D01*
X311793Y133193D01*
X311015Y133342D01*
X310240Y133511D01*
X309470Y133697D01*
X308704Y133903D01*
X307944Y134128D01*
X307190Y134370D01*
X306442Y134632D01*
X305700Y134911D01*
X304965Y135209D01*
X304238Y135524D01*
X303519Y135857D01*
X302808Y136208D01*
X302106Y136576D01*
X301413Y136961D01*
X300730Y137362D01*
X300057Y137781D01*
X299394Y138215D01*
X298742Y138666D01*
X298102Y139133D01*
X297473Y139615D01*
X296855Y140112D01*
X296251Y140624D01*
X295659Y141151D01*
X295080Y141692D01*
X294514Y142247D01*
X293962Y142816D01*
X293424Y143398D01*
X292901Y143994D01*
X292392Y144601D01*
X291898Y145221D01*
X291420Y145853D01*
X290957Y146497D01*
X290510Y147151D01*
X290080Y147816D01*
X289665Y148492D01*
X289267Y149178D01*
X288887Y149873D01*
X288523Y150577D01*
X288176Y151290D01*
X287847Y152011D01*
X287536Y152740D01*
X287243Y153476D01*
X286968Y154219D01*
X286711Y154969D01*
X286472Y155725D01*
X286252Y156486D01*
X286051Y157253D01*
X285869Y158024D01*
X285705Y158800D01*
X285561Y159579D01*
X285435Y160362D01*
X285329Y161147D01*
X285242Y161935D01*
X285174Y162724D01*
X285126Y163515D01*
X285097Y164307D01*
X285087Y165100D01*
X285097Y165893D01*
X285126Y166685D01*
X285174Y167476D01*
X285242Y168265D01*
X285329Y169053D01*
X285435Y169838D01*
X285561Y170621D01*
X285705Y171400D01*
X285869Y172176D01*
X286051Y172947D01*
X286252Y173714D01*
X286472Y174475D01*
X286711Y175231D01*
X286968Y175981D01*
X287243Y176724D01*
X287536Y177460D01*
X287847Y178189D01*
X288176Y178910D01*
X288523Y179623D01*
X288887Y180327D01*
X289267Y181022D01*
X289665Y181708D01*
X290080Y182384D01*
X290510Y183049D01*
X290957Y183703D01*
X291420Y184347D01*
X291898Y184979D01*
X292392Y185599D01*
X292901Y186206D01*
X293424Y186802D01*
X293962Y187384D01*
X294514Y187953D01*
X295080Y188508D01*
X295659Y189049D01*
X296251Y189576D01*
X296855Y190088D01*
X297473Y190585D01*
X298102Y191067D01*
X298742Y191534D01*
X299394Y191985D01*
X300057Y192419D01*
X300730Y192838D01*
X301413Y193239D01*
X302106Y193624D01*
X302808Y193992D01*
X303519Y194343D01*
X304238Y194676D01*
X304965Y194991D01*
X305700Y195289D01*
X306442Y195568D01*
X307190Y195830D01*
X307944Y196072D01*
X308704Y196297D01*
X309470Y196503D01*
X310240Y196689D01*
X311015Y196858D01*
X311793Y197007D01*
X312575Y197137D01*
X313360Y197247D01*
X314147Y197339D01*
X314936Y197411D01*
X315727Y197464D01*
X316519Y197498D01*
X317311Y197512D01*
X318104Y197507D01*
X318896Y197483D01*
X319687Y197439D01*
X320477Y197376D01*
X321266Y197294D01*
X322052Y197192D01*
X322835Y197071D01*
X323615Y196931D01*
X324391Y196772D01*
X325164Y196594D01*
X325932Y196397D01*
X326694Y196182D01*
X327451Y195948D01*
X328203Y195695D01*
X328948Y195424D01*
X329686Y195135D01*
X330416Y194828D01*
X331139Y194504D01*
X331854Y194161D01*
X332560Y193802D01*
X333258Y193425D01*
X333945Y193031D01*
X334624Y192621D01*
X335291Y192194D01*
X335948Y191751D01*
X336595Y191292D01*
X337229Y190817D01*
X337852Y190327D01*
X338463Y189822D01*
X339061Y189302D01*
X339646Y188767D01*
X340218Y188219D01*
X340777Y187656D01*
X341321Y187081D01*
X341852Y186492D01*
X342367Y185890D01*
X342868Y185276D01*
X343354Y184649D01*
X343162Y184505D01*
X342680Y185127D01*
X342183Y185737D01*
X341671Y186334D01*
X341144Y186918D01*
X340604Y187490D01*
X340049Y188048D01*
X339482Y188593D01*
X338901Y189123D01*
X338307Y189639D01*
X337701Y190141D01*
X337082Y190627D01*
X336452Y191098D01*
X335811Y191554D01*
X335159Y191994D01*
X334496Y192417D01*
X333823Y192825D01*
X333140Y193216D01*
X332448Y193590D01*
X331747Y193946D01*
X331038Y194286D01*
X330320Y194608D01*
X329595Y194913D01*
X328862Y195200D01*
X328123Y195469D01*
X327377Y195719D01*
X326625Y195952D01*
X325868Y196166D01*
X325106Y196361D01*
X324340Y196538D01*
X323569Y196695D01*
X322795Y196834D01*
X322017Y196954D01*
X321237Y197055D01*
X320455Y197137D01*
X319670Y197200D01*
X318885Y197243D01*
X318099Y197267D01*
X317312Y197272D01*
X316525Y197258D01*
X315739Y197225D01*
X314955Y197172D01*
X314171Y197100D01*
X313390Y197009D01*
X312611Y196899D01*
X311835Y196770D01*
X311062Y196622D01*
X310293Y196455D01*
X309529Y196270D01*
X308769Y196066D01*
X308015Y195843D01*
X307266Y195602D01*
X306523Y195343D01*
X305787Y195065D01*
X305058Y194770D01*
X304336Y194457D01*
X303622Y194126D01*
X302917Y193778D01*
X302220Y193413D01*
X301532Y193031D01*
X300854Y192632D01*
X300186Y192217D01*
X299528Y191785D01*
X298881Y191338D01*
X298245Y190875D01*
X297621Y190396D01*
X297008Y189903D01*
X296408Y189394D01*
X295820Y188871D01*
X295245Y188334D01*
X294684Y187783D01*
X294136Y187219D01*
X293602Y186641D01*
X293083Y186050D01*
X292578Y185447D01*
X292088Y184831D01*
X291613Y184204D01*
X291154Y183565D01*
X290710Y182916D01*
X290282Y182255D01*
X289871Y181585D01*
X289476Y180904D01*
X289098Y180214D01*
X288737Y179515D01*
X288393Y178808D01*
X288067Y178092D01*
X287758Y177369D01*
X287467Y176638D01*
X287194Y175900D01*
X286939Y175156D01*
X286702Y174406D01*
X286484Y173650D01*
X286284Y172889D01*
X286103Y172123D01*
X285941Y171354D01*
X285797Y170580D01*
X285673Y169803D01*
X285567Y169024D01*
X285481Y168242D01*
X285414Y167458D01*
X285365Y166673D01*
X285337Y165887D01*
X285327Y165100D01*
X285337Y164313D01*
X285365Y163527D01*
X285414Y162742D01*
X285481Y161958D01*
X285567Y161176D01*
X285673Y160397D01*
X285797Y159620D01*
X285941Y158846D01*
X286103Y158077D01*
X286284Y157311D01*
X286484Y156550D01*
X286702Y155794D01*
X286939Y155044D01*
X287194Y154300D01*
X287467Y153562D01*
X287758Y152831D01*
X288067Y152108D01*
X288393Y151392D01*
X288737Y150685D01*
X289098Y149986D01*
X289476Y149296D01*
X289871Y148615D01*
X290282Y147945D01*
X290710Y147284D01*
X291154Y146635D01*
X291613Y145996D01*
X292088Y145369D01*
X292578Y144753D01*
X293083Y144150D01*
X293602Y143559D01*
X294136Y142981D01*
X294684Y142417D01*
X295245Y141866D01*
X295820Y141329D01*
X296408Y140806D01*
X297008Y140297D01*
X297621Y139804D01*
X298245Y139325D01*
X298881Y138862D01*
X299528Y138415D01*
X300186Y137983D01*
X300854Y137568D01*
X301532Y137169D01*
X302220Y136787D01*
X302917Y136422D01*
X303622Y136074D01*
X304336Y135743D01*
X305058Y135430D01*
X305787Y135135D01*
X306523Y134857D01*
X307266Y134598D01*
X308015Y134357D01*
X308769Y134134D01*
X309529Y133930D01*
X310293Y133745D01*
X311062Y133578D01*
X311835Y133430D01*
X312611Y133301D01*
X313390Y133191D01*
X314171Y133100D01*
X314955Y133028D01*
X315739Y132975D01*
X316525Y132942D01*
X317312Y132928D01*
X318099Y132933D01*
X318885Y132957D01*
X319670Y133000D01*
X320455Y133063D01*
X321237Y133145D01*
X322017Y133246D01*
X322795Y133366D01*
X323569Y133505D01*
X324340Y133662D01*
X325106Y133839D01*
X325868Y134034D01*
X326625Y134248D01*
X327377Y134481D01*
X328123Y134731D01*
X328862Y135000D01*
X329595Y135287D01*
X330320Y135592D01*
X331038Y135914D01*
X331747Y136254D01*
X332448Y136610D01*
X333140Y136984D01*
X333823Y137375D01*
X334496Y137783D01*
X335159Y138206D01*
X335811Y138646D01*
X336452Y139102D01*
X337082Y139573D01*
X337701Y140059D01*
X338307Y140561D01*
X338901Y141077D01*
X339482Y141607D01*
X340049Y142152D01*
X340604Y142710D01*
X341144Y143282D01*
X341671Y143866D01*
X342183Y144463D01*
X342680Y145073D01*
X343162Y145695D01*
X342970Y145839D01*
X342491Y145222D01*
X341998Y144617D01*
X341490Y144024D01*
X340967Y143444D01*
X340431Y142876D01*
X339881Y142322D01*
X339317Y141782D01*
X338740Y141255D01*
X338151Y140743D01*
X337549Y140246D01*
X336936Y139763D01*
X336310Y139295D01*
X335674Y138843D01*
X335026Y138407D01*
X334369Y137986D01*
X333701Y137582D01*
X333023Y137194D01*
X332336Y136823D01*
X331640Y136468D01*
X330936Y136131D01*
X330224Y135811D01*
X329504Y135509D01*
X328777Y135224D01*
X328043Y134958D01*
X327303Y134709D01*
X326557Y134478D01*
X325805Y134266D01*
X325049Y134072D01*
X324288Y133897D01*
X323523Y133740D01*
X322755Y133602D01*
X321983Y133483D01*
X321209Y133383D01*
X320432Y133302D01*
X319654Y133240D01*
X318874Y133197D01*
X318094Y133173D01*
X317313Y133168D01*
X316532Y133182D01*
X315752Y133215D01*
X314973Y133267D01*
X314195Y133338D01*
X313420Y133429D01*
X312647Y133538D01*
X311876Y133666D01*
X311110Y133813D01*
X310347Y133979D01*
X309588Y134163D01*
X308834Y134365D01*
X308085Y134587D01*
X307342Y134826D01*
X306605Y135083D01*
X305874Y135359D01*
X305150Y135652D01*
X304434Y135963D01*
X303725Y136291D01*
X303025Y136636D01*
X302334Y136999D01*
X301651Y137378D01*
X300978Y137774D01*
X300315Y138186D01*
X299662Y138614D01*
X299020Y139058D01*
X298388Y139518D01*
X297769Y139992D01*
X297161Y140482D01*
X296565Y140987D01*
X295982Y141506D01*
X295411Y142039D01*
X294854Y142586D01*
X294310Y143147D01*
X293780Y143720D01*
X293265Y144307D01*
X292764Y144905D01*
X292277Y145516D01*
X291806Y146139D01*
X291350Y146773D01*
X290910Y147417D01*
X290485Y148073D01*
X290077Y148738D01*
X289685Y149414D01*
X289310Y150099D01*
X288952Y150792D01*
X288610Y151494D01*
X288286Y152205D01*
X287980Y152923D01*
X287691Y153648D01*
X287420Y154381D01*
X287167Y155119D01*
X286932Y155864D01*
X286715Y156614D01*
X286517Y157369D01*
X286337Y158129D01*
X286176Y158893D01*
X286034Y159661D01*
X285910Y160432D01*
X285805Y161206D01*
X285720Y161982D01*
X285653Y162760D01*
X285605Y163539D01*
X285577Y164319D01*
X285567Y165100D01*
X285577Y165881D01*
X285605Y166661D01*
X285653Y167440D01*
X285720Y168218D01*
X285805Y168994D01*
X285910Y169768D01*
X286034Y170539D01*
X286176Y171307D01*
X286337Y172071D01*
X286517Y172831D01*
X286715Y173586D01*
X286932Y174336D01*
X287167Y175081D01*
X287420Y175819D01*
X287691Y176552D01*
X287980Y177277D01*
X288286Y177995D01*
X288610Y178706D01*
X288952Y179408D01*
X289310Y180101D01*
X289685Y180786D01*
X290077Y181462D01*
X290485Y182127D01*
X290910Y182783D01*
X291350Y183427D01*
X291806Y184061D01*
X292277Y184684D01*
X292764Y185295D01*
X293265Y185893D01*
X293780Y186480D01*
X294310Y187053D01*
X294854Y187614D01*
X295411Y188161D01*
X295982Y188694D01*
X296565Y189213D01*
X297161Y189718D01*
X297769Y190208D01*
X298388Y190682D01*
X299020Y191142D01*
X299662Y191586D01*
X300315Y192014D01*
X300978Y192426D01*
X301651Y192822D01*
X302334Y193201D01*
X303025Y193564D01*
X303725Y193909D01*
X304434Y194237D01*
X305150Y194548D01*
X305874Y194841D01*
X306605Y195117D01*
X307342Y195374D01*
X308085Y195613D01*
X308834Y195835D01*
X309588Y196037D01*
X310347Y196221D01*
X311110Y196387D01*
X311876Y196534D01*
X312647Y196662D01*
X313420Y196771D01*
X314195Y196862D01*
X314973Y196933D01*
X315752Y196985D01*
X316532Y197018D01*
X317313Y197032D01*
X318094Y197027D01*
X318874Y197003D01*
X319654Y196960D01*
X320432Y196898D01*
X321209Y196817D01*
X321983Y196717D01*
X322755Y196598D01*
X323523Y196460D01*
X324288Y196303D01*
X325049Y196128D01*
X325805Y195934D01*
X326557Y195722D01*
X327303Y195491D01*
X328043Y195242D01*
X328777Y194976D01*
X329504Y194691D01*
X330224Y194389D01*
X330936Y194069D01*
X331640Y193732D01*
X332336Y193377D01*
X333023Y193006D01*
X333701Y192618D01*
X334369Y192214D01*
X335026Y191793D01*
X335674Y191357D01*
X336310Y190905D01*
X336936Y190437D01*
X337549Y189954D01*
X338151Y189457D01*
X338740Y188945D01*
X339317Y188418D01*
X339881Y187878D01*
X340431Y187324D01*
X340967Y186756D01*
X341490Y186176D01*
X341998Y185583D01*
X342491Y184978D01*
X342970Y184361D01*
X342778Y184217D01*
X342303Y184830D01*
X341813Y185430D01*
X341309Y186018D01*
X340790Y186594D01*
X340258Y187157D01*
X339712Y187707D01*
X339152Y188243D01*
X338580Y188766D01*
X337995Y189274D01*
X337398Y189768D01*
X336789Y190247D01*
X336168Y190711D01*
X335537Y191160D01*
X334894Y191593D01*
X334241Y192011D01*
X333578Y192412D01*
X332906Y192797D01*
X332224Y193165D01*
X331533Y193517D01*
X330834Y193851D01*
X330127Y194169D01*
X329413Y194469D01*
X328691Y194751D01*
X327963Y195016D01*
X327228Y195263D01*
X326488Y195492D01*
X325742Y195702D01*
X324992Y195895D01*
X324236Y196069D01*
X323477Y196224D01*
X322714Y196361D01*
X321949Y196479D01*
X321180Y196579D01*
X320409Y196659D01*
X319637Y196721D01*
X318863Y196764D01*
X318089Y196788D01*
X317314Y196792D01*
X316539Y196778D01*
X315765Y196745D01*
X314991Y196694D01*
X314220Y196623D01*
X313450Y196533D01*
X312683Y196425D01*
X311918Y196298D01*
X311157Y196152D01*
X310400Y195987D01*
X309647Y195805D01*
X308898Y195603D01*
X308155Y195384D01*
X307418Y195146D01*
X306686Y194891D01*
X305961Y194618D01*
X305243Y194327D01*
X304532Y194018D01*
X303829Y193693D01*
X303134Y193350D01*
X302447Y192990D01*
X301770Y192614D01*
X301102Y192221D01*
X300444Y191812D01*
X299796Y191387D01*
X299158Y190946D01*
X298532Y190490D01*
X297917Y190019D01*
X297313Y189532D01*
X296722Y189032D01*
X296143Y188516D01*
X295577Y187987D01*
X295024Y187444D01*
X294484Y186888D01*
X293958Y186319D01*
X293447Y185737D01*
X292949Y185143D01*
X292467Y184536D01*
X291999Y183919D01*
X291546Y183290D01*
X291109Y182650D01*
X290688Y181999D01*
X290283Y181338D01*
X289894Y180668D01*
X289522Y179989D01*
X289166Y179300D01*
X288827Y178603D01*
X288506Y177898D01*
X288202Y177185D01*
X287915Y176465D01*
X287646Y175739D01*
X287395Y175006D01*
X287162Y174267D01*
X286947Y173522D01*
X286750Y172773D01*
X286571Y172018D01*
X286411Y171260D01*
X286270Y170498D01*
X286147Y169733D01*
X286044Y168965D01*
X285958Y168195D01*
X285892Y167423D01*
X285845Y166649D01*
X285816Y165875D01*
X285807Y165100D01*
X285816Y164325D01*
X285845Y163551D01*
X285892Y162777D01*
X285958Y162005D01*
X286044Y161235D01*
X286147Y160467D01*
X286270Y159702D01*
X286411Y158940D01*
X286571Y158182D01*
X286750Y157427D01*
X286947Y156678D01*
X287162Y155933D01*
X287395Y155194D01*
X287646Y154461D01*
X287915Y153735D01*
X288202Y153015D01*
X288506Y152302D01*
X288827Y151597D01*
X289166Y150900D01*
X289522Y150211D01*
X289894Y149532D01*
X290283Y148862D01*
X290688Y148201D01*
X291109Y147550D01*
X291546Y146910D01*
X291999Y146281D01*
X292467Y145664D01*
X292949Y145057D01*
X293447Y144463D01*
X293958Y143881D01*
X294484Y143312D01*
X295024Y142756D01*
X295577Y142213D01*
X296143Y141684D01*
X296722Y141168D01*
X297313Y140668D01*
X297917Y140181D01*
X298532Y139710D01*
X299158Y139254D01*
X299796Y138813D01*
X300444Y138388D01*
X301102Y137979D01*
X301770Y137586D01*
X302447Y137210D01*
X303134Y136850D01*
X303829Y136507D01*
X304532Y136182D01*
X305243Y135873D01*
X305961Y135582D01*
X306686Y135309D01*
X307418Y135054D01*
X308155Y134816D01*
X308898Y134597D01*
X309647Y134395D01*
X310400Y134213D01*
X311157Y134048D01*
X311918Y133902D01*
X312683Y133775D01*
X313450Y133667D01*
X314220Y133577D01*
X314991Y133506D01*
X315765Y133455D01*
X316539Y133422D01*
X317314Y133408D01*
X318089Y133412D01*
X318863Y133436D01*
X319637Y133479D01*
X320409Y133541D01*
X321180Y133621D01*
X321949Y133721D01*
X322714Y133839D01*
X323477Y133976D01*
X324236Y134131D01*
X324992Y134305D01*
X325742Y134498D01*
X326488Y134708D01*
X327228Y134937D01*
X327963Y135184D01*
X328691Y135449D01*
X329413Y135731D01*
X330127Y136031D01*
X330834Y136349D01*
X331533Y136683D01*
X332224Y137035D01*
X332906Y137403D01*
X333578Y137788D01*
X334241Y138189D01*
X334894Y138607D01*
X335537Y139040D01*
X336168Y139489D01*
X336789Y139953D01*
X337398Y140432D01*
X337995Y140926D01*
X338580Y141434D01*
X339152Y141957D01*
X339712Y142493D01*
X340258Y143043D01*
X340790Y143606D01*
X341309Y144182D01*
X341813Y144770D01*
X342303Y145370D01*
X342778Y145983D01*
X342586Y146127D01*
X342115Y145519D01*
X341629Y144923D01*
X341128Y144339D01*
X340613Y143768D01*
X340085Y143209D01*
X339543Y142663D01*
X338988Y142131D01*
X338420Y141613D01*
X337839Y141108D01*
X337247Y140618D01*
X336642Y140143D01*
X336026Y139682D01*
X335399Y139237D01*
X334762Y138807D01*
X334114Y138393D01*
X333456Y137995D01*
X332788Y137613D01*
X332112Y137247D01*
X331426Y136898D01*
X330733Y136566D01*
X330031Y136251D01*
X329322Y135953D01*
X328606Y135673D01*
X327883Y135410D01*
X327154Y135165D01*
X326419Y134938D01*
X325679Y134729D01*
X324934Y134538D01*
X324185Y134366D01*
X323431Y134211D01*
X322674Y134076D01*
X321914Y133958D01*
X321152Y133860D01*
X320387Y133780D01*
X319620Y133719D01*
X318852Y133676D01*
X318083Y133652D01*
X317314Y133648D01*
X316546Y133661D01*
X315777Y133694D01*
X315010Y133746D01*
X314244Y133816D01*
X313480Y133905D01*
X312719Y134013D01*
X311960Y134139D01*
X311205Y134283D01*
X310453Y134447D01*
X309706Y134628D01*
X308963Y134828D01*
X308226Y135045D01*
X307493Y135281D01*
X306767Y135535D01*
X306048Y135806D01*
X305335Y136095D01*
X304629Y136401D01*
X303932Y136724D01*
X303242Y137064D01*
X302561Y137421D01*
X301889Y137795D01*
X301226Y138185D01*
X300572Y138591D01*
X299929Y139012D01*
X299297Y139450D01*
X298675Y139903D01*
X298065Y140370D01*
X297466Y140853D01*
X296879Y141350D01*
X296305Y141861D01*
X295743Y142386D01*
X295194Y142925D01*
X294658Y143477D01*
X294137Y144042D01*
X293629Y144619D01*
X293135Y145209D01*
X292656Y145811D01*
X292192Y146424D01*
X291743Y147048D01*
X291309Y147684D01*
X290891Y148329D01*
X290489Y148985D01*
X290103Y149650D01*
X289734Y150324D01*
X289381Y151008D01*
X289045Y151699D01*
X288725Y152399D01*
X288423Y153106D01*
X288139Y153821D01*
X287872Y154542D01*
X287623Y155270D01*
X287391Y156003D01*
X287178Y156742D01*
X286983Y157486D01*
X286806Y158234D01*
X286647Y158987D01*
X286507Y159743D01*
X286385Y160502D01*
X286282Y161264D01*
X286197Y162029D01*
X286132Y162795D01*
X286085Y163562D01*
X286056Y164331D01*
X286047Y165100D01*
X286056Y165869D01*
X286085Y166638D01*
X286132Y167405D01*
X286197Y168171D01*
X286282Y168936D01*
X286385Y169698D01*
X286507Y170457D01*
X286647Y171213D01*
X286806Y171966D01*
X286983Y172714D01*
X287178Y173458D01*
X287391Y174197D01*
X287623Y174930D01*
X287872Y175658D01*
X288139Y176379D01*
X288423Y177094D01*
X288725Y177801D01*
X289045Y178501D01*
X289381Y179192D01*
X289734Y179876D01*
X290103Y180550D01*
X290489Y181215D01*
X290891Y181871D01*
X291309Y182516D01*
X291743Y183152D01*
X292192Y183776D01*
X292656Y184389D01*
X293135Y184991D01*
X293629Y185581D01*
X294137Y186158D01*
X294658Y186723D01*
X295194Y187275D01*
X295743Y187814D01*
X296305Y188339D01*
X296879Y188850D01*
X297466Y189347D01*
X298065Y189830D01*
X298675Y190297D01*
X299297Y190750D01*
X299929Y191188D01*
X300572Y191609D01*
X301226Y192015D01*
X301889Y192405D01*
X302561Y192779D01*
X303242Y193136D01*
X303932Y193476D01*
X304629Y193799D01*
X305335Y194105D01*
X306048Y194394D01*
X306767Y194665D01*
X307493Y194919D01*
X308226Y195155D01*
X308963Y195372D01*
X309706Y195572D01*
X310453Y195753D01*
X311205Y195917D01*
X311960Y196061D01*
X312719Y196187D01*
X313480Y196295D01*
X314244Y196384D01*
X315010Y196454D01*
X315777Y196506D01*
X316546Y196539D01*
X317314Y196552D01*
X318083Y196548D01*
X318852Y196524D01*
X319620Y196481D01*
X320387Y196420D01*
X321152Y196340D01*
X321914Y196242D01*
X322674Y196124D01*
X323431Y195989D01*
X324185Y195834D01*
X324934Y195662D01*
X325679Y195471D01*
X326419Y195262D01*
X327154Y195035D01*
X327883Y194790D01*
X328606Y194527D01*
X329322Y194247D01*
X330031Y193949D01*
X330733Y193634D01*
X331426Y193302D01*
X332112Y192953D01*
X332788Y192587D01*
X333456Y192205D01*
X334114Y191807D01*
X334762Y191393D01*
X335399Y190963D01*
X336026Y190518D01*
X336642Y190057D01*
X337247Y189582D01*
X337839Y189092D01*
X338420Y188587D01*
X338988Y188069D01*
X339543Y187537D01*
X340085Y186991D01*
X340613Y186432D01*
X341128Y185861D01*
X341629Y185277D01*
X342115Y184681D01*
X342586Y184073D01*
X342394Y183929D01*
X341926Y184532D01*
X341444Y185124D01*
X340947Y185703D01*
X340436Y186270D01*
X339912Y186825D01*
X339374Y187366D01*
X338823Y187894D01*
X338260Y188409D01*
X337683Y188909D01*
X337095Y189396D01*
X336495Y189867D01*
X335884Y190324D01*
X335262Y190766D01*
X334629Y191193D01*
X333986Y191604D01*
X333333Y191999D01*
X332671Y192378D01*
X331999Y192741D01*
X331319Y193087D01*
X330631Y193417D01*
X329935Y193729D01*
X329231Y194025D01*
X328520Y194303D01*
X327803Y194564D01*
X327080Y194807D01*
X326350Y195032D01*
X325616Y195239D01*
X324877Y195429D01*
X324133Y195600D01*
X323385Y195753D01*
X322634Y195888D01*
X321880Y196004D01*
X321123Y196102D01*
X320364Y196181D01*
X319603Y196242D01*
X318841Y196284D01*
X318078Y196308D01*
X317315Y196312D01*
X316552Y196299D01*
X315790Y196266D01*
X315028Y196215D01*
X314268Y196145D01*
X313510Y196057D01*
X312755Y195950D01*
X312002Y195825D01*
X311252Y195681D01*
X310506Y195519D01*
X309765Y195339D01*
X309028Y195141D01*
X308296Y194925D01*
X307569Y194691D01*
X306849Y194439D01*
X306135Y194170D01*
X305427Y193884D01*
X304727Y193580D01*
X304035Y193259D01*
X303350Y192922D01*
X302674Y192567D01*
X302007Y192197D01*
X301349Y191810D01*
X300701Y191407D01*
X300063Y190988D01*
X299435Y190554D01*
X298818Y190105D01*
X298213Y189641D01*
X297618Y189162D01*
X297036Y188669D01*
X296466Y188161D01*
X295908Y187640D01*
X295364Y187106D01*
X294832Y186558D01*
X294315Y185997D01*
X293811Y185424D01*
X293321Y184839D01*
X292845Y184242D01*
X292385Y183633D01*
X291939Y183014D01*
X291509Y182383D01*
X291094Y181743D01*
X290695Y181092D01*
X290312Y180432D01*
X289945Y179763D01*
X289595Y179085D01*
X289262Y178398D01*
X288945Y177704D01*
X288645Y177002D01*
X288363Y176293D01*
X288098Y175577D01*
X287851Y174855D01*
X287621Y174127D01*
X287409Y173394D01*
X287215Y172656D01*
X287040Y171913D01*
X286882Y171167D01*
X286743Y170416D01*
X286622Y169663D01*
X286520Y168906D01*
X286436Y168148D01*
X286371Y167388D01*
X286324Y166626D01*
X286296Y165863D01*
X286287Y165100D01*
X286296Y164337D01*
X286324Y163574D01*
X286371Y162812D01*
X286436Y162052D01*
X286520Y161294D01*
X286622Y160537D01*
X286743Y159784D01*
X286882Y159033D01*
X287040Y158287D01*
X287215Y157544D01*
X287409Y156806D01*
X287621Y156073D01*
X287851Y155345D01*
X288098Y154623D01*
X288363Y153907D01*
X288645Y153198D01*
X288945Y152496D01*
X289262Y151802D01*
X289595Y151115D01*
X289945Y150437D01*
X290312Y149768D01*
X290695Y149108D01*
X291094Y148457D01*
X291509Y147817D01*
X291939Y147186D01*
X292385Y146567D01*
X292845Y145958D01*
X293321Y145361D01*
X293811Y144776D01*
X294315Y144203D01*
X294832Y143642D01*
X295364Y143094D01*
X295908Y142560D01*
X296466Y142039D01*
X297036Y141531D01*
X297618Y141038D01*
X298213Y140559D01*
X298818Y140095D01*
X299435Y139646D01*
X300063Y139212D01*
X300701Y138793D01*
X301349Y138390D01*
X302007Y138003D01*
X302674Y137633D01*
X303350Y137278D01*
X304035Y136941D01*
X304727Y136620D01*
X305427Y136316D01*
X306135Y136030D01*
X306849Y135761D01*
X307569Y135509D01*
X308296Y135275D01*
X309028Y135059D01*
X309765Y134861D01*
X310506Y134681D01*
X311252Y134519D01*
X312002Y134375D01*
X312755Y134250D01*
X313510Y134143D01*
X314268Y134055D01*
X315028Y133985D01*
X315790Y133934D01*
X316552Y133901D01*
X317315Y133888D01*
X318078Y133892D01*
X318841Y133916D01*
X319603Y133958D01*
X320364Y134019D01*
X321123Y134098D01*
X321880Y134196D01*
X322634Y134312D01*
X323385Y134447D01*
X324133Y134600D01*
X324877Y134771D01*
X325616Y134961D01*
X326350Y135168D01*
X327080Y135393D01*
X327803Y135636D01*
X328520Y135897D01*
X329231Y136175D01*
X329935Y136471D01*
X330631Y136783D01*
X331319Y137113D01*
X331999Y137459D01*
X332671Y137822D01*
X333333Y138201D01*
X333986Y138596D01*
X334629Y139007D01*
X335262Y139434D01*
X335884Y139876D01*
X336495Y140333D01*
X337095Y140804D01*
X337683Y141291D01*
X338260Y141791D01*
X338823Y142306D01*
X339374Y142834D01*
X339912Y143375D01*
X340436Y143930D01*
X340947Y144497D01*
X341444Y145076D01*
X341926Y145668D01*
X342394Y146271D01*
X342202Y146415D01*
X341738Y145816D01*
X341259Y145230D01*
X340766Y144655D01*
X340259Y144092D01*
X339739Y143542D01*
X339205Y143005D01*
X338659Y142480D01*
X338099Y141970D01*
X337528Y141473D01*
X336944Y140991D01*
X336349Y140523D01*
X335742Y140069D01*
X335125Y139631D01*
X334497Y139207D01*
X333859Y138799D01*
X333211Y138407D01*
X332553Y138031D01*
X331887Y137671D01*
X331212Y137328D01*
X330529Y137001D01*
X329838Y136691D01*
X329140Y136397D01*
X328435Y136121D01*
X327723Y135863D01*
X327005Y135622D01*
X326282Y135398D01*
X325553Y135192D01*
X324819Y135004D01*
X324081Y134834D01*
X323339Y134682D01*
X322594Y134549D01*
X321846Y134433D01*
X321095Y134336D01*
X320341Y134258D01*
X319586Y134197D01*
X318830Y134156D01*
X318073Y134132D01*
X317316Y134128D01*
X316559Y134141D01*
X315802Y134174D01*
X315047Y134224D01*
X314293Y134294D01*
X313540Y134381D01*
X312790Y134487D01*
X312043Y134611D01*
X311300Y134754D01*
X310560Y134915D01*
X309824Y135093D01*
X309092Y135290D01*
X308366Y135504D01*
X307645Y135737D01*
X306930Y135986D01*
X306222Y136253D01*
X305520Y136538D01*
X304825Y136839D01*
X304138Y137158D01*
X303459Y137493D01*
X302788Y137844D01*
X302126Y138212D01*
X301473Y138596D01*
X300830Y138996D01*
X300197Y139411D01*
X299574Y139842D01*
X298962Y140287D01*
X298361Y140748D01*
X297771Y141223D01*
X297193Y141713D01*
X296627Y142216D01*
X296074Y142733D01*
X295534Y143264D01*
X295007Y143807D01*
X294493Y144364D01*
X293993Y144932D01*
X293507Y145513D01*
X293035Y146106D01*
X292578Y146709D01*
X292136Y147324D01*
X291709Y147950D01*
X291297Y148585D01*
X290901Y149231D01*
X290521Y149886D01*
X290157Y150550D01*
X289810Y151223D01*
X289479Y151904D01*
X289164Y152593D01*
X288867Y153290D01*
X288587Y153993D01*
X288324Y154703D01*
X288079Y155420D01*
X287851Y156142D01*
X287641Y156870D01*
X287448Y157602D01*
X287274Y158339D01*
X287118Y159080D01*
X286980Y159825D01*
X286860Y160572D01*
X286758Y161323D01*
X286675Y162076D01*
X286610Y162830D01*
X286564Y163586D01*
X286536Y164343D01*
X286527Y165100D01*
X286536Y165857D01*
X286564Y166614D01*
X286610Y167370D01*
X286675Y168124D01*
X286758Y168877D01*
X286860Y169628D01*
X286980Y170375D01*
X287118Y171120D01*
X287274Y171861D01*
X287448Y172598D01*
X287641Y173330D01*
X287851Y174058D01*
X288079Y174780D01*
X288324Y175497D01*
X288587Y176207D01*
X288867Y176910D01*
X289164Y177607D01*
X289479Y178296D01*
X289810Y178977D01*
X290157Y179650D01*
X290521Y180314D01*
X290901Y180969D01*
X291297Y181615D01*
X291709Y182250D01*
X292136Y182876D01*
X292578Y183491D01*
X293035Y184094D01*
X293507Y184687D01*
X293993Y185268D01*
X294493Y185836D01*
X295007Y186393D01*
X295534Y186936D01*
X296074Y187467D01*
X296627Y187984D01*
X297193Y188487D01*
X297771Y188977D01*
X298361Y189452D01*
X298962Y189913D01*
X299574Y190358D01*
X300197Y190789D01*
X300830Y191204D01*
X301473Y191604D01*
X302126Y191988D01*
X302788Y192356D01*
X303459Y192707D01*
X304138Y193042D01*
X304825Y193361D01*
X305520Y193662D01*
X306222Y193947D01*
X306930Y194214D01*
X307645Y194463D01*
X308366Y194696D01*
X309092Y194910D01*
X309824Y195107D01*
X310560Y195285D01*
X311300Y195446D01*
X312043Y195589D01*
X312790Y195713D01*
X313540Y195819D01*
X314293Y195906D01*
X315047Y195976D01*
X315802Y196026D01*
X316559Y196059D01*
X317316Y196072D01*
X318073Y196068D01*
X318830Y196044D01*
X319586Y196003D01*
X320341Y195942D01*
X321095Y195864D01*
X321846Y195767D01*
X322594Y195651D01*
X323339Y195518D01*
X324081Y195366D01*
X324819Y195196D01*
X325553Y195008D01*
X326282Y194802D01*
X327005Y194578D01*
X327723Y194337D01*
X328435Y194079D01*
X329140Y193803D01*
X329838Y193509D01*
X330529Y193199D01*
X331212Y192872D01*
X331887Y192529D01*
X332553Y192169D01*
X333211Y191793D01*
X333859Y191401D01*
X334497Y190993D01*
X335125Y190569D01*
X335742Y190131D01*
X336349Y189677D01*
X336944Y189209D01*
X337528Y188727D01*
X338099Y188230D01*
X338659Y187720D01*
X339205Y187195D01*
X339739Y186658D01*
X340259Y186108D01*
X340766Y185545D01*
X341259Y184970D01*
X341738Y184384D01*
X342202Y183785D01*
X342010Y183641D01*
X341549Y184235D01*
X341074Y184817D01*
X340585Y185388D01*
X340082Y185946D01*
X339566Y186492D01*
X339036Y187025D01*
X338494Y187545D01*
X337939Y188051D01*
X337372Y188544D01*
X336793Y189023D01*
X336202Y189488D01*
X335600Y189938D01*
X334987Y190373D01*
X334364Y190793D01*
X333731Y191197D01*
X333088Y191586D01*
X332436Y191959D01*
X331775Y192317D01*
X331105Y192657D01*
X330428Y192982D01*
X329742Y193290D01*
X329049Y193580D01*
X328349Y193854D01*
X327643Y194111D01*
X326931Y194350D01*
X326213Y194572D01*
X325490Y194776D01*
X324762Y194963D01*
X324030Y195131D01*
X323293Y195282D01*
X322554Y195415D01*
X321811Y195529D01*
X321066Y195625D01*
X320319Y195703D01*
X319570Y195763D01*
X318819Y195805D01*
X318068Y195828D01*
X317317Y195832D01*
X316566Y195819D01*
X315815Y195787D01*
X315065Y195736D01*
X314317Y195668D01*
X313570Y195581D01*
X312826Y195476D01*
X312085Y195352D01*
X311347Y195211D01*
X310613Y195051D01*
X309883Y194874D01*
X309157Y194679D01*
X308436Y194466D01*
X307721Y194236D01*
X307012Y193988D01*
X306309Y193723D01*
X305612Y193441D01*
X304923Y193142D01*
X304241Y192826D01*
X303567Y192493D01*
X302902Y192145D01*
X302245Y191780D01*
X301597Y191399D01*
X300959Y191002D01*
X300331Y190590D01*
X299713Y190162D01*
X299105Y189720D01*
X298509Y189263D01*
X297924Y188791D01*
X297350Y188306D01*
X296789Y187806D01*
X296240Y187293D01*
X295704Y186767D01*
X295181Y186227D01*
X294671Y185675D01*
X294175Y185111D01*
X293692Y184535D01*
X293224Y183947D01*
X292771Y183348D01*
X292332Y182738D01*
X291908Y182117D01*
X291500Y181486D01*
X291107Y180846D01*
X290730Y180196D01*
X290369Y179537D01*
X290024Y178869D01*
X289696Y178193D01*
X289384Y177510D01*
X289089Y176819D01*
X288811Y176121D01*
X288550Y175416D01*
X288307Y174705D01*
X288080Y173988D01*
X287872Y173267D01*
X287681Y172540D01*
X287508Y171809D01*
X287353Y171073D01*
X287216Y170334D01*
X287097Y169592D01*
X286996Y168848D01*
X286914Y168101D01*
X286850Y167352D01*
X286804Y166602D01*
X286776Y165851D01*
X286767Y165100D01*
X286776Y164349D01*
X286804Y163598D01*
X286850Y162848D01*
X286914Y162099D01*
X286996Y161352D01*
X287097Y160608D01*
X287216Y159866D01*
X287353Y159127D01*
X287508Y158391D01*
X287681Y157660D01*
X287872Y156933D01*
X288080Y156212D01*
X288307Y155495D01*
X288550Y154784D01*
X288811Y154079D01*
X289089Y153381D01*
X289384Y152690D01*
X289696Y152007D01*
X290024Y151331D01*
X290369Y150663D01*
X290730Y150004D01*
X291107Y149354D01*
X291500Y148714D01*
X291908Y148083D01*
X292332Y147462D01*
X292771Y146852D01*
X293224Y146253D01*
X293692Y145665D01*
X294175Y145089D01*
X294671Y144525D01*
X295181Y143973D01*
X295704Y143433D01*
X296240Y142907D01*
X296789Y142394D01*
X297350Y141894D01*
X297924Y141409D01*
X298509Y140937D01*
X299105Y140480D01*
X299713Y140038D01*
X300331Y139610D01*
X300959Y139198D01*
X301597Y138801D01*
X302245Y138420D01*
X302902Y138055D01*
X303567Y137707D01*
X304241Y137374D01*
X304923Y137058D01*
X305612Y136759D01*
X306309Y136477D01*
X307012Y136212D01*
X307721Y135964D01*
X308436Y135734D01*
X309157Y135521D01*
X309883Y135326D01*
X310613Y135149D01*
X311347Y134989D01*
X312085Y134848D01*
X312826Y134724D01*
X313570Y134619D01*
X314317Y134532D01*
X315065Y134464D01*
X315815Y134413D01*
X316566Y134381D01*
X317317Y134368D01*
X318068Y134372D01*
X318819Y134395D01*
X319570Y134437D01*
X320319Y134497D01*
X321066Y134575D01*
X321811Y134671D01*
X322554Y134785D01*
X323293Y134918D01*
X324030Y135069D01*
X324762Y135237D01*
X325490Y135424D01*
X326213Y135628D01*
X326931Y135850D01*
X327643Y136089D01*
X328349Y136346D01*
X329049Y136620D01*
X329742Y136910D01*
X330428Y137218D01*
X331105Y137543D01*
X331775Y137883D01*
X332436Y138241D01*
X333088Y138614D01*
X333731Y139003D01*
X334364Y139407D01*
X334987Y139827D01*
X335600Y140262D01*
X336202Y140712D01*
X336793Y141177D01*
X337372Y141656D01*
X337939Y142149D01*
X338494Y142655D01*
X339036Y143175D01*
X339566Y143708D01*
X340082Y144254D01*
X340585Y144812D01*
X341074Y145383D01*
X341549Y145965D01*
X342010Y146559D01*
D12*
X292100Y165100D02*
X292108Y165723D01*
X292131Y166346D01*
X292169Y166969D01*
X292222Y167590D01*
X292291Y168209D01*
X292375Y168827D01*
X292474Y169442D01*
X292588Y170055D01*
X292717Y170665D01*
X292861Y171272D01*
X293020Y171875D01*
X293194Y172473D01*
X293382Y173068D01*
X293585Y173657D01*
X293802Y174241D01*
X294033Y174820D01*
X294279Y175393D01*
X294539Y175960D01*
X294812Y176520D01*
X295099Y177073D01*
X295400Y177620D01*
X295714Y178158D01*
X296041Y178689D01*
X296381Y179211D01*
X296733Y179726D01*
X297099Y180231D01*
X297476Y180727D01*
X297866Y181214D01*
X298267Y181691D01*
X298680Y182158D01*
X299104Y182614D01*
X299539Y183061D01*
X299986Y183496D01*
X300442Y183920D01*
X300909Y184333D01*
X301386Y184734D01*
X301873Y185124D01*
X302369Y185501D01*
X302874Y185867D01*
X303389Y186219D01*
X303911Y186559D01*
X304442Y186886D01*
X304980Y187200D01*
X305527Y187501D01*
X306080Y187788D01*
X306640Y188061D01*
X307207Y188321D01*
X307780Y188567D01*
X308359Y188798D01*
X308943Y189015D01*
X309532Y189218D01*
X310127Y189406D01*
X310725Y189580D01*
X311328Y189739D01*
X311935Y189883D01*
X312545Y190012D01*
X313158Y190126D01*
X313773Y190225D01*
X314391Y190309D01*
X315010Y190378D01*
X315631Y190431D01*
X316254Y190469D01*
X316877Y190492D01*
X317500Y190500D01*
X318123Y190492D01*
X318746Y190469D01*
X319369Y190431D01*
X319990Y190378D01*
X320609Y190309D01*
X321227Y190225D01*
X321842Y190126D01*
X322455Y190012D01*
X323065Y189883D01*
X323672Y189739D01*
X324275Y189580D01*
X324873Y189406D01*
X325468Y189218D01*
X326057Y189015D01*
X326641Y188798D01*
X327220Y188567D01*
X327793Y188321D01*
X328360Y188061D01*
X328920Y187788D01*
X329473Y187501D01*
X330020Y187200D01*
X330558Y186886D01*
X331089Y186559D01*
X331611Y186219D01*
X332126Y185867D01*
X332631Y185501D01*
X333127Y185124D01*
X333614Y184734D01*
X334091Y184333D01*
X334558Y183920D01*
X335014Y183496D01*
X335461Y183061D01*
X335896Y182614D01*
X336320Y182158D01*
X336733Y181691D01*
X337134Y181214D01*
X337524Y180727D01*
X337901Y180231D01*
X338267Y179726D01*
X338619Y179211D01*
X338959Y178689D01*
X339286Y178158D01*
X339600Y177620D01*
X339901Y177073D01*
X340188Y176520D01*
X340461Y175960D01*
X340721Y175393D01*
X340967Y174820D01*
X341198Y174241D01*
X341415Y173657D01*
X341618Y173068D01*
X341806Y172473D01*
X341980Y171875D01*
X342139Y171272D01*
X342283Y170665D01*
X342412Y170055D01*
X342526Y169442D01*
X342625Y168827D01*
X342709Y168209D01*
X342778Y167590D01*
X342831Y166969D01*
X342869Y166346D01*
X342892Y165723D01*
X342900Y165100D01*
X342892Y164477D01*
X342869Y163854D01*
X342831Y163231D01*
X342778Y162610D01*
X342709Y161991D01*
X342625Y161373D01*
X342526Y160758D01*
X342412Y160145D01*
X342283Y159535D01*
X342139Y158928D01*
X341980Y158325D01*
X341806Y157727D01*
X341618Y157132D01*
X341415Y156543D01*
X341198Y155959D01*
X340967Y155380D01*
X340721Y154807D01*
X340461Y154240D01*
X340188Y153680D01*
X339901Y153127D01*
X339600Y152580D01*
X339286Y152042D01*
X338959Y151511D01*
X338619Y150989D01*
X338267Y150474D01*
X337901Y149969D01*
X337524Y149473D01*
X337134Y148986D01*
X336733Y148509D01*
X336320Y148042D01*
X335896Y147586D01*
X335461Y147139D01*
X335014Y146704D01*
X334558Y146280D01*
X334091Y145867D01*
X333614Y145466D01*
X333127Y145076D01*
X332631Y144699D01*
X332126Y144333D01*
X331611Y143981D01*
X331089Y143641D01*
X330558Y143314D01*
X330020Y143000D01*
X329473Y142699D01*
X328920Y142412D01*
X328360Y142139D01*
X327793Y141879D01*
X327220Y141633D01*
X326641Y141402D01*
X326057Y141185D01*
X325468Y140982D01*
X324873Y140794D01*
X324275Y140620D01*
X323672Y140461D01*
X323065Y140317D01*
X322455Y140188D01*
X321842Y140074D01*
X321227Y139975D01*
X320609Y139891D01*
X319990Y139822D01*
X319369Y139769D01*
X318746Y139731D01*
X318123Y139708D01*
X317500Y139700D01*
X316877Y139708D01*
X316254Y139731D01*
X315631Y139769D01*
X315010Y139822D01*
X314391Y139891D01*
X313773Y139975D01*
X313158Y140074D01*
X312545Y140188D01*
X311935Y140317D01*
X311328Y140461D01*
X310725Y140620D01*
X310127Y140794D01*
X309532Y140982D01*
X308943Y141185D01*
X308359Y141402D01*
X307780Y141633D01*
X307207Y141879D01*
X306640Y142139D01*
X306080Y142412D01*
X305527Y142699D01*
X304980Y143000D01*
X304442Y143314D01*
X303911Y143641D01*
X303389Y143981D01*
X302874Y144333D01*
X302369Y144699D01*
X301873Y145076D01*
X301386Y145466D01*
X300909Y145867D01*
X300442Y146280D01*
X299986Y146704D01*
X299539Y147139D01*
X299104Y147586D01*
X298680Y148042D01*
X298267Y148509D01*
X297866Y148986D01*
X297476Y149473D01*
X297099Y149969D01*
X296733Y150474D01*
X296381Y150989D01*
X296041Y151511D01*
X295714Y152042D01*
X295400Y152580D01*
X295099Y153127D01*
X294812Y153680D01*
X294539Y154240D01*
X294279Y154807D01*
X294033Y155380D01*
X293802Y155959D01*
X293585Y156543D01*
X293382Y157132D01*
X293194Y157727D01*
X293020Y158325D01*
X292861Y158928D01*
X292717Y159535D01*
X292588Y160145D01*
X292474Y160758D01*
X292375Y161373D01*
X292291Y161991D01*
X292222Y162610D01*
X292169Y163231D01*
X292131Y163854D01*
X292108Y164477D01*
X292100Y165100D01*
D13*
X313325Y199644D02*
X313325Y204470D01*
X314665Y204470D01*
X314735Y204468D01*
X314805Y204463D01*
X314875Y204453D01*
X314944Y204441D01*
X315012Y204424D01*
X315079Y204404D01*
X315146Y204381D01*
X315210Y204354D01*
X315274Y204324D01*
X315336Y204290D01*
X315395Y204254D01*
X315453Y204214D01*
X315509Y204171D01*
X315562Y204126D01*
X315613Y204077D01*
X315662Y204026D01*
X315707Y203973D01*
X315750Y203917D01*
X315790Y203859D01*
X315826Y203800D01*
X315860Y203738D01*
X315890Y203674D01*
X315917Y203610D01*
X315940Y203543D01*
X315960Y203476D01*
X315977Y203408D01*
X315989Y203339D01*
X315999Y203269D01*
X316004Y203199D01*
X316006Y203129D01*
X316006Y200985D01*
X316004Y200915D01*
X315999Y200845D01*
X315989Y200775D01*
X315977Y200706D01*
X315960Y200638D01*
X315940Y200571D01*
X315917Y200504D01*
X315890Y200440D01*
X315860Y200376D01*
X315826Y200314D01*
X315790Y200255D01*
X315750Y200197D01*
X315707Y200141D01*
X315662Y200088D01*
X315613Y200037D01*
X315562Y199988D01*
X315509Y199943D01*
X315453Y199900D01*
X315395Y199860D01*
X315335Y199824D01*
X315274Y199790D01*
X315210Y199760D01*
X315146Y199733D01*
X315079Y199710D01*
X315012Y199690D01*
X314944Y199673D01*
X314875Y199661D01*
X314805Y199651D01*
X314735Y199646D01*
X314665Y199644D01*
X313325Y199644D01*
X318994Y203398D02*
X320335Y204470D01*
X320335Y199644D01*
X321675Y199644D02*
X318994Y199644D01*
D12*
X234950Y279400D02*
X222250Y279400D01*
X234950Y279400D02*
X241300Y273050D01*
X241300Y260350D01*
X234950Y254000D01*
X215900Y260350D02*
X215900Y273050D01*
X222250Y279400D01*
X215900Y260350D02*
X222250Y254000D01*
X234950Y254000D01*
X241300Y273050D02*
X247650Y279400D01*
X260350Y279400D01*
X266700Y273050D01*
X266700Y260350D01*
X260350Y254000D01*
X247650Y254000D01*
X241300Y260350D01*
D10*
X161290Y147320D02*
X118110Y147320D01*
X118110Y208280D02*
X161290Y208280D01*
X109220Y187960D02*
X109220Y167820D01*
X170180Y167520D02*
X170180Y187960D01*
X121920Y177800D02*
X121925Y178236D01*
X121941Y178672D01*
X121968Y179108D01*
X122006Y179543D01*
X122054Y179976D01*
X122112Y180409D01*
X122182Y180840D01*
X122262Y181269D01*
X122352Y181696D01*
X122453Y182120D01*
X122564Y182542D01*
X122686Y182961D01*
X122817Y183377D01*
X122959Y183790D01*
X123111Y184199D01*
X123273Y184604D01*
X123445Y185005D01*
X123627Y185402D01*
X123818Y185794D01*
X124019Y186181D01*
X124230Y186564D01*
X124450Y186941D01*
X124679Y187312D01*
X124916Y187678D01*
X125163Y188038D01*
X125419Y188392D01*
X125683Y188739D01*
X125956Y189080D01*
X126237Y189413D01*
X126526Y189740D01*
X126823Y190060D01*
X127128Y190372D01*
X127440Y190677D01*
X127760Y190974D01*
X128087Y191263D01*
X128420Y191544D01*
X128761Y191817D01*
X129108Y192081D01*
X129462Y192337D01*
X129822Y192584D01*
X130188Y192821D01*
X130559Y193050D01*
X130936Y193270D01*
X131319Y193481D01*
X131706Y193682D01*
X132098Y193873D01*
X132495Y194055D01*
X132896Y194227D01*
X133301Y194389D01*
X133710Y194541D01*
X134123Y194683D01*
X134539Y194814D01*
X134958Y194936D01*
X135380Y195047D01*
X135804Y195148D01*
X136231Y195238D01*
X136660Y195318D01*
X137091Y195388D01*
X137524Y195446D01*
X137957Y195494D01*
X138392Y195532D01*
X138828Y195559D01*
X139264Y195575D01*
X139700Y195580D01*
X140136Y195575D01*
X140572Y195559D01*
X141008Y195532D01*
X141443Y195494D01*
X141876Y195446D01*
X142309Y195388D01*
X142740Y195318D01*
X143169Y195238D01*
X143596Y195148D01*
X144020Y195047D01*
X144442Y194936D01*
X144861Y194814D01*
X145277Y194683D01*
X145690Y194541D01*
X146099Y194389D01*
X146504Y194227D01*
X146905Y194055D01*
X147302Y193873D01*
X147694Y193682D01*
X148081Y193481D01*
X148464Y193270D01*
X148841Y193050D01*
X149212Y192821D01*
X149578Y192584D01*
X149938Y192337D01*
X150292Y192081D01*
X150639Y191817D01*
X150980Y191544D01*
X151313Y191263D01*
X151640Y190974D01*
X151960Y190677D01*
X152272Y190372D01*
X152577Y190060D01*
X152874Y189740D01*
X153163Y189413D01*
X153444Y189080D01*
X153717Y188739D01*
X153981Y188392D01*
X154237Y188038D01*
X154484Y187678D01*
X154721Y187312D01*
X154950Y186941D01*
X155170Y186564D01*
X155381Y186181D01*
X155582Y185794D01*
X155773Y185402D01*
X155955Y185005D01*
X156127Y184604D01*
X156289Y184199D01*
X156441Y183790D01*
X156583Y183377D01*
X156714Y182961D01*
X156836Y182542D01*
X156947Y182120D01*
X157048Y181696D01*
X157138Y181269D01*
X157218Y180840D01*
X157288Y180409D01*
X157346Y179976D01*
X157394Y179543D01*
X157432Y179108D01*
X157459Y178672D01*
X157475Y178236D01*
X157480Y177800D01*
X157475Y177364D01*
X157459Y176928D01*
X157432Y176492D01*
X157394Y176057D01*
X157346Y175624D01*
X157288Y175191D01*
X157218Y174760D01*
X157138Y174331D01*
X157048Y173904D01*
X156947Y173480D01*
X156836Y173058D01*
X156714Y172639D01*
X156583Y172223D01*
X156441Y171810D01*
X156289Y171401D01*
X156127Y170996D01*
X155955Y170595D01*
X155773Y170198D01*
X155582Y169806D01*
X155381Y169419D01*
X155170Y169036D01*
X154950Y168659D01*
X154721Y168288D01*
X154484Y167922D01*
X154237Y167562D01*
X153981Y167208D01*
X153717Y166861D01*
X153444Y166520D01*
X153163Y166187D01*
X152874Y165860D01*
X152577Y165540D01*
X152272Y165228D01*
X151960Y164923D01*
X151640Y164626D01*
X151313Y164337D01*
X150980Y164056D01*
X150639Y163783D01*
X150292Y163519D01*
X149938Y163263D01*
X149578Y163016D01*
X149212Y162779D01*
X148841Y162550D01*
X148464Y162330D01*
X148081Y162119D01*
X147694Y161918D01*
X147302Y161727D01*
X146905Y161545D01*
X146504Y161373D01*
X146099Y161211D01*
X145690Y161059D01*
X145277Y160917D01*
X144861Y160786D01*
X144442Y160664D01*
X144020Y160553D01*
X143596Y160452D01*
X143169Y160362D01*
X142740Y160282D01*
X142309Y160212D01*
X141876Y160154D01*
X141443Y160106D01*
X141008Y160068D01*
X140572Y160041D01*
X140136Y160025D01*
X139700Y160020D01*
X139264Y160025D01*
X138828Y160041D01*
X138392Y160068D01*
X137957Y160106D01*
X137524Y160154D01*
X137091Y160212D01*
X136660Y160282D01*
X136231Y160362D01*
X135804Y160452D01*
X135380Y160553D01*
X134958Y160664D01*
X134539Y160786D01*
X134123Y160917D01*
X133710Y161059D01*
X133301Y161211D01*
X132896Y161373D01*
X132495Y161545D01*
X132098Y161727D01*
X131706Y161918D01*
X131319Y162119D01*
X130936Y162330D01*
X130559Y162550D01*
X130188Y162779D01*
X129822Y163016D01*
X129462Y163263D01*
X129108Y163519D01*
X128761Y163783D01*
X128420Y164056D01*
X128087Y164337D01*
X127760Y164626D01*
X127440Y164923D01*
X127128Y165228D01*
X126823Y165540D01*
X126526Y165860D01*
X126237Y166187D01*
X125956Y166520D01*
X125683Y166861D01*
X125419Y167208D01*
X125163Y167562D01*
X124916Y167922D01*
X124679Y168288D01*
X124450Y168659D01*
X124230Y169036D01*
X124019Y169419D01*
X123818Y169806D01*
X123627Y170198D01*
X123445Y170595D01*
X123273Y170996D01*
X123111Y171401D01*
X122959Y171810D01*
X122817Y172223D01*
X122686Y172639D01*
X122564Y173058D01*
X122453Y173480D01*
X122352Y173904D01*
X122262Y174331D01*
X122182Y174760D01*
X122112Y175191D01*
X122054Y175624D01*
X122006Y176057D01*
X121968Y176492D01*
X121941Y176928D01*
X121925Y177364D01*
X121920Y177800D01*
D13*
X138388Y141661D02*
X138386Y141596D01*
X138380Y141532D01*
X138370Y141468D01*
X138357Y141404D01*
X138339Y141342D01*
X138318Y141281D01*
X138294Y141221D01*
X138265Y141163D01*
X138233Y141106D01*
X138198Y141052D01*
X138160Y141000D01*
X138118Y140950D01*
X138074Y140903D01*
X138027Y140859D01*
X137977Y140817D01*
X137925Y140779D01*
X137871Y140744D01*
X137814Y140712D01*
X137756Y140683D01*
X137696Y140659D01*
X137635Y140638D01*
X137573Y140620D01*
X137509Y140607D01*
X137445Y140597D01*
X137381Y140591D01*
X137316Y140589D01*
X137222Y140591D01*
X137128Y140597D01*
X137034Y140607D01*
X136941Y140620D01*
X136849Y140638D01*
X136757Y140659D01*
X136666Y140684D01*
X136576Y140713D01*
X136488Y140746D01*
X136401Y140782D01*
X136316Y140822D01*
X136232Y140865D01*
X136151Y140912D01*
X136071Y140962D01*
X135993Y141015D01*
X135918Y141072D01*
X135845Y141131D01*
X135775Y141194D01*
X135707Y141259D01*
X135842Y144343D02*
X135844Y144408D01*
X135850Y144472D01*
X135860Y144536D01*
X135873Y144600D01*
X135891Y144662D01*
X135912Y144723D01*
X135936Y144783D01*
X135965Y144841D01*
X135997Y144898D01*
X136032Y144952D01*
X136070Y145004D01*
X136112Y145054D01*
X136156Y145101D01*
X136203Y145145D01*
X136253Y145187D01*
X136305Y145225D01*
X136359Y145260D01*
X136416Y145292D01*
X136474Y145321D01*
X136534Y145345D01*
X136595Y145366D01*
X136657Y145384D01*
X136721Y145397D01*
X136785Y145407D01*
X136849Y145413D01*
X136914Y145415D01*
X137000Y145413D01*
X137086Y145408D01*
X137172Y145398D01*
X137257Y145385D01*
X137342Y145369D01*
X137426Y145349D01*
X137509Y145325D01*
X137591Y145298D01*
X137671Y145267D01*
X137751Y145233D01*
X137828Y145195D01*
X137904Y145154D01*
X137978Y145110D01*
X138050Y145063D01*
X138121Y145013D01*
X136378Y143405D02*
X136325Y143438D01*
X136274Y143475D01*
X136225Y143514D01*
X136178Y143556D01*
X136134Y143601D01*
X136093Y143648D01*
X136054Y143697D01*
X136018Y143749D01*
X135985Y143803D01*
X135956Y143858D01*
X135930Y143915D01*
X135907Y143974D01*
X135887Y144033D01*
X135871Y144094D01*
X135858Y144155D01*
X135849Y144218D01*
X135844Y144280D01*
X135842Y144343D01*
X137853Y142599D02*
X137906Y142566D01*
X137957Y142529D01*
X138006Y142490D01*
X138053Y142448D01*
X138097Y142403D01*
X138138Y142356D01*
X138177Y142307D01*
X138213Y142255D01*
X138246Y142201D01*
X138275Y142146D01*
X138301Y142089D01*
X138324Y142030D01*
X138344Y141971D01*
X138360Y141910D01*
X138373Y141849D01*
X138382Y141786D01*
X138387Y141724D01*
X138389Y141661D01*
X137853Y142600D02*
X136378Y143404D01*
X141011Y144343D02*
X142352Y145415D01*
X142352Y140589D01*
X143692Y140589D02*
X141011Y140589D01*
M02*
