M48
METRIC,LZ,000.000
;FILE_FORMAT=3:3
;TYPE=PLATED
;Layer: PTH_Through
;EasyEDA v6.5.29, 2023-07-16 09:38:32
;6daab3e9de084c3e9e407c93523b43d4,e855215096054eb7bd5858a7ef804e70,10
;Gerber Generator version 0.2
;Holesize 1 = 0.915 mm
T01C0.915
%
G05
G90
T01
X011557Y010033
X014097Y010033
X016637Y010033
X019177Y010033
X021717Y010033
X024257Y010033
X026797Y010033
X029337Y010033
X031877Y010033
X034417Y010033
X036957Y010033
X039497Y010033
X042037Y010033
X044577Y010033
X047117Y010033
X049657Y010033
X052197Y010033
X054737Y010033
X057277Y010033
X059817Y010033
X062357Y010033
X064897Y010033
X036957Y040513
X034417Y040513
X031877Y040513
X029337Y040513
X026797Y040513
X024257Y040513
X021717Y040513
X019177Y040513
X016637Y040513
X014097Y040513
X011557Y040513
X064897Y040513
X062357Y040513
X059817Y040513
X057277Y040513
X054737Y040513
X052197Y040513
X049657Y040513
X047117Y040513
X044577Y040513
X042037Y040513
X039497Y040513
X064897Y012573
X064897Y015113
X064897Y017653
X064897Y020193
X064897Y022733
X064897Y025273
X064897Y027813
X064897Y030353
X064897Y032893
X064897Y035433
X064897Y037973
M30
