G04 Layer: TopSolderMaskLayer*
G04 EasyEDA v6.5.29, 2023-07-16 09:38:32*
G04 6daab3e9de084c3e9e407c93523b43d4,e855215096054eb7bd5858a7ef804e70,10*
G04 Gerber Generator version 0.2*
G04 Scale: 100 percent, Rotated: No, Reflected: No *
G04 Dimensions in millimeters *
G04 leading zeros omitted , absolute positions ,4 integer and 5 decimal *
%FSLAX45Y45*%
%MOMM*%

%AMMACRO1*1,1,$1,$2,$3*1,1,$1,$4,$5*1,1,$1,0-$2,0-$3*1,1,$1,0-$4,0-$5*20,1,$1,$2,$3,$4,$5,0*20,1,$1,$4,$5,0-$2,0-$3,0*20,1,$1,0-$2,0-$3,0-$4,0-$5,0*20,1,$1,0-$4,0-$5,$2,$3,0*4,1,4,$2,$3,$4,$5,0-$2,0-$3,0-$4,0-$5,$2,$3,0*%
%ADD10C,1.6002*%
%ADD11MACRO1,0.1016X0.7493X-0.7493X-0.7493X-0.7493*%
%ADD12MACRO1,0.1016X-0.7493X0.7493X0.7493X0.7493*%
%ADD13MACRO1,0.1016X0.7493X0.7493X0.7493X-0.7493*%
%ADD14O,0.601599X1.9015964*%

%LPD*%
D10*
G01*
X1155700Y1003300D03*
G01*
X1409700Y1003300D03*
G01*
X1663700Y1003300D03*
G01*
X1917700Y1003300D03*
G01*
X2171700Y1003300D03*
G01*
X2425700Y1003300D03*
G01*
X2679700Y1003300D03*
G01*
X2933700Y1003300D03*
G01*
X3187700Y1003300D03*
G01*
X3441700Y1003300D03*
D11*
G01*
X3695700Y1003300D03*
D10*
G01*
X3949700Y1003300D03*
G01*
X4203700Y1003300D03*
G01*
X4457700Y1003300D03*
G01*
X4711700Y1003300D03*
G01*
X4965700Y1003300D03*
G01*
X5219700Y1003300D03*
G01*
X5473700Y1003300D03*
G01*
X5727700Y1003300D03*
G01*
X5981700Y1003300D03*
G01*
X6235700Y1003300D03*
D11*
G01*
X6489700Y1003300D03*
D10*
G01*
X3695700Y4051300D03*
G01*
X3441700Y4051300D03*
G01*
X3187700Y4051300D03*
G01*
X2933700Y4051300D03*
G01*
X2679700Y4051300D03*
G01*
X2425700Y4051300D03*
G01*
X2171700Y4051300D03*
G01*
X1917700Y4051300D03*
G01*
X1663700Y4051300D03*
G01*
X1409700Y4051300D03*
D12*
G01*
X1155700Y4051300D03*
D10*
G01*
X6489700Y4051300D03*
G01*
X6235700Y4051300D03*
G01*
X5981700Y4051300D03*
G01*
X5727700Y4051300D03*
G01*
X5473700Y4051300D03*
G01*
X5219700Y4051300D03*
G01*
X4965700Y4051300D03*
G01*
X4711700Y4051300D03*
G01*
X4457700Y4051300D03*
G01*
X4203700Y4051300D03*
D12*
G01*
X3949700Y4051300D03*
D10*
G01*
X6489700Y1257300D03*
G01*
X6489700Y1511300D03*
G01*
X6489700Y1765300D03*
G01*
X6489700Y2019300D03*
G01*
X6489700Y2273300D03*
G01*
X6489700Y2527300D03*
G01*
X6489700Y2781300D03*
G01*
X6489700Y3035300D03*
G01*
X6489700Y3289300D03*
G01*
X6489700Y3543300D03*
D13*
G01*
X6489700Y3797300D03*
D14*
G01*
X3468522Y1988489D03*
G01*
X3548532Y1988489D03*
G01*
X3628516Y1988489D03*
G01*
X3708527Y1988489D03*
G01*
X3788511Y1988489D03*
G01*
X3868521Y1988489D03*
G01*
X3948506Y1988489D03*
G01*
X4028516Y1988489D03*
G01*
X4108500Y1988489D03*
G01*
X4188536Y1988489D03*
G01*
X4268495Y1988489D03*
G01*
X4348530Y1988489D03*
G01*
X4428490Y1988489D03*
G01*
X4508525Y1988489D03*
G01*
X4588509Y1988489D03*
G01*
X4668520Y1988489D03*
G01*
X4748504Y1988489D03*
G01*
X4828514Y1988489D03*
G01*
X4908499Y1988489D03*
G01*
X4988534Y1988489D03*
G01*
X5068519Y1988489D03*
G01*
X5148529Y1988489D03*
G01*
X5228539Y1988489D03*
G01*
X5308523Y1988489D03*
G01*
X5388533Y1988489D03*
G01*
X5468518Y1988489D03*
G01*
X5548528Y1988489D03*
G01*
X3468522Y3116910D03*
G01*
X3548532Y3116910D03*
G01*
X3628516Y3116910D03*
G01*
X3708527Y3116910D03*
G01*
X3788511Y3116910D03*
G01*
X3868521Y3116910D03*
G01*
X3948506Y3116910D03*
G01*
X4028516Y3116910D03*
G01*
X4108500Y3116910D03*
G01*
X4188536Y3116910D03*
G01*
X4268495Y3116910D03*
G01*
X4348530Y3116910D03*
G01*
X4428490Y3116910D03*
G01*
X4508525Y3116910D03*
G01*
X4588509Y3116910D03*
G01*
X4668520Y3116910D03*
G01*
X4748504Y3116910D03*
G01*
X4828514Y3116910D03*
G01*
X4908499Y3116910D03*
G01*
X4988534Y3116910D03*
G01*
X5068519Y3116910D03*
G01*
X5148529Y3116910D03*
G01*
X5228539Y3116910D03*
G01*
X5308523Y3116910D03*
G01*
X5388533Y3116910D03*
G01*
X5468518Y3116910D03*
G01*
X5548528Y3116910D03*
M02*
