G04 Layer: TopPasteMaskLayer*
G04 EasyEDA v6.5.29, 2023-07-16 09:38:32*
G04 6daab3e9de084c3e9e407c93523b43d4,e855215096054eb7bd5858a7ef804e70,10*
G04 Gerber Generator version 0.2*
G04 Scale: 100 percent, Rotated: No, Reflected: No *
G04 Dimensions in millimeters *
G04 leading zeros omitted , absolute positions ,4 integer and 5 decimal *
%FSLAX45Y45*%
%MOMM*%

%ADD10O,0.49999899999999997X1.7999964*%

%LPD*%
D10*
G01*
X3468522Y1988489D03*
G01*
X3548532Y1988489D03*
G01*
X3628516Y1988489D03*
G01*
X3708527Y1988489D03*
G01*
X3788511Y1988489D03*
G01*
X3868521Y1988489D03*
G01*
X3948506Y1988489D03*
G01*
X4028516Y1988489D03*
G01*
X4108500Y1988489D03*
G01*
X4188536Y1988489D03*
G01*
X4268495Y1988489D03*
G01*
X4348530Y1988489D03*
G01*
X4428490Y1988489D03*
G01*
X4508525Y1988489D03*
G01*
X4588509Y1988489D03*
G01*
X4668520Y1988489D03*
G01*
X4748504Y1988489D03*
G01*
X4828514Y1988489D03*
G01*
X4908499Y1988489D03*
G01*
X4988534Y1988489D03*
G01*
X5068519Y1988489D03*
G01*
X5148529Y1988489D03*
G01*
X5228539Y1988489D03*
G01*
X5308523Y1988489D03*
G01*
X5388533Y1988489D03*
G01*
X5468518Y1988489D03*
G01*
X5548528Y1988489D03*
G01*
X3468522Y3116910D03*
G01*
X3548532Y3116910D03*
G01*
X3628516Y3116910D03*
G01*
X3708527Y3116910D03*
G01*
X3788511Y3116910D03*
G01*
X3868521Y3116910D03*
G01*
X3948506Y3116910D03*
G01*
X4028516Y3116910D03*
G01*
X4108500Y3116910D03*
G01*
X4188536Y3116910D03*
G01*
X4268495Y3116910D03*
G01*
X4348530Y3116910D03*
G01*
X4428490Y3116910D03*
G01*
X4508525Y3116910D03*
G01*
X4588509Y3116910D03*
G01*
X4668520Y3116910D03*
G01*
X4748504Y3116910D03*
G01*
X4828514Y3116910D03*
G01*
X4908499Y3116910D03*
G01*
X4988534Y3116910D03*
G01*
X5068519Y3116910D03*
G01*
X5148529Y3116910D03*
G01*
X5228539Y3116910D03*
G01*
X5308523Y3116910D03*
G01*
X5388533Y3116910D03*
G01*
X5468518Y3116910D03*
G01*
X5548528Y3116910D03*
M02*
