G04 Layer: TopLayer*
G04 EasyEDA v6.5.29, 2023-07-16 09:38:32*
G04 6daab3e9de084c3e9e407c93523b43d4,e855215096054eb7bd5858a7ef804e70,10*
G04 Gerber Generator version 0.2*
G04 Scale: 100 percent, Rotated: No, Reflected: No *
G04 Dimensions in millimeters *
G04 leading zeros omitted , absolute positions ,4 integer and 5 decimal *
%FSLAX45Y45*%
%MOMM*%

%ADD10C,0.4000*%
%ADD11O,0.49999899999999997X1.7999964*%
%ADD12C,1.4986*%
%ADD13R,1.4986X1.4986*%

%LPD*%
D10*
X3468624Y1988565D02*
G01*
X3468624Y1981200D01*
X3073400Y1981200D01*
X3073400Y1981200D02*
G01*
X2133600Y1981200D01*
X1155700Y1003300D01*
X1663700Y1003300D02*
G01*
X2374900Y1714500D01*
X3302000Y1714500D01*
X3302000Y1714500D02*
G01*
X3464661Y1714500D01*
X3628516Y1878355D01*
X3628516Y1988489D01*
X3548532Y1988489D02*
G01*
X3548532Y1895398D01*
X3501593Y1848459D01*
X2254859Y1848459D01*
X1409700Y1003300D01*
X1917700Y1003300D02*
G01*
X1793747Y879347D01*
X1096441Y879347D01*
X1028852Y946937D01*
X1028852Y1067333D01*
X2088819Y2127300D01*
X3666210Y2127300D01*
X3708527Y2084984D01*
X3708527Y1988489D01*
X2171700Y1003300D02*
G01*
X2652268Y1483868D01*
X3393465Y1483868D01*
X3788511Y1878914D01*
X3788511Y1988489D01*
X3868521Y1988489D02*
G01*
X3868521Y2088261D01*
X3755186Y2201595D01*
X2047849Y2201595D01*
X957884Y1111630D01*
X957884Y921232D01*
X1081659Y797458D01*
X2219858Y797458D01*
X2425700Y1003300D01*
X2679700Y1003300D02*
G01*
X2804668Y1128268D01*
X3197885Y1128268D01*
X3948506Y1878888D01*
X3948506Y1988489D01*
X4028516Y1988489D02*
G01*
X4028516Y2101570D01*
X3853484Y2276602D01*
X2022347Y2276602D01*
X882142Y1136395D01*
X882142Y894257D01*
X1061999Y714400D01*
X2644800Y714400D01*
X2933700Y1003300D01*
X4108500Y1988489D02*
G01*
X4108500Y1896287D01*
X3215513Y1003300D01*
X3187700Y1003300D01*
X4188536Y1988489D02*
G01*
X4188536Y1750136D01*
X3441700Y1003300D01*
X4268495Y1988489D02*
G01*
X4268495Y1699132D01*
X3695700Y1126337D01*
X3695700Y1003300D02*
G01*
X3695700Y1126337D01*
X4348530Y1988489D02*
G01*
X4348530Y1402130D01*
X3949700Y1003300D01*
X4428490Y1988489D02*
G01*
X4428490Y1228089D01*
X4203700Y1003300D01*
X4508525Y1988489D02*
G01*
X4508525Y1054125D01*
X4457700Y1003300D01*
X4588509Y1988489D02*
G01*
X4588509Y1126489D01*
X4711700Y1003300D01*
X4668520Y1988489D02*
G01*
X4668520Y1300479D01*
X4965700Y1003300D01*
X4748504Y1988489D02*
G01*
X4748504Y1474495D01*
X5219700Y1003300D01*
X4828514Y1988489D02*
G01*
X4828514Y1648485D01*
X5473700Y1003300D01*
X4908499Y1988489D02*
G01*
X4908499Y1822500D01*
X5727700Y1003300D01*
X4988534Y1988489D02*
G01*
X4988534Y1862581D01*
X5709284Y1141831D01*
X5843168Y1141831D01*
X5981700Y1003300D01*
X5068519Y1988489D02*
G01*
X5068519Y1879168D01*
X5717692Y1229995D01*
X6009004Y1229995D01*
X6235700Y1003300D01*
X6366662Y1003300D02*
G01*
X6366662Y1064818D01*
X5920257Y1511223D01*
X5533034Y1511223D01*
X5148529Y1895729D01*
X5148529Y1988489D01*
X6489700Y1003300D02*
G01*
X6366662Y1003300D01*
X4268495Y3116910D02*
G01*
X4268495Y3478504D01*
X3695700Y4051300D01*
X4188536Y3116910D02*
G01*
X4188536Y3304463D01*
X3441700Y4051300D01*
X4108500Y3116910D02*
G01*
X4108500Y3208731D01*
X3265957Y4051274D01*
X3187700Y4051274D01*
X3187700Y4051300D01*
X4028516Y3116910D02*
G01*
X4028516Y3011728D01*
X3909923Y2893136D01*
X1980514Y2893136D01*
X955649Y3918000D01*
X955649Y4188028D01*
X1016177Y4248556D01*
X2736443Y4248556D01*
X2933700Y4051300D01*
X2679700Y4051300D02*
G01*
X2808376Y3922623D01*
X3298037Y3922623D01*
X3948506Y3272154D01*
X3948506Y3116910D01*
X3868521Y3116910D02*
G01*
X3868521Y3238754D01*
X3258896Y3848379D01*
X2628620Y3848379D01*
X2425700Y4051300D01*
X3788511Y3116910D02*
G01*
X3788511Y3026460D01*
X3734206Y2972155D01*
X2013508Y2972155D01*
X1032510Y3953154D01*
X1032510Y4153941D01*
X1053058Y4174489D01*
X2048509Y4174489D01*
X2171700Y4051300D01*
X1917700Y4051300D02*
G01*
X2301900Y3667099D01*
X3341827Y3667099D01*
X3708527Y3300399D01*
X3708527Y3116910D01*
X1663700Y4051300D02*
G01*
X2179116Y3535883D01*
X3355771Y3535883D01*
X3628516Y3263137D01*
X3628516Y3116910D01*
X1409700Y4051300D02*
G01*
X2166823Y3294176D01*
X3486937Y3294176D01*
X3548532Y3232581D01*
X3548532Y3116910D01*
X3468522Y3116910D02*
G01*
X2151608Y3116910D01*
X1278737Y3989781D01*
X1278737Y4051300D01*
X1155700Y4051300D02*
G01*
X1278737Y4051300D01*
X6489700Y4051300D02*
G01*
X6235776Y3797376D01*
X5728690Y3797376D01*
X5148529Y3217214D01*
X5148529Y3116910D01*
X6235700Y4051300D02*
G01*
X6104915Y3920515D01*
X5755259Y3920515D01*
X5068519Y3233775D01*
X5068519Y3116910D01*
X4988534Y3116910D02*
G01*
X4988534Y3013202D01*
X4796383Y2821051D01*
X1951075Y2821051D01*
X878560Y3893565D01*
X878560Y4208830D01*
X988060Y4318330D01*
X5714669Y4318330D01*
X5981700Y4051300D01*
X4908499Y3116910D02*
G01*
X4908499Y3232099D01*
X5727700Y4051300D01*
X4828514Y3116910D02*
G01*
X4828514Y3406114D01*
X5473700Y4051300D01*
X4748504Y3116910D02*
G01*
X4748504Y3580104D01*
X5219700Y4051300D01*
X4668520Y3116910D02*
G01*
X4668520Y3754120D01*
X4965700Y4051300D01*
X4588509Y3116910D02*
G01*
X4588509Y3928110D01*
X4711700Y4051300D01*
X4508525Y3116910D02*
G01*
X4508525Y4000474D01*
X4457700Y4051300D01*
X4428490Y3116910D02*
G01*
X4428490Y3826510D01*
X4203700Y4051300D01*
X4348530Y3116910D02*
G01*
X4348530Y3529431D01*
X3949700Y3928262D01*
X3949700Y4051300D02*
G01*
X3949700Y3928262D01*
X5228539Y1988489D02*
G01*
X5228539Y2085949D01*
X4954600Y2359888D01*
X2003450Y2359888D01*
X812825Y1169263D01*
X812825Y862736D01*
X1029614Y645947D01*
X6356146Y645947D01*
X6620484Y910285D01*
X6620484Y1380515D01*
X6489700Y1511300D01*
X5308523Y1988489D02*
G01*
X5308523Y1858543D01*
X5401767Y1765300D01*
X6489700Y1765300D01*
X5388533Y1988489D02*
G01*
X5388533Y1881784D01*
X5428106Y1842211D01*
X6312611Y1842211D01*
X6489700Y2019300D01*
X5468518Y1988489D02*
G01*
X5468518Y2084730D01*
X5657088Y2273300D01*
X6489700Y2273300D01*
X6489700Y2527300D02*
G01*
X6620332Y2396667D01*
X6620332Y2218207D01*
X6548424Y2146300D01*
X5706338Y2146300D01*
X5548528Y1988489D01*
X5548528Y3116910D02*
G01*
X6154089Y3116910D01*
X6489700Y2781300D01*
X5468518Y3116910D02*
G01*
X5468518Y3206140D01*
X5520639Y3258261D01*
X6266738Y3258261D01*
X6489700Y3035300D01*
X5388533Y3116910D02*
G01*
X5388533Y3243757D01*
X5483123Y3338347D01*
X6440652Y3338347D01*
X6489700Y3289300D01*
X5308523Y3116910D02*
G01*
X5308523Y3263645D01*
X5588177Y3543300D01*
X6489700Y3543300D01*
X5228539Y3116910D02*
G01*
X5232400Y3113049D01*
X5232425Y3113049D01*
X5232425Y3023539D01*
X5603240Y2652725D01*
X6549669Y2652725D01*
X6620484Y2723540D01*
X6620484Y3604996D01*
X6551218Y3674262D01*
X6489700Y3674262D01*
X6489700Y3797300D02*
G01*
X6489700Y3674262D01*
D11*
G01*
X3468522Y1988489D03*
G01*
X3548532Y1988489D03*
G01*
X3628516Y1988489D03*
G01*
X3708527Y1988489D03*
G01*
X3788511Y1988489D03*
G01*
X3868521Y1988489D03*
G01*
X3948506Y1988489D03*
G01*
X4028516Y1988489D03*
G01*
X4108500Y1988489D03*
G01*
X4188536Y1988489D03*
G01*
X4268495Y1988489D03*
G01*
X4348530Y1988489D03*
G01*
X4428490Y1988489D03*
G01*
X4508525Y1988489D03*
G01*
X4588509Y1988489D03*
G01*
X4668520Y1988489D03*
G01*
X4748504Y1988489D03*
G01*
X4828514Y1988489D03*
G01*
X4908499Y1988489D03*
G01*
X4988534Y1988489D03*
G01*
X5068519Y1988489D03*
G01*
X5148529Y1988489D03*
G01*
X5228539Y1988489D03*
G01*
X5308523Y1988489D03*
G01*
X5388533Y1988489D03*
G01*
X5468518Y1988489D03*
G01*
X5548528Y1988489D03*
G01*
X3468522Y3116910D03*
G01*
X3548532Y3116910D03*
G01*
X3628516Y3116910D03*
G01*
X3708527Y3116910D03*
G01*
X3788511Y3116910D03*
G01*
X3868521Y3116910D03*
G01*
X3948506Y3116910D03*
G01*
X4028516Y3116910D03*
G01*
X4108500Y3116910D03*
G01*
X4188536Y3116910D03*
G01*
X4268495Y3116910D03*
G01*
X4348530Y3116910D03*
G01*
X4428490Y3116910D03*
G01*
X4508525Y3116910D03*
G01*
X4588509Y3116910D03*
G01*
X4668520Y3116910D03*
G01*
X4748504Y3116910D03*
G01*
X4828514Y3116910D03*
G01*
X4908499Y3116910D03*
G01*
X4988534Y3116910D03*
G01*
X5068519Y3116910D03*
G01*
X5148529Y3116910D03*
G01*
X5228539Y3116910D03*
G01*
X5308523Y3116910D03*
G01*
X5388533Y3116910D03*
G01*
X5468518Y3116910D03*
G01*
X5548528Y3116910D03*
D12*
G01*
X1155700Y1003300D03*
G01*
X1409700Y1003300D03*
G01*
X1663700Y1003300D03*
G01*
X1917700Y1003300D03*
G01*
X2171700Y1003300D03*
G01*
X2425700Y1003300D03*
G01*
X2679700Y1003300D03*
G01*
X2933700Y1003300D03*
G01*
X3187700Y1003300D03*
G01*
X3441700Y1003300D03*
D13*
G01*
X3695700Y1003300D03*
D12*
G01*
X3949700Y1003300D03*
G01*
X4203700Y1003300D03*
G01*
X4457700Y1003300D03*
G01*
X4711700Y1003300D03*
G01*
X4965700Y1003300D03*
G01*
X5219700Y1003300D03*
G01*
X5473700Y1003300D03*
G01*
X5727700Y1003300D03*
G01*
X5981700Y1003300D03*
G01*
X6235700Y1003300D03*
D13*
G01*
X6489700Y1003300D03*
D12*
G01*
X3695700Y4051300D03*
G01*
X3441700Y4051300D03*
G01*
X3187700Y4051300D03*
G01*
X2933700Y4051300D03*
G01*
X2679700Y4051300D03*
G01*
X2425700Y4051300D03*
G01*
X2171700Y4051300D03*
G01*
X1917700Y4051300D03*
G01*
X1663700Y4051300D03*
G01*
X1409700Y4051300D03*
D13*
G01*
X1155700Y4051300D03*
D12*
G01*
X6489700Y4051300D03*
G01*
X6235700Y4051300D03*
G01*
X5981700Y4051300D03*
G01*
X5727700Y4051300D03*
G01*
X5473700Y4051300D03*
G01*
X5219700Y4051300D03*
G01*
X4965700Y4051300D03*
G01*
X4711700Y4051300D03*
G01*
X4457700Y4051300D03*
G01*
X4203700Y4051300D03*
D13*
G01*
X3949700Y4051300D03*
D12*
G01*
X6489700Y1257300D03*
G01*
X6489700Y1511300D03*
G01*
X6489700Y1765300D03*
G01*
X6489700Y2019300D03*
G01*
X6489700Y2273300D03*
G01*
X6489700Y2527300D03*
G01*
X6489700Y2781300D03*
G01*
X6489700Y3035300D03*
G01*
X6489700Y3289300D03*
G01*
X6489700Y3543300D03*
D13*
G01*
X6489700Y3797300D03*
M02*
