M48
METRIC,LZ,000.000
;FILE_FORMAT=3:3
;TYPE=PLATED
;Layer: PTH_Through
;EasyEDA v6.5.29, 2023-07-21 00:20:02
;ca003af367b04b34b6e468f580e2009c,e855215096054eb7bd5858a7ef804e70,10
;Gerber Generator version 0.2
;Holesize 1 = 0.915 mm
T01C0.915
%
G05
G90
T01
X004064Y016256
X006604Y016256
X009144Y016256
X011684Y016256
X014224Y016256
X016764Y016256
X019304Y016256
X021844Y016256
X024384Y016256
X026924Y016256
X029464Y016256
X032004Y016256
X034544Y016256
X037084Y016256
X039624Y016256
X042164Y016256
X044704Y016256
X047244Y016256
X049784Y016256
X052324Y016256
X054864Y016256
X057404Y016256
X059944Y016256
X062484Y016256
X065024Y016256
X067564Y016256
X070104Y016256
X072644Y016256
M30
