G04 Layer: TopSilkscreenLayer*
G04 EasyEDA v6.5.29, 2023-07-21 00:20:02*
G04 ca003af367b04b34b6e468f580e2009c,e855215096054eb7bd5858a7ef804e70,10*
G04 Gerber Generator version 0.2*
G04 Scale: 100 percent, Rotated: No, Reflected: No *
G04 Dimensions in millimeters *
G04 leading zeros omitted , absolute positions ,4 integer and 5 decimal *
%FSLAX45Y45*%
%MOMM*%

%ADD10C,0.1524*%
%ADD11C,0.2540*%

%LPD*%
D10*
X3835400Y1918715D02*
G01*
X3835400Y1840737D01*
X3840479Y1825244D01*
X3850893Y1814829D01*
X3866641Y1809750D01*
X3877056Y1809750D01*
X3892550Y1814829D01*
X3902963Y1825244D01*
X3908043Y1840737D01*
X3908043Y1918715D01*
X3942334Y1897887D02*
G01*
X3952747Y1903221D01*
X3968495Y1918715D01*
X3968495Y1809750D01*
X3878747Y346626D02*
G01*
X3878747Y424604D01*
X3873667Y440098D01*
X3863253Y450512D01*
X3847505Y455592D01*
X3837091Y455592D01*
X3821597Y450512D01*
X3811183Y440098D01*
X3806103Y424604D01*
X3806103Y346626D01*
X3766479Y372534D02*
G01*
X3766479Y367454D01*
X3761399Y357040D01*
X3756065Y351706D01*
X3745651Y346626D01*
X3725077Y346626D01*
X3714663Y351706D01*
X3709329Y357040D01*
X3704249Y367454D01*
X3704249Y377868D01*
X3709329Y388282D01*
X3719743Y403776D01*
X3771813Y455592D01*
X3698915Y455592D01*
D11*
X279450Y1752625D02*
G01*
X7416800Y1752600D01*
X279450Y1751634D02*
G01*
X279450Y1497634D01*
X281457Y1497634D02*
G01*
X7416800Y1498600D01*
X7416800Y1752600D02*
G01*
X7416800Y1498600D01*
M02*
