M48
METRIC,LZ,000.000
;FILE_FORMAT=3:3
;TYPE=PLATED
;Layer: PTH_Through
;EasyEDA v6.5.29, 2023-07-23 13:13:55
;121b0214f77d4f04981b34128f4af4b8,e855215096054eb7bd5858a7ef804e70,10
;Gerber Generator version 0.2
;Holesize 1 = 0.801 mm
T01C0.801
;Holesize 2 = 0.900 mm
T02C0.900
;Holesize 3 = 0.901 mm
T03C0.901
;Holesize 4 = 1.000 mm
T04C1.000
;Holesize 5 = 1.100 mm
T05C1.100
;Holesize 6 = 1.101 mm
T06C1.101
;Holesize 7 = 1.199 mm
T07C1.199
;Holesize 8 = 1.499 mm
T08C1.499
%
G05
G90
T01
X061524Y065114G85X061524Y065109
X058984Y065114G85X058984Y065109
X056444Y065114G85X056444Y065109
X053904Y065114G85X053904Y065109
X051364Y065114G85X051364Y065109
X048824Y065114G85X048824Y065109
X046284Y065114G85X046284Y065109
X043744Y065114G85X043744Y065109
X041204Y065114G85X041204Y065109
X038664Y065114G85X038664Y065109
X036124Y065114G85X036124Y065109
X033584Y065114G85X033584Y065109
X031044Y065114G85X031044Y065109
X028504Y065114G85X028504Y065109
X025964Y065114G85X025964Y065109
X023424Y065114G85X023424Y065109
X020884Y065114G85X020884Y065109
X018344Y065114G85X018344Y065109
X015804Y065114G85X015804Y065109
X013264Y065114G85X013264Y065109
X061524Y049874G85X061524Y049869
X058984Y049874G85X058984Y049869
X056444Y049874G85X056444Y049869
X053904Y049874G85X053904Y049869
X051364Y049874G85X051364Y049869
X048824Y049874G85X048824Y049869
X046284Y049874G85X046284Y049869
X043744Y049874G85X043744Y049869
X041204Y049874G85X041204Y049869
X038664Y049874G85X038664Y049869
X036124Y049874G85X036124Y049869
X033584Y049874G85X033584Y049869
X031044Y049874G85X031044Y049869
X028504Y049874G85X028504Y049869
X025964Y049874G85X025964Y049869
X023424Y049874G85X023424Y049869
X020884Y049874G85X020884Y049869
X018344Y049874G85X018344Y049869
X015804Y049874G85X015804Y049869
X013264Y049874G85X013264Y049869
T02
X027869Y009740
X020249Y009740
X054483Y036954
X058293Y030356
T03
X059091Y042125
X056591Y042125
X060508Y029679
X060508Y027139
X060508Y024599
X060508Y022059
X060508Y019519
X060508Y016979
X060508Y014439
X060508Y011899
X008508Y024679
X008508Y022139
X008508Y019599
X008508Y017059
T04
X027337Y059905
X024337Y059905
X053499Y060032
X050499Y060032
X058833Y060032
X055833Y060032
X064040Y059905
X061040Y059905
T05
X051364Y053682G85X051364Y053681
X048824Y053682G85X048824Y053681
X046284Y053682G85X046284Y053681
X046284Y056222G85X046284Y056221
X048824Y056222G85X048824Y056221
X051364Y056222G85X051364Y056221
T06
X058349Y077685
X058349Y075145
X055809Y077685
X055809Y075145
X053269Y077685
X053269Y075145
X050729Y077685
X050729Y075145
X048189Y077685
X048189Y075145
X045649Y077685
X045649Y075145
X043109Y077685
X043109Y075145
X040569Y077685
X040569Y075145
X038029Y077685
X038029Y075145
X035489Y077685
X035489Y075145
T07
X011600Y080047
X011600Y077558
X011600Y075068
X026104Y075068
X026104Y080047
T08
X019093Y083069
X019093Y072046
M30
