G04 Layer: TopLayer*
G04 EasyEDA v6.5.29, 2023-07-23 13:13:55*
G04 121b0214f77d4f04981b34128f4af4b8,e855215096054eb7bd5858a7ef804e70,10*
G04 Gerber Generator version 0.2*
G04 Scale: 100 percent, Rotated: No, Reflected: No *
G04 Dimensions in millimeters *
G04 leading zeros omitted , absolute positions ,4 integer and 5 decimal *
%FSLAX45Y45*%
%MOMM*%

%AMMACRO1*4,1,8,0.3694,-0.8918,0.8917,-0.3693,0.8917,0.3693,0.3694,0.8918,-0.3692,0.8918,-0.8917,0.3693,-0.8917,-0.3693,-0.3692,-0.8918,0.3694,-0.8918,0*%
%AMMACRO2*4,1,8,0.3693,-0.8918,0.8918,-0.3693,0.8918,0.3693,0.3693,0.8918,-0.3693,0.8918,-0.8918,0.3693,-0.8918,-0.3693,-0.3693,-0.8918,0.3693,-0.8918,0*%
%ADD10C,0.4000*%
%ADD11C,1.8000*%
%ADD12C,1.5000*%
%ADD13C,1.8796*%
%ADD14C,1.8009*%
%ADD15R,3.5992X1.9990*%
%ADD16MACRO1*%
%ADD17MACRO2*%
%ADD18C,1.8800*%
%ADD19C,0.0176*%

%LPD*%
G36*
X123698Y139700D02*
G01*
X119786Y140462D01*
X116535Y142697D01*
X114300Y145948D01*
X113537Y149860D01*
X113537Y8715502D01*
X114300Y8719413D01*
X116535Y8722664D01*
X119786Y8724900D01*
X123698Y8725662D01*
X6708902Y8725662D01*
X6712813Y8724900D01*
X6716064Y8722664D01*
X6718300Y8719413D01*
X6719062Y8715502D01*
X6719062Y149860D01*
X6718300Y145948D01*
X6716064Y142697D01*
X6712813Y140462D01*
X6708902Y139700D01*
G37*

%LPC*%
G36*
X1729892Y8176463D02*
G01*
X2088794Y8176463D01*
X2095246Y8177123D01*
X2100935Y8178850D01*
X2106218Y8181644D01*
X2110841Y8185454D01*
X2114600Y8190077D01*
X2117445Y8195309D01*
X2119172Y8201050D01*
X2119782Y8207502D01*
X2119782Y8406384D01*
X2119172Y8412835D01*
X2117445Y8418525D01*
X2114600Y8423808D01*
X2110841Y8428431D01*
X2106218Y8432190D01*
X2100935Y8435035D01*
X2095246Y8436762D01*
X2088794Y8437372D01*
X1729892Y8437372D01*
X1723440Y8436762D01*
X1717700Y8435035D01*
X1712468Y8432190D01*
X1707845Y8428431D01*
X1704035Y8423808D01*
X1701241Y8418525D01*
X1699514Y8412835D01*
X1698853Y8406384D01*
X1698853Y8207502D01*
X1699514Y8201050D01*
X1701241Y8195309D01*
X1704035Y8190077D01*
X1707845Y8185454D01*
X1712468Y8181644D01*
X1717700Y8178850D01*
X1723440Y8177123D01*
G37*
G36*
X1156716Y624992D02*
G01*
X2488234Y624992D01*
X2492857Y625195D01*
X2497226Y625754D01*
X2501544Y626719D01*
X2505710Y628040D01*
X2509774Y629716D01*
X2513685Y631748D01*
X2517394Y634136D01*
X2520899Y636828D01*
X2524302Y639927D01*
X2737815Y853440D01*
X2740812Y855522D01*
X2744368Y856386D01*
X2748026Y855929D01*
X2757119Y853084D01*
X2771902Y850392D01*
X2786888Y849477D01*
X2801924Y850392D01*
X2816707Y853084D01*
X2831033Y857554D01*
X2844749Y863752D01*
X2857601Y871524D01*
X2869438Y880770D01*
X2880055Y891387D01*
X2889351Y903224D01*
X2899968Y920597D01*
X2903169Y922731D01*
X2906979Y923442D01*
X5690158Y923442D01*
X5694781Y923645D01*
X5699150Y924204D01*
X5703468Y925169D01*
X5707634Y926490D01*
X5711698Y928166D01*
X5715609Y930198D01*
X5719318Y932586D01*
X5722823Y935278D01*
X5726226Y938377D01*
X5924245Y1136345D01*
X5927496Y1138580D01*
X5931408Y1139342D01*
X5935370Y1139342D01*
X5938926Y1138682D01*
X5942025Y1136853D01*
X5944311Y1134008D01*
X5948375Y1126439D01*
X5956909Y1114298D01*
X5966917Y1103376D01*
X5978194Y1093724D01*
X5990539Y1085494D01*
X6003848Y1078890D01*
X6017818Y1073962D01*
X6032296Y1070813D01*
X6047079Y1069441D01*
X6061913Y1069898D01*
X6076594Y1072134D01*
X6090869Y1076198D01*
X6104483Y1081989D01*
X6117336Y1089406D01*
X6129172Y1098346D01*
X6139840Y1108659D01*
X6149136Y1120241D01*
X6156960Y1132840D01*
X6163157Y1146302D01*
X6167628Y1160475D01*
X6170371Y1175054D01*
X6171285Y1189837D01*
X6170371Y1204671D01*
X6167628Y1219250D01*
X6165646Y1225499D01*
X6165189Y1229156D01*
X6166053Y1232763D01*
X6168136Y1235760D01*
X6227572Y1295196D01*
X6230721Y1298600D01*
X6233414Y1302105D01*
X6235750Y1305814D01*
X6237782Y1309725D01*
X6239459Y1313789D01*
X6240780Y1318006D01*
X6241745Y1322324D01*
X6242354Y1326692D01*
X6242558Y1331315D01*
X6242558Y2826410D01*
X6242354Y2831033D01*
X6241745Y2835402D01*
X6240780Y2839720D01*
X6239459Y2843885D01*
X6237782Y2847949D01*
X6235750Y2851861D01*
X6233414Y2855569D01*
X6230721Y2859074D01*
X6227572Y2862478D01*
X6168136Y2921914D01*
X6166053Y2924962D01*
X6165189Y2928518D01*
X6165646Y2932176D01*
X6167628Y2938475D01*
X6170371Y2953054D01*
X6171285Y2967837D01*
X6170371Y2982671D01*
X6167628Y2997250D01*
X6163157Y3011373D01*
X6156960Y3024835D01*
X6149136Y3037484D01*
X6139840Y3049016D01*
X6129172Y3059328D01*
X6117336Y3068269D01*
X6104483Y3075686D01*
X6090869Y3081477D01*
X6076594Y3085541D01*
X6061913Y3087827D01*
X6047079Y3088284D01*
X6032296Y3086912D01*
X6017818Y3083763D01*
X6003848Y3078784D01*
X5990539Y3072180D01*
X5978194Y3064002D01*
X5967577Y3054908D01*
X5963920Y3052927D01*
X5959805Y3052521D01*
X5955842Y3053842D01*
X5952794Y3056636D01*
X5951067Y3060395D01*
X5948832Y3070199D01*
X5943803Y3084322D01*
X5937097Y3097784D01*
X5928817Y3110331D01*
X5919063Y3121812D01*
X5907989Y3131972D01*
X5895797Y3140760D01*
X5882640Y3148025D01*
X5868720Y3153613D01*
X5854192Y3157524D01*
X5839307Y3159658D01*
X5824270Y3159963D01*
X5809284Y3158439D01*
X5794654Y3155137D01*
X5780481Y3150057D01*
X5767019Y3143351D01*
X5754471Y3135071D01*
X5743041Y3125317D01*
X5732830Y3114294D01*
X5724042Y3102102D01*
X5716828Y3088894D01*
X5711190Y3074974D01*
X5707278Y3060446D01*
X5705195Y3045561D01*
X5704890Y3030524D01*
X5706414Y3015589D01*
X5709716Y3000908D01*
X5714746Y2986735D01*
X5721451Y2973324D01*
X5729732Y2960776D01*
X5739485Y2949295D01*
X5750560Y2939135D01*
X5762752Y2930347D01*
X5775909Y2923082D01*
X5789828Y2917444D01*
X5804357Y2913583D01*
X5819241Y2911449D01*
X5834278Y2911144D01*
X5849264Y2912668D01*
X5863894Y2915970D01*
X5878068Y2921000D01*
X5891530Y2927756D01*
X5904077Y2936036D01*
X5915507Y2945790D01*
X5919571Y2948787D01*
X5923838Y2949549D01*
X5928004Y2948482D01*
X5931408Y2945790D01*
X5933338Y2941878D01*
X5935980Y2931312D01*
X5941364Y2917494D01*
X5948375Y2904439D01*
X5956909Y2892298D01*
X5966917Y2881325D01*
X5978194Y2871673D01*
X5990539Y2863494D01*
X6003848Y2856890D01*
X6017818Y2851962D01*
X6032296Y2848762D01*
X6047079Y2847441D01*
X6061913Y2847898D01*
X6076594Y2850134D01*
X6086805Y2853080D01*
X6090361Y2853436D01*
X6093815Y2852521D01*
X6096762Y2850489D01*
X6104077Y2843123D01*
X6106160Y2840126D01*
X6107023Y2836570D01*
X6106566Y2832963D01*
X6104890Y2829712D01*
X6102146Y2827274D01*
X6102146Y2765196D01*
X6131356Y2765196D01*
X6135268Y2764434D01*
X6138519Y2762199D01*
X6140754Y2758948D01*
X6141516Y2755036D01*
X6141516Y2672638D01*
X6140754Y2668778D01*
X6138519Y2665476D01*
X6135268Y2663291D01*
X6131356Y2662478D01*
X6102146Y2662478D01*
X6102146Y2604973D01*
X6104483Y2605989D01*
X6117336Y2613406D01*
X6125210Y2619349D01*
X6129324Y2621229D01*
X6133795Y2621127D01*
X6137757Y2619146D01*
X6140551Y2615590D01*
X6141516Y2611272D01*
X6141516Y2562453D01*
X6140551Y2558084D01*
X6137757Y2554579D01*
X6133795Y2552598D01*
X6129324Y2552496D01*
X6125210Y2554325D01*
X6117336Y2560269D01*
X6104483Y2567686D01*
X6090869Y2573477D01*
X6076594Y2577541D01*
X6061913Y2579827D01*
X6047079Y2580284D01*
X6032296Y2578912D01*
X6017818Y2575763D01*
X6015380Y2574848D01*
X6011621Y2574290D01*
X6007912Y2575153D01*
X6004814Y2577287D01*
X5997397Y2584653D01*
X5995314Y2587701D01*
X5994450Y2591308D01*
X5994908Y2594965D01*
X5996686Y2598216D01*
X5999429Y2600604D01*
X5999429Y2662478D01*
X5937656Y2662478D01*
X5935218Y2659684D01*
X5931966Y2657906D01*
X5928309Y2657449D01*
X5924702Y2658313D01*
X5921654Y2660396D01*
X5189880Y3392220D01*
X5187696Y3395472D01*
X5186934Y3399383D01*
X5186934Y4865116D01*
X5187899Y4869434D01*
X5190642Y4872939D01*
X5195265Y4876749D01*
X5246776Y4928311D01*
X5250891Y4933289D01*
X5254193Y4939436D01*
X5256428Y4942281D01*
X5259578Y4944160D01*
X5263642Y4944821D01*
X5267248Y4944160D01*
X5270347Y4942281D01*
X5272633Y4939436D01*
X5275884Y4933289D01*
X5279999Y4928311D01*
X5331561Y4876749D01*
X5336540Y4872634D01*
X5341823Y4869840D01*
X5347512Y4868113D01*
X5353964Y4867452D01*
X5426811Y4867452D01*
X5433263Y4868113D01*
X5439003Y4869840D01*
X5444236Y4872634D01*
X5449265Y4876749D01*
X5463794Y4891278D01*
X5467045Y4893462D01*
X5470956Y4894224D01*
X5474868Y4893462D01*
X5478119Y4891278D01*
X5480354Y4887976D01*
X5481116Y4884064D01*
X5481116Y4340148D01*
X5481320Y4335526D01*
X5481878Y4331157D01*
X5482844Y4326839D01*
X5484164Y4322673D01*
X5485841Y4318609D01*
X5487873Y4314698D01*
X5490260Y4310989D01*
X5492953Y4307484D01*
X5496052Y4304080D01*
X5553913Y4246219D01*
X5555843Y4243527D01*
X5556758Y4240377D01*
X5556656Y4237075D01*
X5554522Y4226204D01*
X5553608Y4212437D01*
X5554522Y4198670D01*
X5557215Y4185158D01*
X5561634Y4172102D01*
X5567730Y4159707D01*
X5575401Y4148226D01*
X5584494Y4137863D01*
X5594908Y4128770D01*
X5604103Y4122623D01*
X5606491Y4120337D01*
X5608066Y4117441D01*
X5608624Y4114190D01*
X5608624Y3974846D01*
X5608015Y3971442D01*
X5606288Y3968394D01*
X5485130Y3820414D01*
X5482183Y3817924D01*
X5478475Y3816756D01*
X5458307Y3819550D01*
X5443270Y3819855D01*
X5428335Y3818331D01*
X5413654Y3815029D01*
X5399481Y3809949D01*
X5386019Y3803243D01*
X5373522Y3794963D01*
X5362041Y3785209D01*
X5351830Y3774186D01*
X5343042Y3761994D01*
X5335828Y3748786D01*
X5330190Y3734866D01*
X5326329Y3720337D01*
X5324195Y3705453D01*
X5323890Y3690416D01*
X5325414Y3675481D01*
X5328716Y3660800D01*
X5333746Y3646627D01*
X5340451Y3633215D01*
X5348782Y3620668D01*
X5358485Y3609187D01*
X5369560Y3599027D01*
X5381752Y3590239D01*
X5394909Y3582974D01*
X5408879Y3577336D01*
X5423408Y3573475D01*
X5438292Y3571341D01*
X5453278Y3571036D01*
X5468264Y3572560D01*
X5482894Y3575862D01*
X5497068Y3580892D01*
X5510530Y3587648D01*
X5523077Y3595928D01*
X5534507Y3605682D01*
X5544718Y3616706D01*
X5553506Y3628898D01*
X5560771Y3642055D01*
X5566359Y3656025D01*
X5570270Y3670554D01*
X5572353Y3685438D01*
X5572658Y3700475D01*
X5571185Y3715410D01*
X5567883Y3730091D01*
X5561126Y3749294D01*
X5561533Y3753104D01*
X5563362Y3756507D01*
X5697931Y3920845D01*
X5702808Y3927906D01*
X5706516Y3935933D01*
X5708802Y3944416D01*
X5709615Y3953611D01*
X5709615Y4114190D01*
X5710174Y4117441D01*
X5711698Y4120387D01*
X5714136Y4122623D01*
X5723331Y4128770D01*
X5733694Y4137863D01*
X5742787Y4148226D01*
X5750458Y4159707D01*
X5756554Y4172102D01*
X5760974Y4185158D01*
X5763666Y4198670D01*
X5764580Y4212437D01*
X5763666Y4226204D01*
X5760974Y4239768D01*
X5756554Y4252823D01*
X5750458Y4265168D01*
X5742787Y4276648D01*
X5733694Y4287062D01*
X5723331Y4296156D01*
X5711850Y4303826D01*
X5699455Y4309922D01*
X5686399Y4314342D01*
X5672886Y4317034D01*
X5659120Y4317949D01*
X5645353Y4317034D01*
X5634482Y4314901D01*
X5631180Y4314748D01*
X5628030Y4315714D01*
X5625338Y4317644D01*
X5585104Y4357878D01*
X5582920Y4361180D01*
X5582158Y4365040D01*
X5582158Y4860290D01*
X5582818Y4863998D01*
X5584850Y4867198D01*
X5587847Y4869434D01*
X5591505Y4870399D01*
X5595264Y4869992D01*
X5601512Y4868113D01*
X5607964Y4867452D01*
X5680811Y4867452D01*
X5687263Y4868113D01*
X5693003Y4869840D01*
X5698236Y4872634D01*
X5703265Y4876749D01*
X5754776Y4928311D01*
X5758891Y4933289D01*
X5762193Y4939436D01*
X5764682Y4942433D01*
X5764225Y4943195D01*
X5763768Y4947361D01*
X5764072Y4950714D01*
X5764072Y5023561D01*
X5763768Y5026914D01*
X5764428Y5031994D01*
X5762193Y5034838D01*
X5758891Y5040985D01*
X5754776Y5046014D01*
X5703265Y5097526D01*
X5698642Y5101336D01*
X5695899Y5104841D01*
X5694934Y5109210D01*
X5694934Y5147208D01*
X5694730Y5151831D01*
X5694121Y5156200D01*
X5693156Y5160518D01*
X5691835Y5164683D01*
X5690158Y5168747D01*
X5688126Y5172659D01*
X5685790Y5176367D01*
X5683097Y5179872D01*
X5679948Y5183276D01*
X5624677Y5238546D01*
X5620105Y5242661D01*
X5617870Y5244338D01*
X5612739Y5247487D01*
X5610250Y5248757D01*
X5604662Y5250992D01*
X5601970Y5251805D01*
X5596077Y5253024D01*
X5593334Y5253329D01*
X5587136Y5253532D01*
X5530646Y5252008D01*
X5522925Y5251246D01*
X5514340Y5248960D01*
X5506415Y5245252D01*
X5499201Y5240172D01*
X5492953Y5233974D01*
X5487924Y5226761D01*
X5484215Y5218785D01*
X5481929Y5210302D01*
X5481116Y5201107D01*
X5481116Y5187492D01*
X5480354Y5183632D01*
X5478119Y5180330D01*
X5474868Y5178145D01*
X5470956Y5177332D01*
X5440934Y5177332D01*
X5437022Y5178145D01*
X5433771Y5180330D01*
X5375452Y5238597D01*
X5372049Y5241747D01*
X5368544Y5244439D01*
X5364835Y5246776D01*
X5360924Y5248808D01*
X5356860Y5250484D01*
X5352694Y5251805D01*
X5348376Y5252770D01*
X5344007Y5253380D01*
X5339384Y5253532D01*
X5215585Y5253532D01*
X5211724Y5254345D01*
X5208422Y5256530D01*
X5206187Y5259832D01*
X5205425Y5263692D01*
X5206187Y5267604D01*
X5208422Y5270906D01*
X5246776Y5309311D01*
X5250891Y5314289D01*
X5253736Y5319572D01*
X5255463Y5325262D01*
X5256072Y5331714D01*
X5256072Y5404561D01*
X5255463Y5411012D01*
X5253736Y5416753D01*
X5250891Y5421985D01*
X5246776Y5427014D01*
X5195265Y5478526D01*
X5190236Y5482640D01*
X5184089Y5485942D01*
X5181244Y5488178D01*
X5179364Y5491327D01*
X5178755Y5495391D01*
X5179364Y5498998D01*
X5181244Y5502097D01*
X5184089Y5504383D01*
X5190236Y5507634D01*
X5195265Y5511749D01*
X5246776Y5563311D01*
X5250891Y5568289D01*
X5253736Y5573572D01*
X5255463Y5579262D01*
X5256072Y5585714D01*
X5256072Y5658561D01*
X5255463Y5665012D01*
X5253736Y5670753D01*
X5250891Y5675985D01*
X5246776Y5681014D01*
X5195265Y5732526D01*
X5190236Y5736640D01*
X5185003Y5739485D01*
X5179263Y5741212D01*
X5172811Y5741822D01*
X5099964Y5741822D01*
X5093512Y5741212D01*
X5087823Y5739485D01*
X5082540Y5736640D01*
X5077561Y5732526D01*
X5025999Y5681014D01*
X5021884Y5675985D01*
X5018633Y5669838D01*
X5016347Y5666994D01*
X5013248Y5665114D01*
X5009134Y5664504D01*
X5005578Y5665114D01*
X5002428Y5666994D01*
X5000193Y5669838D01*
X4996891Y5675985D01*
X4992776Y5681014D01*
X4941265Y5732526D01*
X4936236Y5736640D01*
X4931003Y5739485D01*
X4925263Y5741212D01*
X4918811Y5741822D01*
X4845964Y5741822D01*
X4839512Y5741212D01*
X4833823Y5739485D01*
X4828540Y5736640D01*
X4823561Y5732526D01*
X4771999Y5681014D01*
X4767884Y5675985D01*
X4764633Y5669838D01*
X4762347Y5666994D01*
X4759248Y5665114D01*
X4755134Y5664504D01*
X4751578Y5665114D01*
X4748428Y5666994D01*
X4746193Y5669838D01*
X4742891Y5675985D01*
X4738776Y5681014D01*
X4687265Y5732526D01*
X4682236Y5736640D01*
X4677003Y5739485D01*
X4671263Y5741212D01*
X4664811Y5741822D01*
X4591964Y5741822D01*
X4585512Y5741212D01*
X4579823Y5739485D01*
X4574540Y5736640D01*
X4569561Y5732526D01*
X4517999Y5681014D01*
X4513884Y5675985D01*
X4511090Y5670753D01*
X4509363Y5665012D01*
X4508703Y5658561D01*
X4508703Y5585714D01*
X4509363Y5579262D01*
X4511090Y5573572D01*
X4513884Y5568289D01*
X4517999Y5563311D01*
X4569561Y5511749D01*
X4574540Y5507634D01*
X4580686Y5504383D01*
X4583531Y5502097D01*
X4585411Y5498998D01*
X4586071Y5494883D01*
X4585411Y5491327D01*
X4583531Y5488178D01*
X4580686Y5485942D01*
X4574540Y5482640D01*
X4569561Y5478526D01*
X4517999Y5427014D01*
X4513884Y5421985D01*
X4511090Y5416753D01*
X4509363Y5411012D01*
X4508703Y5404561D01*
X4508703Y5331714D01*
X4509363Y5325262D01*
X4511090Y5319572D01*
X4513884Y5314289D01*
X4517999Y5309311D01*
X4556404Y5270906D01*
X4558588Y5267604D01*
X4559350Y5263692D01*
X4558588Y5259832D01*
X4556404Y5256530D01*
X4553102Y5254345D01*
X4549190Y5253532D01*
X1848357Y5253532D01*
X1844446Y5254345D01*
X1841195Y5256530D01*
X1159154Y5938570D01*
X1156970Y5941822D01*
X1156208Y5945733D01*
X1156208Y6450482D01*
X1156970Y6454394D01*
X1159154Y6457645D01*
X1162456Y6459880D01*
X1166368Y6460642D01*
X1204366Y6460642D01*
X1208684Y6459677D01*
X1212189Y6456934D01*
X1215999Y6452311D01*
X1267561Y6400749D01*
X1272540Y6396634D01*
X1277823Y6393840D01*
X1283512Y6392113D01*
X1289964Y6391452D01*
X1362811Y6391452D01*
X1369263Y6392113D01*
X1375003Y6393840D01*
X1380236Y6396634D01*
X1385265Y6400749D01*
X1436776Y6452311D01*
X1440891Y6457289D01*
X1444193Y6463436D01*
X1446682Y6466433D01*
X1446225Y6467195D01*
X1445768Y6471361D01*
X1446072Y6474714D01*
X1446072Y6547561D01*
X1445768Y6550914D01*
X1446428Y6555994D01*
X1444193Y6558838D01*
X1440891Y6564985D01*
X1436776Y6570014D01*
X1385265Y6621525D01*
X1380236Y6625640D01*
X1375003Y6628485D01*
X1369263Y6630212D01*
X1362811Y6630822D01*
X1289964Y6630822D01*
X1283512Y6630212D01*
X1277823Y6628485D01*
X1272540Y6625640D01*
X1267561Y6621525D01*
X1215999Y6570014D01*
X1212189Y6565392D01*
X1208684Y6562648D01*
X1204366Y6561632D01*
X1106119Y6561632D01*
X1096924Y6560870D01*
X1088390Y6558584D01*
X1080465Y6554876D01*
X1073251Y6549796D01*
X1067003Y6543598D01*
X1061974Y6536385D01*
X1058265Y6528409D01*
X1055979Y6519926D01*
X1055166Y6510731D01*
X1055166Y5920841D01*
X1055370Y5916218D01*
X1055928Y5911850D01*
X1056894Y5907532D01*
X1058214Y5903315D01*
X1059891Y5899251D01*
X1061923Y5895340D01*
X1064310Y5891631D01*
X1067003Y5888126D01*
X1070102Y5884722D01*
X1787347Y5167477D01*
X1790750Y5164378D01*
X1794256Y5161686D01*
X1797964Y5159298D01*
X1801875Y5157266D01*
X1805939Y5155590D01*
X1810156Y5154269D01*
X1814474Y5153304D01*
X1818843Y5152745D01*
X1823466Y5152542D01*
X5314492Y5152542D01*
X5318353Y5151780D01*
X5321655Y5149545D01*
X5348986Y5122265D01*
X5351221Y5118760D01*
X5351932Y5114696D01*
X5350916Y5110632D01*
X5348376Y5107330D01*
X5344718Y5105349D01*
X5341823Y5104485D01*
X5336540Y5101640D01*
X5331561Y5097526D01*
X5279999Y5046014D01*
X5275884Y5040985D01*
X5272633Y5034838D01*
X5270347Y5031994D01*
X5267248Y5030114D01*
X5263134Y5029504D01*
X5259578Y5030114D01*
X5256428Y5031994D01*
X5254193Y5034838D01*
X5250891Y5040985D01*
X5246776Y5046014D01*
X5195265Y5097526D01*
X5190236Y5101640D01*
X5185003Y5104485D01*
X5179263Y5106212D01*
X5172811Y5106822D01*
X5099964Y5106822D01*
X5093512Y5106212D01*
X5087823Y5104485D01*
X5082540Y5101640D01*
X5077561Y5097526D01*
X5025999Y5046014D01*
X5021884Y5040985D01*
X5018633Y5034838D01*
X5016347Y5031994D01*
X5013248Y5030114D01*
X5009134Y5029504D01*
X5005578Y5030114D01*
X5002428Y5031994D01*
X5000193Y5034838D01*
X4996891Y5040985D01*
X4992776Y5046014D01*
X4941265Y5097526D01*
X4936236Y5101640D01*
X4931003Y5104485D01*
X4925263Y5106212D01*
X4918811Y5106822D01*
X4845964Y5106822D01*
X4839512Y5106212D01*
X4833823Y5104485D01*
X4828540Y5101640D01*
X4823561Y5097526D01*
X4771999Y5046014D01*
X4767884Y5040985D01*
X4764633Y5034838D01*
X4762347Y5031994D01*
X4759248Y5030114D01*
X4755134Y5029504D01*
X4751578Y5030114D01*
X4748428Y5031994D01*
X4746193Y5034838D01*
X4742891Y5040985D01*
X4738776Y5046014D01*
X4687265Y5097526D01*
X4682236Y5101640D01*
X4677003Y5104485D01*
X4671263Y5106212D01*
X4664811Y5106822D01*
X4591964Y5106822D01*
X4585512Y5106212D01*
X4579823Y5104485D01*
X4574540Y5101640D01*
X4569561Y5097526D01*
X4517999Y5046014D01*
X4513884Y5040985D01*
X4510633Y5034838D01*
X4508347Y5031994D01*
X4505248Y5030114D01*
X4501134Y5029504D01*
X4497578Y5030114D01*
X4494428Y5031994D01*
X4492193Y5034838D01*
X4488891Y5040985D01*
X4484776Y5046014D01*
X4433265Y5097526D01*
X4428236Y5101640D01*
X4423003Y5104485D01*
X4417263Y5106212D01*
X4410811Y5106822D01*
X4337964Y5106822D01*
X4331512Y5106212D01*
X4325823Y5104485D01*
X4320540Y5101640D01*
X4315561Y5097526D01*
X4263999Y5046014D01*
X4259884Y5040985D01*
X4256633Y5034838D01*
X4254347Y5031994D01*
X4251248Y5030114D01*
X4247134Y5029504D01*
X4243578Y5030114D01*
X4240428Y5031994D01*
X4238193Y5034838D01*
X4234891Y5040985D01*
X4230776Y5046014D01*
X4179265Y5097526D01*
X4174236Y5101640D01*
X4169003Y5104485D01*
X4163263Y5106212D01*
X4156811Y5106822D01*
X4083964Y5106822D01*
X4077512Y5106212D01*
X4071823Y5104485D01*
X4066540Y5101640D01*
X4061561Y5097526D01*
X4009999Y5046014D01*
X4005884Y5040985D01*
X4002633Y5034838D01*
X4000347Y5031994D01*
X3997248Y5030114D01*
X3993134Y5029504D01*
X3989578Y5030114D01*
X3986428Y5031994D01*
X3984193Y5034838D01*
X3980891Y5040985D01*
X3976776Y5046014D01*
X3925265Y5097526D01*
X3920236Y5101640D01*
X3915003Y5104485D01*
X3909263Y5106212D01*
X3902811Y5106822D01*
X3829964Y5106822D01*
X3823512Y5106212D01*
X3817823Y5104485D01*
X3812540Y5101640D01*
X3807561Y5097526D01*
X3755999Y5046014D01*
X3751884Y5040985D01*
X3748633Y5034838D01*
X3746347Y5031994D01*
X3743248Y5030114D01*
X3739134Y5029504D01*
X3735578Y5030114D01*
X3732428Y5031994D01*
X3730193Y5034838D01*
X3726891Y5040985D01*
X3722776Y5046014D01*
X3671265Y5097526D01*
X3666236Y5101640D01*
X3661003Y5104485D01*
X3655263Y5106212D01*
X3648811Y5106822D01*
X3575964Y5106822D01*
X3569512Y5106212D01*
X3563823Y5104485D01*
X3558540Y5101640D01*
X3553561Y5097526D01*
X3501999Y5046014D01*
X3497884Y5040985D01*
X3494633Y5034838D01*
X3492347Y5031994D01*
X3489248Y5030114D01*
X3485134Y5029504D01*
X3481578Y5030114D01*
X3478428Y5031994D01*
X3476193Y5034838D01*
X3472891Y5040985D01*
X3468776Y5046014D01*
X3417265Y5097526D01*
X3412236Y5101640D01*
X3407003Y5104485D01*
X3401263Y5106212D01*
X3394811Y5106822D01*
X3321964Y5106822D01*
X3315512Y5106212D01*
X3309823Y5104485D01*
X3304540Y5101640D01*
X3299561Y5097526D01*
X3247999Y5046014D01*
X3243884Y5040985D01*
X3240633Y5034838D01*
X3238347Y5031994D01*
X3235248Y5030114D01*
X3231134Y5029504D01*
X3227578Y5030114D01*
X3224428Y5031994D01*
X3222193Y5034838D01*
X3218891Y5040985D01*
X3214776Y5046014D01*
X3163265Y5097526D01*
X3158236Y5101640D01*
X3153003Y5104485D01*
X3147263Y5106212D01*
X3140811Y5106822D01*
X3067964Y5106822D01*
X3061512Y5106212D01*
X3055823Y5104485D01*
X3050540Y5101640D01*
X3045561Y5097526D01*
X2993999Y5046014D01*
X2989884Y5040985D01*
X2986633Y5034838D01*
X2984347Y5031994D01*
X2981248Y5030114D01*
X2977134Y5029504D01*
X2973578Y5030114D01*
X2970428Y5031994D01*
X2968193Y5034838D01*
X2964891Y5040985D01*
X2960776Y5046014D01*
X2909265Y5097526D01*
X2904236Y5101640D01*
X2899003Y5104485D01*
X2893263Y5106212D01*
X2886811Y5106822D01*
X2813964Y5106822D01*
X2807512Y5106212D01*
X2801823Y5104485D01*
X2796540Y5101640D01*
X2791561Y5097526D01*
X2739999Y5046014D01*
X2735884Y5040985D01*
X2732633Y5034838D01*
X2730347Y5031994D01*
X2727248Y5030114D01*
X2723134Y5029504D01*
X2719578Y5030114D01*
X2716428Y5031994D01*
X2714193Y5034838D01*
X2710891Y5040985D01*
X2706776Y5046014D01*
X2655265Y5097526D01*
X2650236Y5101640D01*
X2645003Y5104485D01*
X2639263Y5106212D01*
X2632811Y5106822D01*
X2559964Y5106822D01*
X2553512Y5106212D01*
X2547823Y5104485D01*
X2542540Y5101640D01*
X2537561Y5097526D01*
X2485999Y5046014D01*
X2481884Y5040985D01*
X2478633Y5034838D01*
X2476347Y5031994D01*
X2473248Y5030114D01*
X2469134Y5029504D01*
X2465578Y5030114D01*
X2462428Y5031994D01*
X2460193Y5034838D01*
X2456891Y5040985D01*
X2452776Y5046014D01*
X2401265Y5097526D01*
X2396236Y5101640D01*
X2391003Y5104485D01*
X2385263Y5106212D01*
X2378811Y5106822D01*
X2305964Y5106822D01*
X2299512Y5106212D01*
X2293823Y5104485D01*
X2288540Y5101640D01*
X2283561Y5097526D01*
X2231999Y5046014D01*
X2227884Y5040985D01*
X2224633Y5034838D01*
X2222347Y5031994D01*
X2219248Y5030114D01*
X2215134Y5029504D01*
X2211578Y5030114D01*
X2208428Y5031994D01*
X2206193Y5034838D01*
X2202891Y5040985D01*
X2198776Y5046014D01*
X2147265Y5097526D01*
X2142236Y5101640D01*
X2137003Y5104485D01*
X2131263Y5106212D01*
X2124811Y5106822D01*
X2051964Y5106822D01*
X2045512Y5106212D01*
X2039823Y5104485D01*
X2034539Y5101640D01*
X2029561Y5097526D01*
X1977999Y5046014D01*
X1973884Y5040985D01*
X1970633Y5034838D01*
X1968347Y5031994D01*
X1965248Y5030114D01*
X1961134Y5029504D01*
X1957578Y5030114D01*
X1954428Y5031994D01*
X1952193Y5034838D01*
X1948891Y5040985D01*
X1944776Y5046014D01*
X1893265Y5097526D01*
X1888236Y5101640D01*
X1883003Y5104485D01*
X1877263Y5106212D01*
X1870811Y5106822D01*
X1797964Y5106822D01*
X1791512Y5106212D01*
X1785823Y5104485D01*
X1780539Y5101640D01*
X1775561Y5097526D01*
X1723999Y5046014D01*
X1719884Y5040985D01*
X1716633Y5034838D01*
X1714347Y5031994D01*
X1711248Y5030114D01*
X1707134Y5029504D01*
X1703578Y5030114D01*
X1700428Y5031994D01*
X1698193Y5034838D01*
X1694891Y5040985D01*
X1690776Y5046014D01*
X1639265Y5097526D01*
X1634236Y5101640D01*
X1629003Y5104485D01*
X1623263Y5106212D01*
X1616811Y5106822D01*
X1543964Y5106822D01*
X1537512Y5106212D01*
X1531823Y5104485D01*
X1526540Y5101640D01*
X1521561Y5097526D01*
X1469999Y5046014D01*
X1465884Y5040985D01*
X1462633Y5034838D01*
X1460347Y5031994D01*
X1457248Y5030114D01*
X1453134Y5029504D01*
X1449578Y5030114D01*
X1446428Y5031994D01*
X1444193Y5034838D01*
X1440891Y5040985D01*
X1436776Y5046014D01*
X1385265Y5097526D01*
X1380236Y5101640D01*
X1375003Y5104485D01*
X1369263Y5106212D01*
X1362811Y5106822D01*
X1289964Y5106822D01*
X1283512Y5106212D01*
X1277823Y5104485D01*
X1272540Y5101640D01*
X1267561Y5097526D01*
X1215999Y5046014D01*
X1211884Y5040985D01*
X1209090Y5035753D01*
X1207363Y5030012D01*
X1206703Y5023561D01*
X1206703Y4950714D01*
X1207363Y4944262D01*
X1209090Y4938572D01*
X1211884Y4933289D01*
X1215999Y4928311D01*
X1267104Y4877206D01*
X1269288Y4873904D01*
X1270050Y4869992D01*
X1269288Y4866132D01*
X1267104Y4862830D01*
X1263802Y4860645D01*
X1259890Y4859832D01*
X1054608Y4859832D01*
X1050696Y4860645D01*
X1047445Y4862830D01*
X879754Y5030520D01*
X877569Y5033772D01*
X876808Y5037683D01*
X876808Y7645806D01*
X877569Y7649667D01*
X879754Y7652969D01*
X1030935Y7804150D01*
X1034237Y7806334D01*
X1038098Y7807096D01*
X1108659Y7807096D01*
X1108659Y7877657D01*
X1109421Y7881569D01*
X1111656Y7884820D01*
X1114094Y7887258D01*
X1117092Y7889392D01*
X1120698Y7890256D01*
X1124356Y7889798D01*
X1130655Y7887766D01*
X1145235Y7885074D01*
X1160018Y7884159D01*
X1174851Y7885074D01*
X1189431Y7887766D01*
X1203553Y7892288D01*
X1217066Y7898485D01*
X1229664Y7906308D01*
X1241247Y7915605D01*
X1251559Y7926273D01*
X1260500Y7938109D01*
X1267917Y7950962D01*
X1273708Y7964627D01*
X1277772Y7978902D01*
X1280058Y7993532D01*
X1280515Y8008366D01*
X1279144Y8023148D01*
X1275943Y8037677D01*
X1271016Y8051647D01*
X1264412Y8064957D01*
X1256233Y8077301D01*
X1246581Y8088579D01*
X1235608Y8098586D01*
X1223467Y8107172D01*
X1210411Y8114182D01*
X1196594Y8119516D01*
X1182166Y8123174D01*
X1167434Y8124952D01*
X1152601Y8124952D01*
X1137869Y8123174D01*
X1123492Y8119516D01*
X1109675Y8114182D01*
X1096568Y8107172D01*
X1084478Y8098586D01*
X1073505Y8088579D01*
X1063853Y8077301D01*
X1055624Y8064957D01*
X1049020Y8051647D01*
X1044092Y8037677D01*
X1040942Y8023148D01*
X1039571Y8008366D01*
X1040028Y7993532D01*
X1042314Y7978902D01*
X1045210Y7968640D01*
X1045565Y7965084D01*
X1044651Y7961630D01*
X1042619Y7958683D01*
X790702Y7706766D01*
X787603Y7703362D01*
X784910Y7699857D01*
X782523Y7696149D01*
X780491Y7692237D01*
X778814Y7688173D01*
X777494Y7684008D01*
X776528Y7679690D01*
X775970Y7675321D01*
X775766Y7670698D01*
X775766Y5012791D01*
X775970Y5008168D01*
X776528Y5003800D01*
X777494Y4999482D01*
X778814Y4995265D01*
X780491Y4991201D01*
X782523Y4987290D01*
X784910Y4983581D01*
X787603Y4980076D01*
X790702Y4976672D01*
X993597Y4773777D01*
X997000Y4770678D01*
X1000506Y4767986D01*
X1004214Y4765598D01*
X1008126Y4763566D01*
X1012190Y4761890D01*
X1016406Y4760569D01*
X1020724Y4759604D01*
X1025093Y4759045D01*
X1029716Y4758842D01*
X2341981Y4758842D01*
X2351176Y4759655D01*
X2359660Y4761941D01*
X2367635Y4765649D01*
X2374849Y4770678D01*
X2381046Y4776927D01*
X2386126Y4784140D01*
X2389835Y4792065D01*
X2392121Y4800600D01*
X2392934Y4809794D01*
X2392934Y4865116D01*
X2393899Y4869434D01*
X2396642Y4872939D01*
X2401265Y4876749D01*
X2452776Y4928311D01*
X2456891Y4933289D01*
X2460193Y4939436D01*
X2462428Y4942281D01*
X2465578Y4944160D01*
X2469642Y4944821D01*
X2473248Y4944160D01*
X2476347Y4942281D01*
X2478633Y4939436D01*
X2481884Y4933289D01*
X2485999Y4928311D01*
X2537561Y4876749D01*
X2542540Y4872634D01*
X2547823Y4869840D01*
X2553512Y4868113D01*
X2559964Y4867452D01*
X2632811Y4867452D01*
X2639263Y4868113D01*
X2645003Y4869840D01*
X2650236Y4872634D01*
X2655265Y4876749D01*
X2706776Y4928311D01*
X2710891Y4933289D01*
X2714193Y4939436D01*
X2716428Y4942281D01*
X2719578Y4944160D01*
X2723642Y4944821D01*
X2727248Y4944160D01*
X2730347Y4942281D01*
X2732633Y4939436D01*
X2735884Y4933289D01*
X2739999Y4928311D01*
X2791561Y4876749D01*
X2796540Y4872634D01*
X2801823Y4869840D01*
X2807512Y4868113D01*
X2813964Y4867452D01*
X2886811Y4867452D01*
X2893263Y4868113D01*
X2899003Y4869840D01*
X2904236Y4872634D01*
X2909265Y4876749D01*
X2960776Y4928311D01*
X2964891Y4933289D01*
X2968193Y4939436D01*
X2970428Y4942281D01*
X2973578Y4944160D01*
X2977642Y4944821D01*
X2981248Y4944160D01*
X2984347Y4942281D01*
X2986633Y4939436D01*
X2989884Y4933289D01*
X2993999Y4928311D01*
X3045561Y4876749D01*
X3050540Y4872634D01*
X3055823Y4869840D01*
X3061512Y4868113D01*
X3067964Y4867452D01*
X3140811Y4867452D01*
X3147263Y4868113D01*
X3153003Y4869840D01*
X3158236Y4872634D01*
X3163265Y4876749D01*
X3214776Y4928311D01*
X3218891Y4933289D01*
X3222193Y4939436D01*
X3224428Y4942281D01*
X3227578Y4944160D01*
X3231642Y4944821D01*
X3235248Y4944160D01*
X3238347Y4942281D01*
X3240633Y4939436D01*
X3243884Y4933289D01*
X3247999Y4928311D01*
X3299561Y4876749D01*
X3304540Y4872634D01*
X3309823Y4869840D01*
X3315512Y4868113D01*
X3321964Y4867452D01*
X3394811Y4867452D01*
X3401263Y4868113D01*
X3407003Y4869840D01*
X3412236Y4872634D01*
X3417265Y4876749D01*
X3468776Y4928311D01*
X3472891Y4933289D01*
X3476193Y4939436D01*
X3478428Y4942281D01*
X3481578Y4944160D01*
X3485642Y4944821D01*
X3489248Y4944160D01*
X3492347Y4942281D01*
X3494633Y4939436D01*
X3497884Y4933289D01*
X3501999Y4928311D01*
X3553561Y4876749D01*
X3557320Y4872532D01*
X3558387Y4868468D01*
X3557727Y4864303D01*
X3555441Y4860798D01*
X2795879Y4101236D01*
X2792577Y4099051D01*
X2788716Y4098239D01*
X1309522Y4098239D01*
X1304899Y4098086D01*
X1300530Y4097477D01*
X1296212Y4096512D01*
X1291996Y4095191D01*
X1287932Y4093514D01*
X1284020Y4091482D01*
X1280312Y4089146D01*
X1276807Y4086453D01*
X1273403Y4083304D01*
X479551Y3289452D01*
X476453Y3286048D01*
X473760Y3282543D01*
X471373Y3278835D01*
X469341Y3274923D01*
X467664Y3270859D01*
X466343Y3266694D01*
X465378Y3262376D01*
X464820Y3258007D01*
X464616Y3253384D01*
X464616Y2041753D01*
X464820Y2037130D01*
X465378Y2032762D01*
X466343Y2028443D01*
X467664Y2024278D01*
X469341Y2020214D01*
X471373Y2016302D01*
X473760Y2012594D01*
X476453Y2009089D01*
X479551Y2005685D01*
X733298Y1751939D01*
X735279Y1749094D01*
X736244Y1745742D01*
X735990Y1742287D01*
X732383Y1728012D01*
X730554Y1713280D01*
X730554Y1698447D01*
X732383Y1683715D01*
X735990Y1669338D01*
X741375Y1655470D01*
X748385Y1642414D01*
X756920Y1630324D01*
X766927Y1619351D01*
X778205Y1609699D01*
X790549Y1601520D01*
X803859Y1594916D01*
X817829Y1589989D01*
X832307Y1586788D01*
X847090Y1585417D01*
X861923Y1585874D01*
X876604Y1588160D01*
X886815Y1591056D01*
X890371Y1591411D01*
X893826Y1590497D01*
X896772Y1588465D01*
X1692910Y792327D01*
X1696313Y789228D01*
X1699818Y786536D01*
X1703527Y784148D01*
X1707438Y782116D01*
X1711502Y780440D01*
X1715668Y779119D01*
X1719986Y778154D01*
X1724355Y777595D01*
X1728978Y777392D01*
X2204008Y777392D01*
X2208631Y777595D01*
X2213000Y778154D01*
X2217318Y779119D01*
X2221484Y780440D01*
X2225548Y782116D01*
X2229459Y784148D01*
X2233168Y786536D01*
X2236673Y789228D01*
X2240076Y792327D01*
X2838145Y1390345D01*
X2841396Y1392580D01*
X2845308Y1393342D01*
X5935370Y1393342D01*
X5938926Y1392682D01*
X5942025Y1390853D01*
X5944311Y1388008D01*
X5948375Y1380439D01*
X5956909Y1368298D01*
X5966917Y1357376D01*
X5978194Y1347724D01*
X5990539Y1339494D01*
X6003848Y1332890D01*
X6017818Y1327962D01*
X6023254Y1326794D01*
X6026810Y1325219D01*
X6029553Y1322425D01*
X6031026Y1318818D01*
X6031026Y1314907D01*
X6029553Y1311300D01*
X6026810Y1308506D01*
X6023254Y1306931D01*
X6017818Y1305763D01*
X6003848Y1300835D01*
X5990539Y1294180D01*
X5978194Y1286002D01*
X5966917Y1276350D01*
X5956909Y1265377D01*
X5948375Y1253286D01*
X5944311Y1245717D01*
X5942025Y1242872D01*
X5938926Y1240993D01*
X5935319Y1240332D01*
X5906516Y1240332D01*
X5901893Y1240180D01*
X5897524Y1239570D01*
X5893206Y1238605D01*
X5888990Y1237284D01*
X5884926Y1235608D01*
X5881014Y1233576D01*
X5877306Y1231239D01*
X5873800Y1228547D01*
X5870397Y1225397D01*
X5672429Y1027430D01*
X5669127Y1025245D01*
X5665266Y1024432D01*
X2906979Y1024432D01*
X2903169Y1025194D01*
X2899968Y1027277D01*
X2889351Y1044651D01*
X2880055Y1056487D01*
X2869438Y1067104D01*
X2857601Y1076401D01*
X2844749Y1084173D01*
X2831033Y1090320D01*
X2816707Y1094790D01*
X2801924Y1097534D01*
X2786888Y1098397D01*
X2771902Y1097534D01*
X2757119Y1094790D01*
X2742742Y1090320D01*
X2729077Y1084173D01*
X2716174Y1076401D01*
X2704338Y1067104D01*
X2693720Y1056487D01*
X2684475Y1044651D01*
X2676702Y1031798D01*
X2670505Y1018082D01*
X2666034Y1003757D01*
X2663342Y988974D01*
X2662428Y973937D01*
X2663342Y958951D01*
X2666034Y944168D01*
X2668879Y935075D01*
X2669336Y931418D01*
X2668473Y927862D01*
X2666390Y924864D01*
X2470505Y728980D01*
X2467203Y726795D01*
X2463342Y725982D01*
X1181608Y725982D01*
X1177696Y726795D01*
X1174445Y728980D01*
X416204Y1487220D01*
X414020Y1490472D01*
X413258Y1494383D01*
X413258Y7717942D01*
X414020Y7721803D01*
X416204Y7725105D01*
X1174445Y8483295D01*
X1177696Y8485530D01*
X1181608Y8486292D01*
X4025442Y8486292D01*
X4029303Y8485530D01*
X4032605Y8483295D01*
X4618278Y7897622D01*
X4620361Y7894624D01*
X4621225Y7891018D01*
X4620768Y7887360D01*
X4619040Y7884159D01*
X4616246Y7881721D01*
X4616246Y7819796D01*
X4678070Y7819796D01*
X4680508Y7822590D01*
X4683760Y7824368D01*
X4687417Y7824825D01*
X4691024Y7823962D01*
X4694021Y7821879D01*
X4701540Y7814360D01*
X4703622Y7811312D01*
X4704486Y7807756D01*
X4704029Y7804099D01*
X4702048Y7797850D01*
X4699304Y7783271D01*
X4698390Y7768437D01*
X4699304Y7753654D01*
X4702048Y7739075D01*
X4706569Y7724902D01*
X4712766Y7711440D01*
X4720539Y7698841D01*
X4729835Y7687259D01*
X4740503Y7676946D01*
X4752340Y7668006D01*
X4765192Y7660589D01*
X4778857Y7654798D01*
X4791456Y7651242D01*
X4795316Y7649159D01*
X4797907Y7645704D01*
X4798872Y7641437D01*
X4797907Y7637221D01*
X4795316Y7633716D01*
X4791456Y7631684D01*
X4778857Y7628077D01*
X4765192Y7622286D01*
X4752340Y7614869D01*
X4740503Y7605928D01*
X4729835Y7595616D01*
X4720539Y7584084D01*
X4712766Y7571435D01*
X4706569Y7557973D01*
X4700371Y7538974D01*
X4697679Y7536129D01*
X4694072Y7534554D01*
X4690160Y7534452D01*
X4686503Y7535824D01*
X4683658Y7538466D01*
X4681982Y7541971D01*
X4679696Y7550962D01*
X4674362Y7564831D01*
X4667351Y7577886D01*
X4658766Y7589977D01*
X4648758Y7600950D01*
X4637532Y7610602D01*
X4625136Y7618780D01*
X4611878Y7625384D01*
X4597857Y7630363D01*
X4583379Y7633512D01*
X4568596Y7634884D01*
X4553762Y7634427D01*
X4539132Y7632141D01*
X4524857Y7628077D01*
X4511192Y7622286D01*
X4498340Y7614869D01*
X4486503Y7605928D01*
X4475835Y7595616D01*
X4466539Y7584084D01*
X4458766Y7571435D01*
X4452569Y7557973D01*
X4446371Y7538974D01*
X4443679Y7536129D01*
X4440072Y7534554D01*
X4436160Y7534452D01*
X4432503Y7535824D01*
X4429658Y7538466D01*
X4427982Y7541971D01*
X4425696Y7550962D01*
X4420362Y7564831D01*
X4413351Y7577886D01*
X4404766Y7589977D01*
X4394758Y7600950D01*
X4383532Y7610602D01*
X4371136Y7618780D01*
X4357878Y7625384D01*
X4343857Y7630363D01*
X4338472Y7631531D01*
X4334865Y7633055D01*
X4332122Y7635900D01*
X4330649Y7639507D01*
X4330649Y7643418D01*
X4332122Y7647025D01*
X4334865Y7649819D01*
X4338472Y7651394D01*
X4343857Y7652562D01*
X4357878Y7657490D01*
X4371136Y7664094D01*
X4383532Y7672273D01*
X4394758Y7681925D01*
X4404766Y7692898D01*
X4413351Y7705039D01*
X4420362Y7718094D01*
X4425696Y7731912D01*
X4429353Y7746288D01*
X4431182Y7761020D01*
X4431182Y7775854D01*
X4429353Y7790586D01*
X4425696Y7804962D01*
X4420362Y7818831D01*
X4413351Y7831886D01*
X4404766Y7843977D01*
X4394758Y7854950D01*
X4383532Y7864602D01*
X4371136Y7872780D01*
X4357878Y7879384D01*
X4343857Y7884363D01*
X4329379Y7887512D01*
X4314596Y7888884D01*
X4299762Y7888427D01*
X4285132Y7886141D01*
X4274921Y7883245D01*
X4271314Y7882890D01*
X4267860Y7883804D01*
X4264914Y7885836D01*
X3819702Y8331047D01*
X3816299Y8334197D01*
X3812794Y8336889D01*
X3809085Y8339226D01*
X3805174Y8341258D01*
X3801110Y8342934D01*
X3796944Y8344255D01*
X3792626Y8345220D01*
X3788257Y8345830D01*
X3783634Y8345982D01*
X3049016Y8345982D01*
X3044393Y8345830D01*
X3040024Y8345220D01*
X3035706Y8344255D01*
X3031490Y8342934D01*
X3027426Y8341258D01*
X3023514Y8339226D01*
X3019806Y8336889D01*
X3016300Y8334197D01*
X3012897Y8331047D01*
X2810002Y8128152D01*
X2806903Y8124748D01*
X2804210Y8121243D01*
X2801823Y8117535D01*
X2799791Y8113623D01*
X2798114Y8109559D01*
X2796794Y8105394D01*
X2795828Y8101075D01*
X2795270Y8096707D01*
X2795066Y8092084D01*
X2795066Y7006183D01*
X2794304Y7002272D01*
X2792069Y6999020D01*
X2651252Y6858152D01*
X2648153Y6854748D01*
X2645460Y6851243D01*
X2643073Y6847535D01*
X2641041Y6843623D01*
X2639364Y6839559D01*
X2638044Y6835394D01*
X2637078Y6831075D01*
X2636520Y6826707D01*
X2636316Y6822084D01*
X2636316Y6640982D01*
X2635554Y6637121D01*
X2633319Y6633819D01*
X2630068Y6631635D01*
X2626156Y6630822D01*
X2559964Y6630822D01*
X2553512Y6630212D01*
X2547823Y6628485D01*
X2542540Y6625640D01*
X2537561Y6621525D01*
X2485999Y6570014D01*
X2481884Y6564985D01*
X2478633Y6558838D01*
X2476347Y6555994D01*
X2473248Y6554114D01*
X2469134Y6553504D01*
X2465578Y6554114D01*
X2462428Y6555994D01*
X2460193Y6558838D01*
X2456891Y6564985D01*
X2452776Y6570014D01*
X2401265Y6621525D01*
X2396642Y6625336D01*
X2393899Y6628841D01*
X2392934Y6633209D01*
X2392934Y7711592D01*
X2393696Y7715453D01*
X2395880Y7718755D01*
X2564434Y7887258D01*
X2567432Y7889392D01*
X2571038Y7890256D01*
X2574696Y7889798D01*
X2580995Y7887766D01*
X2595575Y7885074D01*
X2610358Y7884159D01*
X2625191Y7885074D01*
X2639771Y7887766D01*
X2653893Y7892288D01*
X2667406Y7898485D01*
X2680004Y7906308D01*
X2691587Y7915605D01*
X2701899Y7926273D01*
X2710840Y7938109D01*
X2718257Y7950962D01*
X2724048Y7964627D01*
X2728112Y7978902D01*
X2730398Y7993532D01*
X2730855Y8008366D01*
X2729484Y8023148D01*
X2726283Y8037677D01*
X2721356Y8051647D01*
X2714752Y8064957D01*
X2706573Y8077301D01*
X2696921Y8088579D01*
X2685948Y8098586D01*
X2673807Y8107172D01*
X2660751Y8114182D01*
X2646934Y8119516D01*
X2632506Y8123174D01*
X2617774Y8124952D01*
X2602941Y8124952D01*
X2588209Y8123174D01*
X2573832Y8119516D01*
X2560015Y8114182D01*
X2546908Y8107172D01*
X2534818Y8098586D01*
X2523845Y8088579D01*
X2514193Y8077301D01*
X2505964Y8064957D01*
X2499360Y8051647D01*
X2494432Y8037677D01*
X2491282Y8023148D01*
X2489911Y8008366D01*
X2490368Y7993532D01*
X2492654Y7978902D01*
X2495550Y7968640D01*
X2495905Y7965084D01*
X2494991Y7961630D01*
X2492959Y7958683D01*
X2306828Y7772552D01*
X2303729Y7769148D01*
X2301036Y7765643D01*
X2298649Y7761935D01*
X2296617Y7758023D01*
X2294940Y7753959D01*
X2293620Y7749794D01*
X2292654Y7745475D01*
X2292096Y7741107D01*
X2291892Y7736484D01*
X2291892Y6633209D01*
X2290927Y6628841D01*
X2288184Y6625336D01*
X2283561Y6621525D01*
X2231999Y6570014D01*
X2227884Y6564985D01*
X2224633Y6558838D01*
X2222347Y6555994D01*
X2219248Y6554114D01*
X2215134Y6553504D01*
X2211578Y6554114D01*
X2208428Y6555994D01*
X2206193Y6558838D01*
X2202891Y6564985D01*
X2198776Y6570014D01*
X2147265Y6621525D01*
X2142642Y6625336D01*
X2139899Y6628841D01*
X2138934Y6633209D01*
X2138934Y6771284D01*
X2138730Y6775907D01*
X2138121Y6780275D01*
X2137156Y6784594D01*
X2135835Y6788759D01*
X2134158Y6792823D01*
X2132126Y6796735D01*
X2129790Y6800443D01*
X2127097Y6803948D01*
X2123948Y6807352D01*
X1921052Y7010247D01*
X1917649Y7013397D01*
X1914143Y7016089D01*
X1910435Y7018426D01*
X1906524Y7020458D01*
X1902460Y7022134D01*
X1898294Y7023455D01*
X1893976Y7024420D01*
X1889607Y7025030D01*
X1884984Y7025182D01*
X1717293Y7025182D01*
X1713382Y7025995D01*
X1710131Y7028180D01*
X1277467Y7460843D01*
X1275384Y7463790D01*
X1274521Y7467244D01*
X1274876Y7470800D01*
X1277772Y7481062D01*
X1280058Y7495692D01*
X1280515Y7510525D01*
X1279144Y7525308D01*
X1275943Y7539837D01*
X1271016Y7553807D01*
X1264412Y7567117D01*
X1256233Y7579461D01*
X1246581Y7590739D01*
X1235608Y7600746D01*
X1223467Y7609331D01*
X1210411Y7616342D01*
X1196492Y7621727D01*
X1182166Y7625334D01*
X1167434Y7627112D01*
X1152601Y7627112D01*
X1137869Y7625334D01*
X1123492Y7621676D01*
X1109675Y7616342D01*
X1096568Y7609331D01*
X1084478Y7600746D01*
X1073505Y7590739D01*
X1063853Y7579461D01*
X1055624Y7567117D01*
X1049020Y7553807D01*
X1044092Y7539837D01*
X1040942Y7525308D01*
X1039571Y7510525D01*
X1040028Y7495692D01*
X1042314Y7481062D01*
X1046327Y7466787D01*
X1052118Y7453122D01*
X1059535Y7440269D01*
X1068476Y7428433D01*
X1078839Y7417765D01*
X1090371Y7408468D01*
X1103020Y7400645D01*
X1116482Y7394448D01*
X1130655Y7389926D01*
X1145235Y7387234D01*
X1160018Y7386320D01*
X1174851Y7387234D01*
X1189431Y7389926D01*
X1195730Y7391958D01*
X1199388Y7392416D01*
X1202944Y7391552D01*
X1205992Y7389418D01*
X1656283Y6939127D01*
X1659686Y6936028D01*
X1663192Y6933336D01*
X1666900Y6930948D01*
X1670812Y6928916D01*
X1674875Y6927240D01*
X1679092Y6925919D01*
X1683410Y6924954D01*
X1687779Y6924395D01*
X1692402Y6924192D01*
X1860092Y6924192D01*
X1863953Y6923430D01*
X1867255Y6921195D01*
X2034895Y6753555D01*
X2037130Y6750253D01*
X2037892Y6746392D01*
X2037892Y6633209D01*
X2036927Y6628841D01*
X2034184Y6625336D01*
X2029561Y6621525D01*
X1977999Y6570014D01*
X1973884Y6564985D01*
X1970633Y6558838D01*
X1968347Y6555994D01*
X1965248Y6554114D01*
X1961134Y6553504D01*
X1957578Y6554114D01*
X1954428Y6555994D01*
X1952193Y6558838D01*
X1948891Y6564985D01*
X1944776Y6570014D01*
X1893265Y6621525D01*
X1888236Y6625640D01*
X1883003Y6628485D01*
X1877263Y6630212D01*
X1870811Y6630822D01*
X1797964Y6630822D01*
X1791512Y6630212D01*
X1785823Y6628485D01*
X1780539Y6625640D01*
X1775561Y6621525D01*
X1723999Y6570014D01*
X1719884Y6564985D01*
X1716633Y6558838D01*
X1714144Y6555892D01*
X1714601Y6555130D01*
X1715058Y6550914D01*
X1714703Y6547561D01*
X1714703Y6474714D01*
X1715058Y6471361D01*
X1714347Y6466281D01*
X1716633Y6463436D01*
X1719884Y6457289D01*
X1723999Y6452311D01*
X1775561Y6400749D01*
X1780539Y6396634D01*
X1785823Y6393840D01*
X1791512Y6392113D01*
X1797964Y6391452D01*
X1870811Y6391452D01*
X1877263Y6392113D01*
X1883003Y6393840D01*
X1888236Y6396634D01*
X1893265Y6400749D01*
X1944776Y6452311D01*
X1948891Y6457289D01*
X1952193Y6463436D01*
X1954428Y6466281D01*
X1957578Y6468160D01*
X1961642Y6468821D01*
X1965248Y6468160D01*
X1968347Y6466281D01*
X1970633Y6463436D01*
X1973884Y6457289D01*
X1977999Y6452311D01*
X2029561Y6400749D01*
X2034539Y6396634D01*
X2039823Y6393840D01*
X2045512Y6392113D01*
X2051964Y6391452D01*
X2124811Y6391452D01*
X2131263Y6392113D01*
X2137003Y6393840D01*
X2142236Y6396634D01*
X2147265Y6400749D01*
X2198776Y6452311D01*
X2202891Y6457289D01*
X2206193Y6463436D01*
X2208428Y6466281D01*
X2211578Y6468160D01*
X2215642Y6468821D01*
X2219248Y6468160D01*
X2222347Y6466281D01*
X2224633Y6463436D01*
X2227884Y6457289D01*
X2231999Y6452311D01*
X2283561Y6400749D01*
X2288540Y6396634D01*
X2293823Y6393840D01*
X2299512Y6392113D01*
X2305964Y6391452D01*
X2378811Y6391452D01*
X2385263Y6392113D01*
X2391003Y6393840D01*
X2396236Y6396634D01*
X2401265Y6400749D01*
X2452776Y6452311D01*
X2456891Y6457289D01*
X2460193Y6463436D01*
X2462428Y6466281D01*
X2465578Y6468160D01*
X2469642Y6468821D01*
X2473248Y6468160D01*
X2476347Y6466281D01*
X2478633Y6463436D01*
X2481884Y6457289D01*
X2485999Y6452311D01*
X2537561Y6400749D01*
X2542184Y6396939D01*
X2544927Y6393434D01*
X2545892Y6389116D01*
X2545892Y6274054D01*
X2546096Y6269431D01*
X2546654Y6265062D01*
X2547620Y6260744D01*
X2548940Y6256528D01*
X2550617Y6252464D01*
X2552649Y6248552D01*
X2555036Y6244844D01*
X2557729Y6241338D01*
X2560828Y6237935D01*
X2680208Y6118555D01*
X2682443Y6115253D01*
X2683205Y6111392D01*
X2683205Y6105906D01*
X2682544Y6102350D01*
X2680716Y6099200D01*
X2677871Y6096965D01*
X2670302Y6092901D01*
X2658160Y6084316D01*
X2647188Y6074308D01*
X2637536Y6063081D01*
X2629357Y6050686D01*
X2622753Y6037427D01*
X2617825Y6023406D01*
X2614676Y6008928D01*
X2613304Y5994146D01*
X2613761Y5979312D01*
X2615996Y5964682D01*
X2620060Y5950407D01*
X2625852Y5936742D01*
X2633268Y5923889D01*
X2642209Y5912053D01*
X2652522Y5901385D01*
X2664104Y5892088D01*
X2676702Y5884316D01*
X2690164Y5878118D01*
X2704338Y5873597D01*
X2718917Y5870854D01*
X2733700Y5869940D01*
X2748534Y5870854D01*
X2763113Y5873597D01*
X2777236Y5878118D01*
X2790698Y5884316D01*
X2803347Y5892088D01*
X2814878Y5901385D01*
X2825191Y5912053D01*
X2834132Y5923889D01*
X2841548Y5936742D01*
X2847340Y5950407D01*
X2851404Y5964682D01*
X2853690Y5979312D01*
X2854147Y5994146D01*
X2852775Y6008928D01*
X2849626Y6023406D01*
X2844647Y6037427D01*
X2838043Y6050686D01*
X2829864Y6063081D01*
X2820212Y6074308D01*
X2809240Y6084316D01*
X2797149Y6092901D01*
X2789580Y6096965D01*
X2786735Y6099200D01*
X2784856Y6102350D01*
X2784246Y6105906D01*
X2784246Y6136284D01*
X2784043Y6140907D01*
X2783433Y6145276D01*
X2782468Y6149594D01*
X2781147Y6153759D01*
X2779471Y6157823D01*
X2777439Y6161735D01*
X2775102Y6165443D01*
X2772410Y6168948D01*
X2769260Y6172352D01*
X2649880Y6291783D01*
X2647696Y6295034D01*
X2646934Y6298946D01*
X2646934Y6310782D01*
X2647696Y6314694D01*
X2649880Y6317945D01*
X2653182Y6320180D01*
X2657094Y6320942D01*
X2686405Y6320942D01*
X2695600Y6321755D01*
X2704084Y6324041D01*
X2712059Y6327749D01*
X2719273Y6332778D01*
X2725470Y6339027D01*
X2730550Y6346240D01*
X2734259Y6354165D01*
X2736545Y6362700D01*
X2737358Y6371894D01*
X2737358Y6430416D01*
X2738120Y6434328D01*
X2740304Y6437630D01*
X2743606Y6439814D01*
X2747518Y6440576D01*
X2751378Y6439814D01*
X2754680Y6437630D01*
X2791561Y6400749D01*
X2796540Y6396634D01*
X2801823Y6393840D01*
X2807512Y6392113D01*
X2813964Y6391452D01*
X2886811Y6391452D01*
X2893263Y6392113D01*
X2899003Y6393840D01*
X2904236Y6396634D01*
X2909265Y6400749D01*
X2960776Y6452311D01*
X2964891Y6457289D01*
X2968193Y6463436D01*
X2970428Y6466281D01*
X2973578Y6468160D01*
X2977642Y6468821D01*
X2981248Y6468160D01*
X2984347Y6466281D01*
X2986633Y6463436D01*
X2989884Y6457289D01*
X2993999Y6452311D01*
X3045561Y6400749D01*
X3050540Y6396634D01*
X3055823Y6393840D01*
X3061512Y6392113D01*
X3067964Y6391452D01*
X3140811Y6391452D01*
X3147263Y6392113D01*
X3153003Y6393840D01*
X3158236Y6396634D01*
X3163265Y6400749D01*
X3214776Y6452311D01*
X3218891Y6457289D01*
X3222193Y6463436D01*
X3224428Y6466281D01*
X3227578Y6468160D01*
X3231642Y6468821D01*
X3235248Y6468160D01*
X3238347Y6466281D01*
X3240633Y6463436D01*
X3243884Y6457289D01*
X3247999Y6452311D01*
X3299561Y6400749D01*
X3304540Y6396634D01*
X3309823Y6393840D01*
X3315512Y6392113D01*
X3321964Y6391452D01*
X3394811Y6391452D01*
X3401263Y6392113D01*
X3407003Y6393840D01*
X3412236Y6396634D01*
X3417265Y6400749D01*
X3468776Y6452311D01*
X3472891Y6457289D01*
X3476193Y6463436D01*
X3478428Y6466281D01*
X3481578Y6468160D01*
X3485642Y6468821D01*
X3489248Y6468160D01*
X3492347Y6466281D01*
X3494633Y6463436D01*
X3497884Y6457289D01*
X3501999Y6452311D01*
X3553561Y6400749D01*
X3558540Y6396634D01*
X3563823Y6393840D01*
X3569512Y6392113D01*
X3575964Y6391452D01*
X3648811Y6391452D01*
X3655263Y6392113D01*
X3661003Y6393840D01*
X3666236Y6396634D01*
X3671265Y6400749D01*
X3722776Y6452311D01*
X3726891Y6457289D01*
X3730193Y6463436D01*
X3732428Y6466281D01*
X3735578Y6468160D01*
X3739642Y6468821D01*
X3743248Y6468160D01*
X3746347Y6466281D01*
X3748633Y6463436D01*
X3751884Y6457289D01*
X3755999Y6452311D01*
X3807561Y6400749D01*
X3812540Y6396634D01*
X3817823Y6393840D01*
X3823512Y6392113D01*
X3829964Y6391452D01*
X3902811Y6391452D01*
X3909263Y6392113D01*
X3915003Y6393840D01*
X3920236Y6396634D01*
X3925265Y6400749D01*
X3976776Y6452311D01*
X3980891Y6457289D01*
X3984193Y6463436D01*
X3986428Y6466281D01*
X3989578Y6468160D01*
X3993642Y6468821D01*
X3997248Y6468160D01*
X4000347Y6466281D01*
X4002633Y6463436D01*
X4005884Y6457289D01*
X4009999Y6452311D01*
X4061561Y6400749D01*
X4066540Y6396634D01*
X4071823Y6393840D01*
X4077512Y6392113D01*
X4083964Y6391452D01*
X4156811Y6391452D01*
X4163263Y6392113D01*
X4169003Y6393840D01*
X4174236Y6396634D01*
X4179265Y6400749D01*
X4230776Y6452311D01*
X4234891Y6457289D01*
X4238193Y6463436D01*
X4240428Y6466281D01*
X4243578Y6468160D01*
X4247642Y6468821D01*
X4251248Y6468160D01*
X4254347Y6466281D01*
X4256633Y6463436D01*
X4259884Y6457289D01*
X4263999Y6452311D01*
X4315561Y6400749D01*
X4320540Y6396634D01*
X4325823Y6393840D01*
X4331512Y6392113D01*
X4337964Y6391452D01*
X4410811Y6391452D01*
X4417263Y6392113D01*
X4423003Y6393840D01*
X4428236Y6396634D01*
X4433265Y6400749D01*
X4484776Y6452311D01*
X4488891Y6457289D01*
X4492193Y6463436D01*
X4494428Y6466281D01*
X4497578Y6468160D01*
X4501642Y6468821D01*
X4505248Y6468160D01*
X4508347Y6466281D01*
X4510633Y6463436D01*
X4513884Y6457289D01*
X4517999Y6452311D01*
X4569561Y6400749D01*
X4574540Y6396634D01*
X4579823Y6393840D01*
X4585512Y6392113D01*
X4591964Y6391452D01*
X4664811Y6391452D01*
X4671263Y6392113D01*
X4677003Y6393840D01*
X4682236Y6396634D01*
X4687265Y6400749D01*
X4738776Y6452311D01*
X4742891Y6457289D01*
X4746193Y6463436D01*
X4748428Y6466281D01*
X4751578Y6468160D01*
X4755642Y6468821D01*
X4759248Y6468160D01*
X4762347Y6466281D01*
X4764633Y6463436D01*
X4767884Y6457289D01*
X4771999Y6452311D01*
X4823561Y6400749D01*
X4828540Y6396634D01*
X4833823Y6393840D01*
X4839512Y6392113D01*
X4845964Y6391452D01*
X4918811Y6391452D01*
X4925263Y6392113D01*
X4931003Y6393840D01*
X4936236Y6396634D01*
X4941265Y6400749D01*
X4992776Y6452311D01*
X4996891Y6457289D01*
X5000193Y6463436D01*
X5002428Y6466281D01*
X5005578Y6468160D01*
X5009642Y6468821D01*
X5013248Y6468160D01*
X5016347Y6466281D01*
X5018633Y6463436D01*
X5021884Y6457289D01*
X5025999Y6452311D01*
X5077561Y6400749D01*
X5082540Y6396634D01*
X5087823Y6393840D01*
X5093512Y6392113D01*
X5099964Y6391452D01*
X5172811Y6391452D01*
X5179263Y6392113D01*
X5185003Y6393840D01*
X5190236Y6396634D01*
X5195265Y6400749D01*
X5246776Y6452311D01*
X5250891Y6457289D01*
X5254193Y6463436D01*
X5256428Y6466281D01*
X5259578Y6468160D01*
X5263642Y6468821D01*
X5267248Y6468160D01*
X5270347Y6466281D01*
X5272633Y6463436D01*
X5275884Y6457289D01*
X5279999Y6452311D01*
X5331561Y6400749D01*
X5336184Y6396939D01*
X5338927Y6393434D01*
X5339892Y6389116D01*
X5339892Y6132068D01*
X5339232Y6128461D01*
X5337352Y6125362D01*
X5334457Y6123076D01*
X5331002Y6122009D01*
X5327751Y6121603D01*
X5313375Y6117945D01*
X5299557Y6112611D01*
X5286502Y6105601D01*
X5274360Y6097016D01*
X5263388Y6087008D01*
X5253736Y6075781D01*
X5245557Y6063386D01*
X5238953Y6050127D01*
X5234025Y6036106D01*
X5230876Y6021628D01*
X5229504Y6006846D01*
X5229961Y5992012D01*
X5232196Y5977382D01*
X5236260Y5963107D01*
X5242052Y5949442D01*
X5249468Y5936589D01*
X5258409Y5924753D01*
X5268722Y5914085D01*
X5280304Y5904788D01*
X5292902Y5897016D01*
X5306364Y5890818D01*
X5320538Y5886297D01*
X5335117Y5883554D01*
X5349900Y5882640D01*
X5364734Y5883554D01*
X5379313Y5886297D01*
X5393436Y5890818D01*
X5406898Y5897016D01*
X5419547Y5904788D01*
X5431078Y5914085D01*
X5441391Y5924753D01*
X5450332Y5936589D01*
X5457799Y5949492D01*
X5460644Y5952642D01*
X5464505Y5954369D01*
X5466943Y5954471D01*
X5464708Y5957417D01*
X5463692Y5961024D01*
X5463997Y5964732D01*
X5467604Y5977382D01*
X5469890Y5992012D01*
X5470347Y6006846D01*
X5468975Y6021628D01*
X5465826Y6036106D01*
X5464098Y6040983D01*
X5463540Y6044793D01*
X5464403Y6048552D01*
X5466537Y6051499D01*
X5464352Y6051499D01*
X5460339Y6053429D01*
X5457494Y6056884D01*
X5454243Y6063386D01*
X5446064Y6075781D01*
X5443372Y6078931D01*
X5441543Y6082030D01*
X5440934Y6085535D01*
X5440934Y6389116D01*
X5441899Y6393434D01*
X5444642Y6396939D01*
X5449265Y6400749D01*
X5500776Y6452311D01*
X5504891Y6457289D01*
X5508193Y6463436D01*
X5510428Y6466281D01*
X5513578Y6468160D01*
X5517642Y6468821D01*
X5521248Y6468160D01*
X5524347Y6466281D01*
X5526633Y6463436D01*
X5529884Y6457289D01*
X5533999Y6452311D01*
X5585561Y6400749D01*
X5590184Y6396939D01*
X5592927Y6393434D01*
X5593892Y6389116D01*
X5593892Y6242304D01*
X5594096Y6237681D01*
X5594654Y6233312D01*
X5595620Y6228994D01*
X5596940Y6224778D01*
X5598617Y6220714D01*
X5600649Y6216802D01*
X5603036Y6213094D01*
X5605729Y6209588D01*
X5608828Y6206185D01*
X5765901Y6049162D01*
X5768035Y6046012D01*
X5768848Y6042304D01*
X5768289Y6038596D01*
X5767425Y6036106D01*
X5764276Y6021628D01*
X5762904Y6006846D01*
X5763361Y5992012D01*
X5765596Y5977382D01*
X5769660Y5963107D01*
X5775452Y5949442D01*
X5782868Y5936589D01*
X5791809Y5924753D01*
X5802122Y5914085D01*
X5813704Y5904788D01*
X5826302Y5897016D01*
X5839764Y5890818D01*
X5853938Y5886297D01*
X5868517Y5883554D01*
X5883300Y5882640D01*
X5898134Y5883554D01*
X5912713Y5886297D01*
X5926836Y5890818D01*
X5940298Y5897016D01*
X5952947Y5904788D01*
X5964478Y5914085D01*
X5974791Y5924753D01*
X5981598Y5933694D01*
X5984544Y5936335D01*
X5988304Y5937656D01*
X5992266Y5937402D01*
X5995873Y5935675D01*
X5998464Y5932678D01*
X6003544Y5923889D01*
X6012484Y5912053D01*
X6022797Y5901385D01*
X6034379Y5892088D01*
X6046978Y5884316D01*
X6052616Y5881674D01*
X6052616Y5939078D01*
X6002121Y5939078D01*
X5998210Y5939891D01*
X5994908Y5942076D01*
X5992723Y5945428D01*
X5991961Y5949340D01*
X5992774Y5953201D01*
X5996940Y5963107D01*
X6001004Y5977382D01*
X6003290Y5992012D01*
X6003747Y6006846D01*
X6002375Y6021628D01*
X6000648Y6029452D01*
X6000699Y6033973D01*
X6002680Y6037986D01*
X6006185Y6040780D01*
X6010605Y6041796D01*
X6052616Y6041796D01*
X6052616Y6099352D01*
X6040577Y6092901D01*
X6028436Y6084316D01*
X6017463Y6074308D01*
X6007811Y6063081D01*
X6006134Y6060490D01*
X6003137Y6057544D01*
X5999175Y6056071D01*
X5994958Y6056325D01*
X5991199Y6058255D01*
X5988558Y6061557D01*
X5987643Y6063386D01*
X5979464Y6075781D01*
X5969812Y6087008D01*
X5958840Y6097016D01*
X5946749Y6105601D01*
X5933694Y6112611D01*
X5919825Y6117945D01*
X5905449Y6121603D01*
X5890717Y6123432D01*
X5875883Y6123432D01*
X5861151Y6121603D01*
X5846876Y6117996D01*
X5843422Y6117742D01*
X5840069Y6118656D01*
X5837224Y6120688D01*
X5697880Y6260033D01*
X5695696Y6263284D01*
X5694934Y6267196D01*
X5694934Y6389116D01*
X5695899Y6393434D01*
X5698642Y6396939D01*
X5703265Y6400749D01*
X5754776Y6452311D01*
X5758891Y6457289D01*
X5762193Y6463436D01*
X5764428Y6466281D01*
X5767578Y6468160D01*
X5771642Y6468821D01*
X5775248Y6468160D01*
X5778347Y6466281D01*
X5780633Y6463436D01*
X5783884Y6457289D01*
X5787999Y6452311D01*
X5839561Y6400749D01*
X5844540Y6396634D01*
X5849823Y6393840D01*
X5855512Y6392113D01*
X5861964Y6391452D01*
X5934811Y6391452D01*
X5941263Y6392113D01*
X5947003Y6393840D01*
X5952236Y6396634D01*
X5957265Y6400749D01*
X6008776Y6452311D01*
X6012891Y6457289D01*
X6016193Y6463436D01*
X6018428Y6466281D01*
X6021578Y6468160D01*
X6025642Y6468821D01*
X6029248Y6468160D01*
X6032347Y6466281D01*
X6034633Y6463436D01*
X6037884Y6457289D01*
X6041999Y6452311D01*
X6093561Y6400749D01*
X6098540Y6396634D01*
X6103823Y6393840D01*
X6109512Y6392113D01*
X6115964Y6391452D01*
X6188811Y6391452D01*
X6195263Y6392113D01*
X6201003Y6393840D01*
X6206236Y6396634D01*
X6211265Y6400749D01*
X6262776Y6452311D01*
X6266891Y6457289D01*
X6269685Y6462572D01*
X6271412Y6468262D01*
X6272072Y6474714D01*
X6272072Y6547561D01*
X6271412Y6554012D01*
X6269685Y6559753D01*
X6266891Y6564985D01*
X6262776Y6570014D01*
X6211265Y6621525D01*
X6206236Y6625640D01*
X6201003Y6628485D01*
X6195263Y6630212D01*
X6188811Y6630822D01*
X6115964Y6630822D01*
X6109512Y6630212D01*
X6103823Y6628485D01*
X6098540Y6625640D01*
X6093561Y6621525D01*
X6041999Y6570014D01*
X6037884Y6564985D01*
X6034633Y6558838D01*
X6032347Y6555994D01*
X6029248Y6554114D01*
X6025134Y6553504D01*
X6021578Y6554114D01*
X6018428Y6555994D01*
X6016193Y6558838D01*
X6012891Y6564985D01*
X6008776Y6570014D01*
X5957265Y6621525D01*
X5952642Y6625336D01*
X5949899Y6628841D01*
X5948934Y6633209D01*
X5948934Y7450531D01*
X5948730Y7452969D01*
X5949238Y7457084D01*
X5951372Y7460691D01*
X5954776Y7463078D01*
X5958840Y7463942D01*
X5976416Y7463942D01*
X5980277Y7463180D01*
X5983579Y7460945D01*
X6350508Y7094016D01*
X6352743Y7090714D01*
X6353505Y7086853D01*
X6353505Y6105906D01*
X6352844Y6102350D01*
X6351016Y6099200D01*
X6348171Y6096965D01*
X6340602Y6092901D01*
X6328460Y6084316D01*
X6317488Y6074308D01*
X6307836Y6063081D01*
X6299657Y6050686D01*
X6293053Y6037427D01*
X6288125Y6023406D01*
X6284976Y6008928D01*
X6283604Y5994146D01*
X6284061Y5979312D01*
X6286296Y5964682D01*
X6290360Y5950407D01*
X6296152Y5936742D01*
X6303568Y5923889D01*
X6312509Y5912053D01*
X6322822Y5901385D01*
X6334404Y5892088D01*
X6347002Y5884316D01*
X6360464Y5878118D01*
X6374638Y5873597D01*
X6389217Y5870854D01*
X6404000Y5869940D01*
X6418834Y5870854D01*
X6433413Y5873597D01*
X6447536Y5878118D01*
X6460998Y5884316D01*
X6473647Y5892088D01*
X6485178Y5901385D01*
X6495491Y5912053D01*
X6504431Y5923889D01*
X6511848Y5936742D01*
X6517640Y5950407D01*
X6521704Y5964682D01*
X6523990Y5979312D01*
X6524447Y5994146D01*
X6523075Y6008928D01*
X6519926Y6023406D01*
X6514947Y6037427D01*
X6508343Y6050686D01*
X6500164Y6063081D01*
X6490512Y6074308D01*
X6479540Y6084316D01*
X6467449Y6092901D01*
X6459880Y6096965D01*
X6457035Y6099200D01*
X6455156Y6102350D01*
X6454546Y6105906D01*
X6454546Y7111746D01*
X6454343Y7116368D01*
X6453733Y7120737D01*
X6452768Y7125055D01*
X6451447Y7129221D01*
X6449771Y7133285D01*
X6447739Y7137196D01*
X6445402Y7140905D01*
X6442710Y7144410D01*
X6439560Y7147814D01*
X6037376Y7549997D01*
X6033973Y7553147D01*
X6030468Y7555839D01*
X6026759Y7558176D01*
X6022848Y7560208D01*
X6018784Y7561884D01*
X6014618Y7563205D01*
X6010300Y7564170D01*
X6005931Y7564780D01*
X6001308Y7564932D01*
X5950356Y7564932D01*
X5946800Y7565593D01*
X5943650Y7567472D01*
X5941415Y7570317D01*
X5937351Y7577886D01*
X5928766Y7589977D01*
X5918758Y7600950D01*
X5907532Y7610602D01*
X5895136Y7618780D01*
X5881878Y7625384D01*
X5867857Y7630363D01*
X5862472Y7631531D01*
X5858865Y7633055D01*
X5856122Y7635900D01*
X5854649Y7639507D01*
X5854649Y7643418D01*
X5856122Y7647025D01*
X5858865Y7649819D01*
X5862472Y7651394D01*
X5867857Y7652562D01*
X5881878Y7657490D01*
X5895136Y7664094D01*
X5907532Y7672273D01*
X5918758Y7681925D01*
X5928766Y7692898D01*
X5937351Y7705039D01*
X5944362Y7718094D01*
X5949696Y7731912D01*
X5953353Y7746288D01*
X5955182Y7761020D01*
X5955182Y7775854D01*
X5953353Y7790586D01*
X5949696Y7804962D01*
X5944362Y7818831D01*
X5937351Y7831886D01*
X5928766Y7843977D01*
X5918758Y7854950D01*
X5907532Y7864602D01*
X5895136Y7872780D01*
X5881878Y7879384D01*
X5867857Y7884363D01*
X5853379Y7887512D01*
X5838596Y7888884D01*
X5823762Y7888427D01*
X5809132Y7886141D01*
X5794857Y7882077D01*
X5781192Y7876286D01*
X5768340Y7868869D01*
X5756503Y7859928D01*
X5745835Y7849616D01*
X5736539Y7838084D01*
X5728766Y7825435D01*
X5722569Y7811973D01*
X5716371Y7792974D01*
X5713679Y7790129D01*
X5710072Y7788554D01*
X5706160Y7788452D01*
X5702503Y7789824D01*
X5699658Y7792466D01*
X5697982Y7795971D01*
X5695696Y7804962D01*
X5690362Y7818831D01*
X5683351Y7831886D01*
X5674766Y7843977D01*
X5664758Y7854950D01*
X5653532Y7864602D01*
X5641136Y7872780D01*
X5627878Y7879384D01*
X5613857Y7884363D01*
X5599379Y7887512D01*
X5584596Y7888884D01*
X5569762Y7888427D01*
X5555132Y7886141D01*
X5540857Y7882077D01*
X5527192Y7876286D01*
X5514340Y7868869D01*
X5502503Y7859928D01*
X5491835Y7849616D01*
X5482539Y7838084D01*
X5474766Y7825435D01*
X5468569Y7811973D01*
X5462371Y7792974D01*
X5459679Y7790129D01*
X5456072Y7788554D01*
X5452160Y7788452D01*
X5448503Y7789824D01*
X5445658Y7792466D01*
X5443982Y7795971D01*
X5441696Y7804962D01*
X5436362Y7818831D01*
X5429351Y7831886D01*
X5420766Y7843977D01*
X5410758Y7854950D01*
X5399532Y7864602D01*
X5387136Y7872780D01*
X5373878Y7879384D01*
X5359857Y7884363D01*
X5345379Y7887512D01*
X5330596Y7888884D01*
X5315762Y7888427D01*
X5301132Y7886141D01*
X5286857Y7882077D01*
X5273192Y7876286D01*
X5260340Y7868869D01*
X5248503Y7859928D01*
X5237835Y7849616D01*
X5228539Y7838084D01*
X5220766Y7825435D01*
X5214569Y7811973D01*
X5208371Y7792974D01*
X5205679Y7790129D01*
X5202072Y7788554D01*
X5198160Y7788452D01*
X5194503Y7789824D01*
X5191658Y7792466D01*
X5189982Y7795971D01*
X5187696Y7804962D01*
X5182362Y7818831D01*
X5175351Y7831886D01*
X5166766Y7843977D01*
X5156758Y7854950D01*
X5145532Y7864602D01*
X5133136Y7872780D01*
X5119878Y7879384D01*
X5105857Y7884363D01*
X5091379Y7887512D01*
X5076596Y7888884D01*
X5061762Y7888427D01*
X5047132Y7886141D01*
X5032857Y7882077D01*
X5019192Y7876286D01*
X5006340Y7868869D01*
X4994503Y7859928D01*
X4983835Y7849616D01*
X4974539Y7838084D01*
X4966766Y7825435D01*
X4960569Y7811973D01*
X4954371Y7792974D01*
X4951679Y7790129D01*
X4948072Y7788554D01*
X4944160Y7788452D01*
X4940503Y7789824D01*
X4937658Y7792466D01*
X4935982Y7795971D01*
X4933696Y7804962D01*
X4928362Y7818831D01*
X4921351Y7831886D01*
X4912766Y7843977D01*
X4902758Y7854950D01*
X4891532Y7864602D01*
X4879136Y7872780D01*
X4865878Y7879384D01*
X4851857Y7884363D01*
X4837379Y7887512D01*
X4822596Y7888884D01*
X4807762Y7888427D01*
X4793132Y7886141D01*
X4782870Y7883245D01*
X4779314Y7882890D01*
X4775860Y7883804D01*
X4772914Y7885836D01*
X4086402Y8572347D01*
X4082999Y8575497D01*
X4079494Y8578189D01*
X4075785Y8580526D01*
X4071874Y8582558D01*
X4067810Y8584234D01*
X4063644Y8585555D01*
X4059326Y8586520D01*
X4054957Y8587130D01*
X4050334Y8587282D01*
X1156716Y8587282D01*
X1152093Y8587130D01*
X1147724Y8586520D01*
X1143406Y8585555D01*
X1139190Y8584234D01*
X1135126Y8582558D01*
X1131214Y8580526D01*
X1127506Y8578189D01*
X1124000Y8575497D01*
X1120597Y8572347D01*
X327152Y7778902D01*
X324053Y7775498D01*
X321360Y7771993D01*
X318973Y7768285D01*
X316941Y7764373D01*
X315264Y7760309D01*
X313944Y7756144D01*
X312978Y7751825D01*
X312420Y7747457D01*
X312216Y7742834D01*
X312216Y1469491D01*
X312420Y1464868D01*
X312978Y1460500D01*
X313944Y1456182D01*
X315264Y1451965D01*
X316941Y1447901D01*
X318973Y1443990D01*
X321360Y1440281D01*
X324053Y1436776D01*
X327152Y1433372D01*
X1120597Y639927D01*
X1124000Y636828D01*
X1127506Y634136D01*
X1131214Y631748D01*
X1135126Y629716D01*
X1139190Y628040D01*
X1143406Y626719D01*
X1147724Y625754D01*
X1152093Y625195D01*
G37*
G36*
X4456125Y7819796D02*
G01*
X4513529Y7819796D01*
X4513529Y7877302D01*
X4511192Y7876286D01*
X4498340Y7868869D01*
X4486503Y7859928D01*
X4475835Y7849616D01*
X4466539Y7838084D01*
X4458766Y7825435D01*
G37*
G36*
X1211427Y7807096D02*
G01*
X1268831Y7807096D01*
X1264412Y7816037D01*
X1256233Y7828381D01*
X1246581Y7839659D01*
X1235608Y7849666D01*
X1223467Y7858252D01*
X1211427Y7864703D01*
G37*
G36*
X4616246Y7659674D02*
G01*
X4625136Y7664094D01*
X4637532Y7672273D01*
X4648758Y7681925D01*
X4658766Y7692898D01*
X4667351Y7705039D01*
X4673803Y7717078D01*
X4616246Y7717078D01*
G37*
G36*
X4513529Y7659573D02*
G01*
X4513529Y7717078D01*
X4456125Y7717078D01*
X4458766Y7711440D01*
X4466539Y7698841D01*
X4475835Y7687259D01*
X4486503Y7676946D01*
X4498340Y7668006D01*
X4511192Y7660589D01*
G37*
G36*
X1108659Y7646974D02*
G01*
X1108659Y7704378D01*
X1051153Y7704378D01*
X1052118Y7702042D01*
X1059535Y7689189D01*
X1068476Y7677353D01*
X1078839Y7666685D01*
X1090371Y7657388D01*
X1103020Y7649565D01*
G37*
G36*
X1211427Y7646974D02*
G01*
X1217066Y7649565D01*
X1229664Y7657388D01*
X1241247Y7666685D01*
X1251559Y7677353D01*
X1260500Y7689189D01*
X1267917Y7702042D01*
X1268933Y7704378D01*
X1211427Y7704378D01*
G37*
G36*
X2501544Y7558176D02*
G01*
X2558999Y7558176D01*
X2558999Y7615783D01*
X2546908Y7609331D01*
X2534818Y7600746D01*
X2523845Y7590739D01*
X2514193Y7579461D01*
X2505964Y7567117D01*
G37*
G36*
X2661716Y7558176D02*
G01*
X2719171Y7558176D01*
X2714752Y7567117D01*
X2706573Y7579461D01*
X2696921Y7590739D01*
X2685948Y7600746D01*
X2673807Y7609331D01*
X2661716Y7615783D01*
G37*
G36*
X2558999Y7398054D02*
G01*
X2558999Y7455458D01*
X2501493Y7455458D01*
X2502458Y7453122D01*
X2509875Y7440269D01*
X2518816Y7428433D01*
X2529179Y7417765D01*
X2540711Y7408468D01*
X2553360Y7400645D01*
G37*
G36*
X2661716Y7398054D02*
G01*
X2667406Y7400645D01*
X2680004Y7408468D01*
X2691587Y7417765D01*
X2701899Y7428433D01*
X2710840Y7440269D01*
X2718257Y7453122D01*
X2719273Y7455458D01*
X2661716Y7455458D01*
G37*
G36*
X5941872Y2765196D02*
G01*
X5999429Y2765196D01*
X5999429Y2822600D01*
X5990539Y2818180D01*
X5978194Y2810002D01*
X5966917Y2800350D01*
X5956909Y2789377D01*
X5948375Y2777286D01*
G37*
G36*
X1729892Y7074103D02*
G01*
X2088794Y7074103D01*
X2095246Y7074763D01*
X2100935Y7076490D01*
X2106218Y7079284D01*
X2110841Y7083094D01*
X2114600Y7087717D01*
X2117445Y7092950D01*
X2119172Y7098690D01*
X2119782Y7105142D01*
X2119782Y7304024D01*
X2119172Y7310475D01*
X2117445Y7316165D01*
X2114600Y7321448D01*
X2110841Y7326071D01*
X2106218Y7329830D01*
X2100935Y7332675D01*
X2095246Y7334402D01*
X2088794Y7335012D01*
X1729892Y7335012D01*
X1723440Y7334402D01*
X1717700Y7332675D01*
X1712468Y7329830D01*
X1707845Y7326071D01*
X1704035Y7321448D01*
X1701241Y7316165D01*
X1699514Y7310475D01*
X1698853Y7304024D01*
X1698853Y7105142D01*
X1699514Y7098690D01*
X1701241Y7092950D01*
X1704035Y7087717D01*
X1707845Y7083094D01*
X1712468Y7079284D01*
X1717700Y7076490D01*
X1723440Y7074763D01*
G37*
G36*
X1631340Y6562090D02*
G01*
X1696466Y6562090D01*
X1694891Y6564985D01*
X1690776Y6570014D01*
X1639265Y6621525D01*
X1634236Y6625640D01*
X1631340Y6627215D01*
G37*
G36*
X1464360Y6562090D02*
G01*
X1529486Y6562090D01*
X1529486Y6627215D01*
X1526540Y6625640D01*
X1521561Y6621525D01*
X1469999Y6570014D01*
X1465884Y6564985D01*
G37*
G36*
X6056071Y3258108D02*
G01*
X6077000Y3259531D01*
X6097676Y3262884D01*
X6118047Y3268065D01*
X6137808Y3275076D01*
X6156858Y3283915D01*
X6174994Y3294379D01*
X6192164Y3306470D01*
X6208115Y3320084D01*
X6222796Y3335121D01*
X6236055Y3351377D01*
X6247739Y3368801D01*
X6257798Y3387191D01*
X6266180Y3406444D01*
X6272733Y3426358D01*
X6277508Y3446779D01*
X6280353Y3467608D01*
X6281318Y3488537D01*
X6280353Y3509518D01*
X6277508Y3530295D01*
X6272733Y3550716D01*
X6266180Y3570681D01*
X6257798Y3589883D01*
X6247739Y3608324D01*
X6236055Y3625748D01*
X6222796Y3642004D01*
X6208115Y3656990D01*
X6192164Y3670604D01*
X6174994Y3682695D01*
X6156858Y3693210D01*
X6137808Y3701999D01*
X6118047Y3709009D01*
X6097676Y3714242D01*
X6077000Y3717544D01*
X6056071Y3718966D01*
X6035090Y3718509D01*
X6014212Y3716121D01*
X5993688Y3711854D01*
X5973622Y3705758D01*
X5954166Y3697833D01*
X5935573Y3688181D01*
X5917895Y3676853D01*
X5901283Y3664000D01*
X5885992Y3649675D01*
X5872022Y3634028D01*
X5859526Y3617163D01*
X5848604Y3599230D01*
X5839409Y3580384D01*
X5831890Y3560775D01*
X5826252Y3540556D01*
X5822442Y3519932D01*
X5820562Y3499053D01*
X5820562Y3478072D01*
X5822442Y3457143D01*
X5826252Y3436518D01*
X5831890Y3416300D01*
X5839409Y3396742D01*
X5848604Y3377895D01*
X5859526Y3359962D01*
X5872022Y3343097D01*
X5885992Y3327450D01*
X5901283Y3313125D01*
X5917895Y3300222D01*
X5935573Y3288944D01*
X5954166Y3279292D01*
X5973622Y3271367D01*
X5993688Y3265220D01*
X6014212Y3260953D01*
X6035090Y3258565D01*
G37*
G36*
X1631340Y6395110D02*
G01*
X1634236Y6396634D01*
X1639265Y6400749D01*
X1690776Y6452311D01*
X1694891Y6457289D01*
X1696466Y6460185D01*
X1631340Y6460185D01*
G37*
G36*
X1529486Y6395110D02*
G01*
X1529486Y6460185D01*
X1464360Y6460185D01*
X1465884Y6457289D01*
X1469999Y6452311D01*
X1521561Y6400749D01*
X1526540Y6396634D01*
G37*
G36*
X5952947Y4116730D02*
G01*
X5961837Y4121099D01*
X5973318Y4128770D01*
X5983681Y4137863D01*
X5992774Y4148226D01*
X6000445Y4159707D01*
X6004864Y4168597D01*
X5952947Y4168597D01*
G37*
G36*
X5865266Y4116730D02*
G01*
X5865266Y4168597D01*
X5813348Y4168597D01*
X5817768Y4159707D01*
X5825439Y4148226D01*
X5834532Y4137863D01*
X5844895Y4128770D01*
X5856376Y4121099D01*
G37*
G36*
X5952947Y4256278D02*
G01*
X6004864Y4256278D01*
X6000445Y4265168D01*
X5992774Y4276648D01*
X5983681Y4287062D01*
X5973318Y4296156D01*
X5961837Y4303826D01*
X5952947Y4308195D01*
G37*
G36*
X5813348Y4256278D02*
G01*
X5865266Y4256278D01*
X5865266Y4308195D01*
X5856376Y4303826D01*
X5844895Y4296156D01*
X5834532Y4287062D01*
X5825439Y4276648D01*
X5817768Y4265168D01*
G37*
G36*
X5473750Y6054496D02*
G01*
X5531916Y6054496D01*
X5531916Y6112052D01*
X5519877Y6105601D01*
X5507736Y6097016D01*
X5496763Y6087008D01*
X5487111Y6075781D01*
X5478932Y6063386D01*
X5475681Y6056884D01*
G37*
G36*
X4941112Y6054496D02*
G01*
X4998516Y6054496D01*
X4998516Y6112052D01*
X4986477Y6105601D01*
X4974336Y6097016D01*
X4963363Y6087008D01*
X4953711Y6075781D01*
X4945532Y6063386D01*
G37*
G36*
X5101234Y6054496D02*
G01*
X5158638Y6054496D01*
X5154218Y6063386D01*
X5146040Y6075781D01*
X5136388Y6087008D01*
X5125415Y6097016D01*
X5113324Y6105601D01*
X5101234Y6112052D01*
G37*
G36*
X5634634Y6054496D02*
G01*
X5692038Y6054496D01*
X5687618Y6063386D01*
X5679440Y6075781D01*
X5669788Y6087008D01*
X5658815Y6097016D01*
X5646724Y6105601D01*
X5634634Y6112052D01*
G37*
G36*
X2324912Y6041796D02*
G01*
X2382316Y6041796D01*
X2382316Y6099352D01*
X2370277Y6092901D01*
X2358136Y6084316D01*
X2347163Y6074308D01*
X2337511Y6063081D01*
X2329332Y6050686D01*
G37*
G36*
X2485034Y6041796D02*
G01*
X2542438Y6041796D01*
X2538018Y6050686D01*
X2529840Y6063081D01*
X2520188Y6074308D01*
X2509215Y6084316D01*
X2497124Y6092901D01*
X2485034Y6099352D01*
G37*
G36*
X6155334Y6041796D02*
G01*
X6212738Y6041796D01*
X6208318Y6050686D01*
X6200140Y6063081D01*
X6190488Y6074308D01*
X6179515Y6084316D01*
X6167424Y6092901D01*
X6155334Y6099352D01*
G37*
G36*
X5531916Y5894374D02*
G01*
X5531916Y5951778D01*
X5473801Y5951778D01*
X5475376Y5949492D01*
X5482844Y5936589D01*
X5491784Y5924753D01*
X5502097Y5914085D01*
X5513679Y5904788D01*
X5526278Y5897016D01*
G37*
G36*
X4998516Y5894374D02*
G01*
X4998516Y5951778D01*
X4941011Y5951778D01*
X4942027Y5949442D01*
X4949444Y5936589D01*
X4958384Y5924753D01*
X4968697Y5914085D01*
X4980279Y5904788D01*
X4992878Y5897016D01*
G37*
G36*
X6203340Y4871110D02*
G01*
X6206236Y4872634D01*
X6211265Y4876749D01*
X6262776Y4928311D01*
X6266891Y4933289D01*
X6268466Y4936236D01*
X6203340Y4936236D01*
G37*
G36*
X5847486Y4871110D02*
G01*
X5847486Y4936185D01*
X5782360Y4936185D01*
X5783884Y4933289D01*
X5787999Y4928311D01*
X5839561Y4876749D01*
X5844540Y4872634D01*
G37*
G36*
X5949340Y4871110D02*
G01*
X5952236Y4872634D01*
X5957265Y4876749D01*
X6008776Y4928311D01*
X6012891Y4933289D01*
X6014466Y4936236D01*
X5949340Y4936236D01*
G37*
G36*
X6101486Y4871110D02*
G01*
X6101486Y4936236D01*
X6036360Y4936236D01*
X6037884Y4933289D01*
X6041999Y4928311D01*
X6093561Y4876749D01*
X6098540Y4872634D01*
G37*
G36*
X5634634Y5894374D02*
G01*
X5640273Y5897016D01*
X5652922Y5904788D01*
X5664454Y5914085D01*
X5674766Y5924753D01*
X5683707Y5936589D01*
X5691124Y5949442D01*
X5692140Y5951778D01*
X5634634Y5951778D01*
G37*
G36*
X5101234Y5894374D02*
G01*
X5106873Y5897016D01*
X5119522Y5904788D01*
X5131054Y5914085D01*
X5141366Y5924753D01*
X5150307Y5936589D01*
X5157724Y5949442D01*
X5158740Y5951778D01*
X5101234Y5951778D01*
G37*
G36*
X6056071Y437438D02*
G01*
X6077000Y438861D01*
X6097676Y442163D01*
X6118047Y447395D01*
X6137808Y454406D01*
X6156858Y463194D01*
X6174994Y473709D01*
X6192164Y485800D01*
X6208115Y499414D01*
X6222796Y514400D01*
X6236055Y530656D01*
X6247739Y548081D01*
X6257798Y566521D01*
X6266180Y585724D01*
X6272733Y605688D01*
X6277508Y626110D01*
X6280353Y646887D01*
X6281318Y667867D01*
X6280353Y688797D01*
X6277508Y709625D01*
X6272733Y730046D01*
X6266180Y749960D01*
X6257798Y769213D01*
X6247739Y787603D01*
X6236055Y805027D01*
X6222796Y821283D01*
X6208115Y836320D01*
X6192164Y849934D01*
X6174994Y862025D01*
X6156858Y872490D01*
X6137808Y881329D01*
X6118047Y888339D01*
X6097676Y893521D01*
X6077000Y896874D01*
X6056071Y898296D01*
X6035090Y897839D01*
X6014212Y895451D01*
X5993688Y891184D01*
X5973622Y885037D01*
X5954166Y877112D01*
X5935573Y867460D01*
X5917895Y856183D01*
X5901283Y843280D01*
X5885992Y828954D01*
X5872022Y813308D01*
X5859526Y796442D01*
X5848604Y778510D01*
X5839409Y759663D01*
X5831890Y740054D01*
X5826252Y719886D01*
X5822442Y699262D01*
X5820562Y678332D01*
X5820562Y657352D01*
X5822442Y636473D01*
X5826252Y615848D01*
X5831890Y595630D01*
X5839409Y576021D01*
X5848604Y557174D01*
X5859526Y539242D01*
X5872022Y522376D01*
X5885992Y506730D01*
X5901283Y492404D01*
X5917895Y479551D01*
X5935573Y468223D01*
X5954166Y458571D01*
X5973622Y450646D01*
X5993688Y444550D01*
X6014212Y440283D01*
X6035090Y437896D01*
G37*
G36*
X6155334Y5881674D02*
G01*
X6160973Y5884316D01*
X6173622Y5892088D01*
X6185154Y5901385D01*
X6195466Y5912053D01*
X6204407Y5923889D01*
X6211824Y5936742D01*
X6212840Y5939078D01*
X6155334Y5939078D01*
G37*
G36*
X2485034Y5881674D02*
G01*
X2490673Y5884316D01*
X2503322Y5892088D01*
X2514854Y5901385D01*
X2525166Y5912053D01*
X2534107Y5923889D01*
X2541524Y5936742D01*
X2542540Y5939078D01*
X2485034Y5939078D01*
G37*
G36*
X6036360Y5038090D02*
G01*
X6101486Y5038090D01*
X6101486Y5103215D01*
X6098540Y5101640D01*
X6093561Y5097526D01*
X6041999Y5046014D01*
X6037884Y5040985D01*
G37*
G36*
X5949340Y5038090D02*
G01*
X6014466Y5038090D01*
X6012891Y5040985D01*
X6008776Y5046014D01*
X5957265Y5097526D01*
X5952236Y5101640D01*
X5949340Y5103215D01*
G37*
G36*
X5782360Y5038090D02*
G01*
X5847486Y5038090D01*
X5847486Y5103215D01*
X5844540Y5101640D01*
X5839561Y5097526D01*
X5787999Y5046014D01*
X5783884Y5040985D01*
G37*
G36*
X6203340Y5038090D02*
G01*
X6268466Y5038090D01*
X6266891Y5040985D01*
X6262776Y5046014D01*
X6211265Y5097526D01*
X6206236Y5101640D01*
X6203340Y5103215D01*
G37*
G36*
X2382316Y5881674D02*
G01*
X2382316Y5939078D01*
X2324811Y5939078D01*
X2325827Y5936742D01*
X2333244Y5923889D01*
X2342184Y5912053D01*
X2352497Y5901385D01*
X2364079Y5892088D01*
X2376678Y5884316D01*
G37*

%LPD*%
D10*
X6045200Y2971800D02*
G01*
X5816600Y3035300D01*
X5829300Y3022600D01*
X5829300Y3022600D01*
X5829300Y3009900D01*
X4120400Y6511150D02*
G01*
X4120400Y7450950D01*
X4056875Y7514450D01*
X4882400Y6511150D02*
G01*
X4882400Y7450950D01*
X4818875Y7514450D01*
X4374400Y4987150D02*
G01*
X4374400Y3266300D01*
X3575951Y2467851D01*
X850811Y2467851D01*
X5659107Y4212450D02*
G01*
X5659107Y3953172D01*
X5448300Y3695700D01*
X5909068Y4212450D02*
G01*
X6355600Y3765918D01*
X6355600Y3209150D01*
X5415800Y3209150D01*
X5911100Y2713850D01*
X6050800Y2713850D01*
X5588774Y5203050D02*
G01*
X5531624Y5201526D01*
X5531624Y5126850D01*
X5588774Y5203050D02*
G01*
X5644400Y5147424D01*
X5644400Y4987150D01*
X5531624Y5126850D02*
G01*
X5415800Y5126850D01*
X5339600Y5203050D01*
X1823224Y5203050D01*
X1105674Y5920600D01*
X1105674Y6511150D01*
X3612400Y6511150D02*
G01*
X3612400Y7450950D01*
X3548875Y7514450D01*
X3548875Y7768450D02*
G01*
X3358400Y7577975D01*
X3358400Y6511150D01*
X3866400Y6511150D02*
G01*
X3866400Y7450950D01*
X3802875Y7514450D01*
X3104400Y6511150D02*
G01*
X3104400Y6625450D01*
X3048774Y6625450D01*
X3048774Y7838300D01*
X3251974Y8041500D01*
X3529850Y8041500D01*
X3802875Y7768450D01*
X2850400Y6511150D02*
G01*
X2850400Y6625450D01*
X2921774Y6625450D01*
X2921774Y8016100D01*
X3124974Y8219300D01*
X3606050Y8219300D01*
X4056875Y7768450D01*
X4374400Y6511150D02*
G01*
X4374400Y7450950D01*
X4310875Y7514450D01*
X4628400Y6511150D02*
G01*
X4628400Y7450950D01*
X4564875Y7514450D01*
X5136400Y6511150D02*
G01*
X5136400Y7450950D01*
X5072875Y7514450D01*
X2342400Y6511150D02*
G01*
X2342400Y7736700D01*
X2610370Y8004670D01*
X2088400Y6511150D02*
G01*
X2088400Y6771500D01*
X1885200Y6974700D01*
X1692160Y6974700D01*
X1160030Y7506830D01*
X2342400Y4987150D02*
G01*
X2342400Y4809350D01*
X1029474Y4809350D01*
X826274Y5012550D01*
X826274Y7670914D01*
X1160030Y8004670D01*
X850811Y1959851D02*
G01*
X629424Y2181237D01*
X629424Y2923400D01*
X1423174Y3717150D01*
X3067824Y3717150D01*
X3866400Y4515726D01*
X3866400Y4987150D01*
X850811Y1959851D02*
G01*
X1038999Y1959851D01*
X2024900Y973950D01*
X850811Y1705851D02*
G01*
X515124Y2041537D01*
X515124Y3253600D01*
X1309281Y4047756D01*
X2813824Y4047756D01*
X3612400Y4846332D01*
X3612400Y4987150D01*
X850811Y1705851D02*
G01*
X1728762Y827900D01*
X2204224Y827900D01*
X2820174Y1443850D01*
X6050800Y1443850D01*
X3709174Y2290051D02*
G01*
X3691775Y2307450D01*
X705624Y2307450D01*
X705624Y2542400D01*
X1505648Y3342424D01*
X3321824Y3342424D01*
X4120400Y4141000D01*
X4120400Y4987150D01*
X3709174Y2290051D02*
G01*
X4301375Y1697850D01*
X6050800Y1697850D01*
X3709174Y2290051D02*
G01*
X3632974Y2213851D01*
X850811Y2213851D01*
X4628400Y4987150D02*
G01*
X4628400Y3374250D01*
X6050800Y1951850D01*
X4882400Y4987150D02*
G01*
X4882400Y3374250D01*
X6050800Y2205850D01*
X5136400Y4987150D02*
G01*
X5136400Y3374250D01*
X6050800Y2459850D01*
X5531624Y5050650D02*
G01*
X5531624Y4441050D01*
X5531624Y5050650D02*
G01*
X5531624Y5126850D01*
X5659107Y4212450D02*
G01*
X5531624Y4339932D01*
X5531624Y4441050D01*
X1105674Y6511150D02*
G01*
X1326400Y6511150D01*
X2786900Y973950D02*
G01*
X2488450Y675500D01*
X1156474Y675500D01*
X362724Y1469250D01*
X362724Y7743050D01*
X1156474Y8536800D01*
X4050550Y8536800D01*
X4818875Y7768450D01*
X6050800Y1189850D02*
G01*
X5906274Y1189850D01*
X2786900Y973950D02*
G01*
X5690374Y973950D01*
X5906274Y1189850D01*
X6050800Y2967850D02*
G01*
X6192024Y2826626D01*
X6192024Y1331074D01*
X6050800Y1189850D01*
X5834875Y7514450D02*
G01*
X5898400Y7450950D01*
X5898400Y6511150D01*
X5834875Y7514450D02*
G01*
X6001524Y7514450D01*
X6404013Y7111961D01*
X6404013Y5990450D01*
X5644400Y6511150D02*
G01*
X5644400Y6242062D01*
X5883313Y6003150D01*
X5644400Y6511150D02*
G01*
X5644400Y7450950D01*
X5580875Y7514450D01*
X5390400Y6511150D02*
G01*
X5390400Y6043637D01*
X5349913Y6003150D01*
X5390400Y6511150D02*
G01*
X5390400Y7450950D01*
X5326875Y7514450D01*
X5974600Y5203050D02*
G01*
X5898400Y5126850D01*
X5898400Y4987150D01*
X1580400Y6371450D02*
G01*
X1580400Y6511150D01*
X5974600Y5203050D02*
G01*
X5974600Y5253850D01*
X6076200Y5355450D01*
X6122174Y5355450D01*
X6350774Y5279250D02*
G01*
X6325374Y5279250D01*
X6172974Y5126850D01*
X6152400Y5126850D01*
X6152400Y4987150D01*
X6122174Y5355450D02*
G01*
X6147574Y5355450D01*
X6198374Y5406250D01*
X6198374Y5431650D01*
X1160030Y7755750D02*
G01*
X985024Y7580744D01*
X985024Y7222350D01*
X1385074Y6822300D01*
X1569224Y6822300D01*
X1670824Y6720700D01*
X1670824Y6371450D01*
X1580400Y6371450D01*
X2433688Y5990450D02*
G01*
X2655938Y5768200D01*
X3944124Y5768200D01*
X4179074Y6003150D01*
X5049888Y6003150D01*
X5506224Y5857100D02*
G01*
X5583288Y5857100D01*
X5583288Y6003150D01*
X6103988Y5990450D02*
G01*
X5894438Y5780900D01*
X5582424Y5780900D01*
X5506224Y5857100D01*
X5049888Y6003150D02*
G01*
X5195938Y5857100D01*
X5506224Y5857100D01*
X6103988Y5990450D02*
G01*
X6103988Y5526036D01*
X6198374Y5431650D01*
X2680474Y8149450D02*
G01*
X2756674Y8073250D01*
X2756674Y7653134D01*
X2610370Y7506830D01*
X2433688Y5990450D02*
G01*
X1961400Y5990450D01*
X1580400Y6371450D01*
X5909094Y4212450D02*
G01*
X6350774Y4654130D01*
X6350774Y5279250D01*
X1160030Y7755750D02*
G01*
X1553730Y8149450D01*
X2680474Y8149450D01*
X2680474Y8149450D02*
G01*
X2902724Y8371700D01*
X3961650Y8371700D01*
X4564875Y7768450D01*
X6350774Y5279250D02*
G01*
X6350774Y5330050D01*
X6249174Y5431650D01*
X6198374Y5431650D01*
X2596400Y6371450D02*
G01*
X2596400Y6511150D01*
X2596400Y6371450D02*
G01*
X2686824Y6371450D01*
X2686824Y6822300D01*
X2845574Y6981050D01*
X2845574Y8092300D01*
X3048774Y8295500D01*
X3783850Y8295500D01*
X4310875Y7768450D01*
X2596400Y6371450D02*
G01*
X2596400Y6273812D01*
X2733713Y6136500D01*
X2733713Y5990450D01*
D11*
G01*
X2733713Y5990450D03*
G01*
X2433688Y5990450D03*
G01*
X5349913Y6003150D03*
G01*
X5049888Y6003150D03*
G01*
X5883313Y6003150D03*
G01*
X5583288Y6003150D03*
G01*
X6404013Y5990450D03*
G01*
X6103988Y5990450D03*
D12*
G01*
X5909094Y4212450D03*
G01*
X5659107Y4212450D03*
D11*
G01*
X6050800Y2967850D03*
G01*
X6050800Y2713850D03*
G01*
X6050800Y2459850D03*
G01*
X6050800Y2205850D03*
G01*
X6050800Y1951850D03*
G01*
X6050800Y1697850D03*
G01*
X6050800Y1443850D03*
G01*
X6050800Y1189850D03*
G01*
X850811Y2467851D03*
G01*
X850811Y2213851D03*
G01*
X850811Y1959851D03*
G01*
X850811Y1705851D03*
D13*
G01*
X2786900Y973950D03*
G01*
X2024900Y973950D03*
D14*
G01*
X1160030Y8004670D03*
G01*
X1160030Y7755750D03*
G01*
X1160030Y7506830D03*
G01*
X2610370Y7506830D03*
G01*
X2610370Y8004670D03*
D15*
G01*
X1909330Y8306930D03*
G01*
X1909330Y7204570D03*
D11*
G01*
X5834890Y7768462D03*
G01*
X5834890Y7514462D03*
G01*
X5580890Y7768462D03*
G01*
X5580890Y7514462D03*
G01*
X5326890Y7768462D03*
G01*
X5326890Y7514462D03*
G01*
X5072890Y7768462D03*
G01*
X5072890Y7514462D03*
G01*
X4818890Y7768462D03*
G01*
X4818890Y7514462D03*
G01*
X4564890Y7768462D03*
G01*
X4564890Y7514462D03*
G01*
X4310890Y7768462D03*
G01*
X4310890Y7514462D03*
G01*
X4056890Y7768462D03*
G01*
X4056890Y7514462D03*
G01*
X3802890Y7768462D03*
G01*
X3802890Y7514462D03*
G01*
X3548890Y7768462D03*
G01*
X3548890Y7514462D03*
D16*
G01*
X6152387Y6511150D03*
D17*
G01*
X5898400Y6511150D03*
G01*
X5644400Y6511150D03*
G01*
X5390400Y6511150D03*
G01*
X5136400Y6511150D03*
G01*
X4882400Y6511150D03*
G01*
X4628400Y6511150D03*
G01*
X4374400Y6511150D03*
G01*
X4120400Y6511150D03*
G01*
X3866400Y6511150D03*
G01*
X3612400Y6511150D03*
G01*
X3358400Y6511150D03*
G01*
X3104400Y6511150D03*
G01*
X2850400Y6511150D03*
G01*
X2596400Y6511150D03*
G01*
X2342400Y6511150D03*
G01*
X2088400Y6511150D03*
G01*
X1834400Y6511150D03*
G01*
X1580400Y6511150D03*
G01*
X1326400Y6511150D03*
D16*
G01*
X6152387Y4987150D03*
D17*
G01*
X5898400Y4987150D03*
G01*
X5644400Y4987150D03*
G01*
X5390400Y4987150D03*
G01*
X5136400Y4987150D03*
G01*
X4882400Y4987150D03*
G01*
X4628400Y4987150D03*
G01*
X4374400Y4987150D03*
G01*
X4120400Y4987150D03*
G01*
X3866400Y4987150D03*
G01*
X3612400Y4987150D03*
G01*
X3358400Y4987150D03*
G01*
X3104400Y4987150D03*
G01*
X2850400Y4987150D03*
G01*
X2596400Y4987150D03*
G01*
X2342400Y4987150D03*
G01*
X2088400Y4987150D03*
G01*
X1834400Y4987150D03*
G01*
X1580400Y4987150D03*
G01*
X1326400Y4987150D03*
G01*
X5136400Y5368150D03*
G01*
X4882400Y5368150D03*
G01*
X4628400Y5368150D03*
G01*
X4628400Y5622150D03*
G01*
X4882400Y5622150D03*
G01*
X5136400Y5622150D03*
D18*
G01*
X5448284Y3695443D03*
G01*
X5829272Y3035551D03*
M02*
