G04 Layer: TopSilkscreenLayer*
G04 EasyEDA v6.5.29, 2023-07-23 13:13:55*
G04 121b0214f77d4f04981b34128f4af4b8,e855215096054eb7bd5858a7ef804e70,10*
G04 Gerber Generator version 0.2*
G04 Scale: 100 percent, Rotated: No, Reflected: No *
G04 Dimensions in millimeters *
G04 leading zeros omitted , absolute positions ,4 integer and 5 decimal *
%FSLAX45Y45*%
%MOMM*%

%ADD10C,0.1524*%
%ADD11C,0.2032*%
%ADD12C,0.1016*%
%ADD13C,0.2540*%
%ADD14C,0.1520*%
%ADD15C,0.1270*%
%ADD16C,0.0199*%

%LPD*%
D10*
X3041408Y5950572D02*
G01*
X3051822Y5955906D01*
X3062236Y5966320D01*
X3067316Y5976480D01*
X3067316Y5997308D01*
X3062236Y6007722D01*
X3051822Y6018136D01*
X3041408Y6023470D01*
X3025660Y6028550D01*
X2999752Y6028550D01*
X2984258Y6023470D01*
X2973844Y6018136D01*
X2963430Y6007722D01*
X2958350Y5997308D01*
X2958350Y5976480D01*
X2963430Y5966320D01*
X2973844Y5955906D01*
X2984258Y5950572D01*
X3046488Y5916282D02*
G01*
X3051822Y5905868D01*
X3067316Y5890374D01*
X2958350Y5890374D01*
X5657608Y5963272D02*
G01*
X5668022Y5968606D01*
X5678436Y5979020D01*
X5683516Y5989180D01*
X5683516Y6010008D01*
X5678436Y6020422D01*
X5668022Y6030836D01*
X5657608Y6036170D01*
X5641860Y6041250D01*
X5615952Y6041250D01*
X5600458Y6036170D01*
X5590044Y6030836D01*
X5579630Y6020422D01*
X5574550Y6010008D01*
X5574550Y5989180D01*
X5579630Y5979020D01*
X5590044Y5968606D01*
X5600458Y5963272D01*
X5683516Y5856338D02*
G01*
X5574550Y5908154D01*
X5683516Y5928982D02*
G01*
X5683516Y5856338D01*
X6191008Y5963272D02*
G01*
X6201422Y5968606D01*
X6211836Y5979020D01*
X6216916Y5989180D01*
X6216916Y6010008D01*
X6211836Y6020422D01*
X6201422Y6030836D01*
X6191008Y6036170D01*
X6175260Y6041250D01*
X6149352Y6041250D01*
X6133858Y6036170D01*
X6123444Y6030836D01*
X6113030Y6020422D01*
X6107950Y6010008D01*
X6107950Y5989180D01*
X6113030Y5979020D01*
X6123444Y5968606D01*
X6133858Y5963272D01*
X6216916Y5903074D02*
G01*
X6211836Y5918568D01*
X6201422Y5923902D01*
X6191008Y5923902D01*
X6180594Y5918568D01*
X6175260Y5908154D01*
X6170180Y5887580D01*
X6165100Y5871832D01*
X6154686Y5861418D01*
X6144272Y5856338D01*
X6128524Y5856338D01*
X6118110Y5861418D01*
X6113030Y5866752D01*
X6107950Y5882246D01*
X6107950Y5903074D01*
X6113030Y5918568D01*
X6118110Y5923902D01*
X6128524Y5928982D01*
X6144272Y5928982D01*
X6154686Y5923902D01*
X6165100Y5913488D01*
X6170180Y5897740D01*
X6175260Y5877166D01*
X6180594Y5866752D01*
X6191008Y5861418D01*
X6201422Y5861418D01*
X6211836Y5866752D01*
X6216916Y5882246D01*
X6216916Y5903074D01*
X6711708Y5950572D02*
G01*
X6722122Y5955906D01*
X6732536Y5966320D01*
X6737616Y5976480D01*
X6737616Y5997308D01*
X6732536Y6007722D01*
X6722122Y6018136D01*
X6711708Y6023470D01*
X6695960Y6028550D01*
X6670052Y6028550D01*
X6654558Y6023470D01*
X6644144Y6018136D01*
X6633730Y6007722D01*
X6628650Y5997308D01*
X6628650Y5976480D01*
X6633730Y5966320D01*
X6644144Y5955906D01*
X6654558Y5950572D01*
X6701294Y5848718D02*
G01*
X6685800Y5854052D01*
X6675386Y5864466D01*
X6670052Y5879960D01*
X6670052Y5885040D01*
X6675386Y5900788D01*
X6685800Y5911202D01*
X6701294Y5916282D01*
X6706374Y5916282D01*
X6722122Y5911202D01*
X6732536Y5900788D01*
X6737616Y5885040D01*
X6737616Y5879960D01*
X6732536Y5864466D01*
X6722122Y5854052D01*
X6701294Y5848718D01*
X6675386Y5848718D01*
X6649224Y5854052D01*
X6633730Y5864466D01*
X6628650Y5879960D01*
X6628650Y5890374D01*
X6633730Y5905868D01*
X6644144Y5911202D01*
X5860072Y4644758D02*
G01*
X5854738Y4655172D01*
X5844324Y4665586D01*
X5834164Y4670666D01*
X5813336Y4670666D01*
X5802922Y4665586D01*
X5792508Y4655172D01*
X5787174Y4644758D01*
X5782094Y4629010D01*
X5782094Y4603102D01*
X5787174Y4587608D01*
X5792508Y4577194D01*
X5802922Y4566780D01*
X5813336Y4561700D01*
X5834164Y4561700D01*
X5844324Y4566780D01*
X5854738Y4577194D01*
X5860072Y4587608D01*
X5956592Y4655172D02*
G01*
X5951512Y4665586D01*
X5935764Y4670666D01*
X5925604Y4670666D01*
X5909856Y4665586D01*
X5899442Y4649838D01*
X5894362Y4623930D01*
X5894362Y4598022D01*
X5899442Y4577194D01*
X5909856Y4566780D01*
X5925604Y4561700D01*
X5930684Y4561700D01*
X5946178Y4566780D01*
X5956592Y4577194D01*
X5961926Y4592688D01*
X5961926Y4598022D01*
X5956592Y4613516D01*
X5946178Y4623930D01*
X5930684Y4629010D01*
X5925604Y4629010D01*
X5909856Y4623930D01*
X5899442Y4613516D01*
X5894362Y4598022D01*
D11*
X5885700Y4347832D02*
G01*
X5967488Y4347832D01*
X5621794Y4401426D02*
G01*
X5621794Y4319384D01*
X5580900Y4360532D02*
G01*
X5662688Y4360532D01*
D10*
X3434600Y3921366D02*
G01*
X3434600Y3812400D01*
X3434600Y3921366D02*
G01*
X3470922Y3921366D01*
X3486670Y3916286D01*
X3496830Y3905872D01*
X3502164Y3895458D01*
X3507244Y3879710D01*
X3507244Y3853802D01*
X3502164Y3838308D01*
X3496830Y3827894D01*
X3486670Y3817480D01*
X3470922Y3812400D01*
X3434600Y3812400D01*
X3541534Y3921366D02*
G01*
X3541534Y3812400D01*
X3648722Y3905872D02*
G01*
X3638308Y3916286D01*
X3622560Y3921366D01*
X3601986Y3921366D01*
X3586238Y3916286D01*
X3575824Y3905872D01*
X3575824Y3895458D01*
X3581158Y3885044D01*
X3586238Y3879710D01*
X3596652Y3874630D01*
X3627894Y3864216D01*
X3638308Y3859136D01*
X3643388Y3853802D01*
X3648722Y3843388D01*
X3648722Y3827894D01*
X3638308Y3817480D01*
X3622560Y3812400D01*
X3601986Y3812400D01*
X3586238Y3817480D01*
X3575824Y3827894D01*
X3688092Y3895458D02*
G01*
X3688092Y3900538D01*
X3693426Y3910952D01*
X3698506Y3916286D01*
X3708920Y3921366D01*
X3729748Y3921366D01*
X3740162Y3916286D01*
X3745242Y3910952D01*
X3750576Y3900538D01*
X3750576Y3890124D01*
X3745242Y3879710D01*
X3734828Y3864216D01*
X3683012Y3812400D01*
X3755656Y3812400D01*
X2405900Y706234D02*
G01*
X2405900Y815200D01*
X2405900Y706234D02*
G01*
X2359164Y706234D01*
X2343670Y711314D01*
X2338336Y716648D01*
X2333256Y727062D01*
X2333256Y737476D01*
X2338336Y747890D01*
X2343670Y752970D01*
X2359164Y758050D01*
X2405900Y758050D01*
X2369578Y758050D02*
G01*
X2333256Y815200D01*
X2288552Y706234D02*
G01*
X2231402Y706234D01*
X2262390Y747890D01*
X2246896Y747890D01*
X2236482Y752970D01*
X2231402Y758050D01*
X2226068Y773798D01*
X2226068Y784212D01*
X2231402Y799706D01*
X2241816Y810120D01*
X2257310Y815200D01*
X2272804Y815200D01*
X2288552Y810120D01*
X2293632Y805040D01*
X2298966Y794626D01*
X2847352Y7683106D02*
G01*
X2857766Y7693520D01*
X2862846Y7709014D01*
X2862846Y7729842D01*
X2857766Y7745336D01*
X2847352Y7755750D01*
X2836938Y7755750D01*
X2826524Y7750670D01*
X2821190Y7745336D01*
X2816110Y7734922D01*
X2805696Y7703680D01*
X2800616Y7693520D01*
X2795282Y7688186D01*
X2784868Y7683106D01*
X2769374Y7683106D01*
X2758960Y7693520D01*
X2753880Y7709014D01*
X2753880Y7729842D01*
X2758960Y7745336D01*
X2769374Y7755750D01*
X2862846Y7648816D02*
G01*
X2753880Y7622654D01*
X2862846Y7596746D02*
G01*
X2753880Y7622654D01*
X2862846Y7596746D02*
G01*
X2753880Y7570838D01*
X2862846Y7544930D02*
G01*
X2753880Y7570838D01*
X2842018Y7510640D02*
G01*
X2847352Y7500226D01*
X2862846Y7484478D01*
X2753880Y7484478D01*
X4716630Y7053732D02*
G01*
X4716630Y7131710D01*
X4711550Y7147204D01*
X4701136Y7157618D01*
X4685388Y7162698D01*
X4674974Y7162698D01*
X4659480Y7157618D01*
X4649066Y7147204D01*
X4643986Y7131710D01*
X4643986Y7053732D01*
X4557626Y7053732D02*
G01*
X4609696Y7126376D01*
X4531718Y7126376D01*
X4557626Y7053732D02*
G01*
X4557626Y7162698D01*
X1058684Y5749150D02*
G01*
X1136662Y5749150D01*
X1152156Y5754230D01*
X1162570Y5764644D01*
X1167650Y5780392D01*
X1167650Y5790806D01*
X1162570Y5806300D01*
X1152156Y5816714D01*
X1136662Y5821794D01*
X1058684Y5821794D01*
X1037856Y5882246D02*
G01*
X1188478Y5882246D01*
X1037856Y5902820D02*
G01*
X1188478Y5902820D01*
X1074178Y5928982D02*
G01*
X1063764Y5918568D01*
X1058684Y5902820D01*
X1058684Y5882246D01*
X1063764Y5866498D01*
X1074178Y5856084D01*
X1084592Y5856084D01*
X1095006Y5861418D01*
X1100340Y5866498D01*
X1105420Y5876912D01*
X1115834Y5908154D01*
X1120914Y5918568D01*
X1126248Y5923648D01*
X1136662Y5928982D01*
X1152156Y5928982D01*
X1162570Y5918568D01*
X1167650Y5902820D01*
X1167650Y5882246D01*
X1162570Y5866498D01*
X1152156Y5856084D01*
X1079512Y5963272D02*
G01*
X1074178Y5973686D01*
X1058684Y5989180D01*
X1167650Y5989180D01*
D12*
X3809339Y5568094D02*
G01*
X3809974Y5551761D01*
X3818511Y5535648D01*
X3835303Y5519767D01*
X3851866Y5512145D01*
X3868026Y5512595D01*
X3876055Y5521086D01*
X3879847Y5533229D01*
X3879616Y5541487D01*
X3875140Y5553760D01*
X3857896Y5585800D01*
X3853604Y5597898D01*
X3853375Y5606155D01*
X3856982Y5618474D01*
X3868851Y5631025D01*
X3885366Y5631487D01*
X3901757Y5623679D01*
X3918551Y5607796D01*
X3927261Y5591870D01*
X3927538Y5575528D01*
X3740447Y5609470D02*
G01*
X3823693Y5697501D01*
X3769789Y5581721D02*
G01*
X3711102Y5637220D01*
X3683419Y5663397D02*
G01*
X3766665Y5751428D01*
X3683419Y5663397D02*
G01*
X3733078Y5783191D01*
X3616243Y5726922D02*
G01*
X3733078Y5783191D01*
X3616243Y5726922D02*
G01*
X3699489Y5814954D01*
X3580256Y5760953D02*
G01*
X3534117Y5804583D01*
X3590980Y5814438D01*
X3578430Y5826305D01*
X3574140Y5838403D01*
X3573734Y5846478D01*
X3581532Y5863224D01*
X3589385Y5871530D01*
X3605496Y5880064D01*
X3621831Y5880701D01*
X3638219Y5872894D01*
X3650952Y5860851D01*
X3659662Y5844923D01*
X3659893Y5836665D01*
X3655926Y5824336D01*
X3517841Y5859828D02*
G01*
X3513828Y5855583D01*
X3501915Y5851118D01*
X3493655Y5850887D01*
X3481153Y5854672D01*
X3464544Y5870379D01*
X3460069Y5882650D01*
X3459838Y5890910D01*
X3463630Y5903053D01*
X3471484Y5911359D01*
X3483571Y5916007D01*
X3503929Y5920529D01*
X3585438Y5922807D01*
X3526751Y5978304D01*
D10*
X5870648Y3499357D02*
G01*
X5776280Y3444875D01*
X5870648Y3499357D02*
G01*
X5894016Y3458883D01*
X5897364Y3442926D01*
X5895411Y3435639D01*
X5888931Y3426030D01*
X5879914Y3420823D01*
X5868355Y3420016D01*
X5861286Y3422096D01*
X5849142Y3432975D01*
X5825774Y3473450D01*
X5843935Y3441992D02*
G01*
X5812604Y3381964D01*
X5950150Y3361656D02*
G01*
X5861202Y3370427D01*
X5900191Y3302896D01*
X5950150Y3361656D02*
G01*
X5855782Y3307173D01*
G36*
X6012586Y4429455D02*
G01*
X6012688Y3983837D01*
X6024067Y3995826D01*
X6034786Y4008374D01*
X6044793Y4021429D01*
X6054140Y4035044D01*
X6062776Y4049115D01*
X6070650Y4063593D01*
X6077712Y4078478D01*
X6084062Y4093718D01*
X6089548Y4109262D01*
X6094222Y4125061D01*
X6098082Y4141114D01*
X6099708Y4149191D01*
X6102248Y4165498D01*
X6103264Y4173677D01*
X6104534Y4190085D01*
X6104991Y4206595D01*
X6104534Y4223105D01*
X6103264Y4239514D01*
X6101080Y4255871D01*
X6099708Y4263999D01*
X6096254Y4280154D01*
X6091986Y4296054D01*
X6086906Y4311751D01*
X6084062Y4319473D01*
X6077712Y4334713D01*
X6070650Y4349597D01*
X6062776Y4364126D01*
X6054140Y4378147D01*
X6044793Y4391761D01*
X6034786Y4404817D01*
X6024067Y4417364D01*
X6018479Y4423460D01*
G37*
G36*
X5736894Y8016443D02*
G01*
X5811926Y7886446D01*
X5901893Y8016443D01*
G37*
D13*
X2900260Y6033630D02*
G01*
X2900260Y5954890D01*
X2859620Y5995530D02*
G01*
X2943440Y5995530D01*
X5516460Y6046330D02*
G01*
X5516460Y5967590D01*
X5475820Y6008230D02*
G01*
X5559640Y6008230D01*
X6049860Y6046330D02*
G01*
X6049860Y5967590D01*
X6009220Y6008230D02*
G01*
X6093040Y6008230D01*
X6570560Y6033630D02*
G01*
X6570560Y5954890D01*
X6529920Y5995530D02*
G01*
X6613740Y5995530D01*
X550811Y3767848D02*
G01*
X6350825Y3767848D01*
X6350825Y367855D01*
X550811Y367855D01*
X550811Y3767848D01*
X2659900Y897750D02*
G01*
X2151900Y897750D01*
X2151900Y897750D02*
G01*
X2151900Y973950D01*
X2151900Y973950D02*
G01*
X2151900Y1050150D01*
X2151900Y1050150D02*
G01*
X2659900Y1050150D01*
X2659900Y1050150D02*
G01*
X2659900Y973950D01*
X2659900Y973950D02*
G01*
X2659900Y897750D01*
X2151900Y973950D02*
G01*
X2126500Y973950D01*
X2659900Y973950D02*
G01*
X2685300Y973950D01*
X2633230Y8339950D02*
G01*
X2633230Y7171550D01*
X1259090Y7171550D01*
X1259090Y8339950D01*
X2633230Y8339950D01*
D14*
X4476000Y8073250D02*
G01*
X3036902Y8073250D01*
X6346901Y8073250D02*
G01*
X4895100Y8073250D01*
D10*
X6346901Y8073250D02*
G01*
X6346901Y7209650D01*
D14*
X6346901Y7209650D02*
G01*
X3036902Y7209650D01*
D10*
X3036902Y7209650D02*
G01*
X3036902Y8073250D01*
D14*
X3039234Y7514704D02*
G01*
X3206864Y7514704D01*
X3206864Y7771452D01*
X3039234Y7771452D01*
X6344526Y7514704D02*
G01*
X6176901Y7514704D01*
X6176901Y7771452D01*
X6344526Y7771452D01*
D15*
X6406400Y4860150D02*
G01*
X6406400Y5368150D01*
X5961900Y5368150D01*
X5961900Y5431650D01*
X5898400Y5495150D01*
X5898400Y6003150D01*
X5961900Y6066650D01*
X5961900Y6130150D01*
X6406400Y6130150D01*
X6406400Y6003150D01*
X6406400Y5495150D01*
X6406400Y5368150D01*
X3739400Y6257150D02*
G01*
X3802900Y6193650D01*
X3866400Y6130150D01*
X3929900Y6066650D01*
X3993400Y6003150D01*
X4056900Y5939650D01*
X4120400Y5876150D01*
X4183900Y5812650D01*
X4247400Y5749150D01*
X4183900Y5685650D01*
X4120400Y5622150D01*
X4056900Y5558650D01*
X3993400Y5495150D01*
X3929900Y5431650D01*
X3866400Y5368150D01*
X3802900Y5304650D01*
X3739400Y5241150D01*
X3675900Y5304650D01*
X3612400Y5368150D01*
X3548900Y5431650D01*
X3485400Y5495150D01*
X3421900Y5558650D01*
X3358400Y5622150D01*
X3294900Y5685650D01*
X3231400Y5749150D01*
X3294900Y5812650D01*
X3358400Y5876150D01*
X3421900Y5939650D01*
X3485400Y6003150D01*
X3548900Y6066650D01*
X3612400Y6130150D01*
X3675900Y6193650D01*
X3739400Y6257150D01*
X3675900Y5304650D02*
G01*
X3612400Y5241150D01*
X3612400Y5368150D02*
G01*
X3548900Y5304650D01*
X3548900Y5431650D02*
G01*
X3485400Y5368150D01*
X3485400Y5495150D02*
G01*
X3421900Y5431650D01*
X3421900Y5558650D02*
G01*
X3358400Y5495150D01*
X3358400Y5622150D02*
G01*
X3294900Y5558650D01*
X3294900Y5685650D02*
G01*
X3231400Y5622150D01*
X3294900Y5812650D02*
G01*
X3231400Y5876150D01*
X3358400Y5876150D02*
G01*
X3294900Y5939650D01*
X3421900Y5939650D02*
G01*
X3358400Y6003150D01*
X3485400Y6003150D02*
G01*
X3421900Y6066650D01*
X3548900Y6066650D02*
G01*
X3485400Y6130150D01*
X3612400Y6130150D02*
G01*
X3548900Y6193650D01*
X3929900Y6193650D02*
G01*
X3866400Y6130150D01*
X3993400Y6130150D02*
G01*
X3929900Y6066650D01*
X4056900Y6066650D02*
G01*
X3993400Y6003150D01*
X4120400Y6003150D02*
G01*
X4056900Y5939650D01*
X4183900Y5939650D02*
G01*
X4120400Y5876150D01*
X4247400Y5876150D02*
G01*
X4183900Y5812650D01*
X4183900Y5685650D02*
G01*
X4247400Y5622150D01*
X4120400Y5622150D02*
G01*
X4183900Y5558650D01*
X4056900Y5558650D02*
G01*
X4120400Y5495150D01*
X3993400Y5495150D02*
G01*
X4056900Y5431650D01*
X3929900Y5431650D02*
G01*
X3993400Y5368150D01*
X3866400Y5368150D02*
G01*
X3929900Y5304650D01*
X6279400Y4733150D02*
G01*
X1326400Y4733150D01*
X1199400Y4860150D02*
G01*
X1199400Y6638150D01*
X1326400Y6765150D02*
G01*
X6279400Y6765150D01*
X6406400Y6638150D02*
G01*
X6406400Y6130150D01*
X6152400Y5876150D02*
G01*
X6152400Y6003150D01*
X6025400Y6003150D01*
X6025400Y5876150D01*
X6152400Y5876150D01*
X6152400Y5495150D02*
G01*
X6152400Y5622150D01*
X6025400Y5622150D01*
X6025400Y5495150D01*
X6152400Y5495150D01*
X3675900Y6193650D02*
G01*
X3612400Y6257150D01*
X3866400Y6257150D02*
G01*
X3802900Y6193650D01*
X3866400Y5241150D02*
G01*
X3802900Y5304650D01*
X2278900Y6003150D02*
G01*
X2278900Y5495150D01*
X2659900Y5495150D02*
G01*
X2659900Y6003150D01*
D13*
X5577791Y3623571D02*
G01*
X5831789Y3183628D01*
X5831789Y3183628D02*
G01*
X5765800Y3145528D01*
X5765800Y3145528D02*
G01*
X5699808Y3107428D01*
X5699808Y3107428D02*
G01*
X5445808Y3547369D01*
X5445808Y3547369D02*
G01*
X5511797Y3585471D01*
X5511797Y3585471D02*
G01*
X5577791Y3623571D01*
X5765800Y3145528D02*
G01*
X5778500Y3123531D01*
X5511797Y3585471D02*
G01*
X5499097Y3607468D01*
G75*
G01*
X2581415Y5780646D02*
G03*
X2577351Y5780646I-2032J224992D01*
G75*
G01*
X5197615Y5793346D02*
G03*
X5193551Y5793346I-2032J224992D01*
G75*
G01*
X5731015Y5793346D02*
G03*
X5726951Y5793346I-2032J224992D01*
G75*
G01*
X6251715Y5780646D02*
G03*
X6247651Y5780646I-2032J224992D01*
G75*
G01*
X6099112Y4212450D02*
G02*
X5469090Y4212450I-315011J0D01*
G75*
G01*
X5469090Y4212450D02*
G02*
X6099112Y4212450I315011J0D01*
D15*
G75*
G01*
X6406401Y4860150D02*
G02*
X6279401Y4733150I-127000J0D01*
G75*
G01*
X1326401Y4733150D02*
G02*
X1199401Y4860150I0J127000D01*
G75*
G01*
X1199401Y6638150D02*
G02*
X1326401Y6765150I127000J0D01*
G75*
G01*
X6279401Y6765150D02*
G02*
X6406401Y6638150I0J-127000D01*
G75*
G01*
X6406401Y6130150D02*
G03*
X6406401Y6003150I63516J-63500D01*
G75*
G01*
X6406401Y5495150D02*
G03*
X6406401Y5368150I63516J-63500D01*
G75*
G01*
X3739401Y6193650D02*
G03*
X3740087Y6193650I343J-63499D01*
G75*
G01*
X2469401Y6193650D02*
G03*
X2278901Y6003150I0J-190500D01*
G75*
G01*
X2278901Y5495150D02*
G03*
X2469401Y5304650I190500J0D01*
G75*
G01*
X2469401Y5304650D02*
G03*
X2659901Y5495150I0J190500D01*
G75*
G01*
X2659901Y6003150D02*
G03*
X2469401Y6193650I-190500J0D01*
D13*
G75*
G01
X6099112Y4212450D02*
G03X6099112Y4212450I-315011J0D01*
G75*
G01
X2259851Y7755750D02*
G03X2259851Y7755750I-350520J0D01*
G75*
G01
X2409711Y7755750D02*
G03X2409711Y7755750I-500380J0D01*
G75*
G01
X2209051Y7755750D02*
G03X2209051Y7755750I-299720J0D01*
M02*
